G04 #@! TF.FileFunction,Soldermask,Bot*
%FSLAX46Y46*%
G04 Gerber Fmt 4.6, Leading zero omitted, Abs format (unit mm)*
G04 Created by KiCad (PCBNEW 4.0.7-e0-6372~58~ubuntu16.04.1) date Sun Jul 15 17:02:29 2018*
%MOMM*%
%LPD*%
G01*
G04 APERTURE LIST*
%ADD10C,0.100000*%
%ADD11R,2.100000X2.100000*%
%ADD12O,2.100000X2.100000*%
%ADD13R,3.900000X3.900000*%
%ADD14C,15.400000*%
%ADD15C,2.559000*%
%ADD16C,2.076400*%
%ADD17R,2.200000X2.200000*%
%ADD18C,2.200000*%
%ADD19R,2.100000X2.400000*%
%ADD20R,0.800000X1.750000*%
%ADD21O,1.650000X1.350000*%
%ADD22O,1.400000X1.950000*%
%ADD23R,1.950000X1.000000*%
%ADD24R,2.400000X2.000000*%
%ADD25R,3.400000X2.200000*%
%ADD26O,3.400000X2.200000*%
%ADD27R,1.910000X3.410000*%
%ADD28O,1.910000X3.410000*%
%ADD29O,2.400000X4.400000*%
G04 APERTURE END LIST*
D10*
D11*
X84074000Y-136093200D03*
D12*
X84074000Y-133553200D03*
D13*
X72682100Y-28936200D03*
X72682100Y-22936200D03*
X67982100Y-25936200D03*
D11*
X79921100Y-129933700D03*
D12*
X77381100Y-129933700D03*
D11*
X86895000Y-75035700D03*
D12*
X84355000Y-75035700D03*
X86895000Y-77575700D03*
X84355000Y-77575700D03*
X86895000Y-80115700D03*
X84355000Y-80115700D03*
D14*
X72445000Y-115285700D03*
D11*
X59778900Y-147828000D03*
D12*
X59778900Y-145288000D03*
X59778900Y-142748000D03*
X59778900Y-140208000D03*
D11*
X59778900Y-116248000D03*
D12*
X59778900Y-113708000D03*
X59778900Y-111168000D03*
X59778900Y-108628000D03*
D15*
X60492640Y-104165400D03*
X60492640Y-91668600D03*
X65491360Y-104165400D03*
X65491360Y-91668600D03*
D16*
X56852820Y-97932240D03*
X69184520Y-97932240D03*
D15*
X78860640Y-104165400D03*
X78860640Y-91668600D03*
X83859360Y-104165400D03*
X83859360Y-91668600D03*
D16*
X75220820Y-97932240D03*
X87552520Y-97932240D03*
D17*
X64135000Y-97929700D03*
D18*
X61595000Y-97929700D03*
D17*
X82804000Y-97802700D03*
D18*
X80264000Y-97802700D03*
D19*
X74041000Y-47129700D03*
X74041000Y-51129700D03*
D17*
X70904100Y-41719500D03*
D18*
X73444100Y-41719500D03*
D20*
X70885000Y-44255700D03*
X71535000Y-44255700D03*
X72185000Y-44255700D03*
X72835000Y-44255700D03*
X73485000Y-44255700D03*
D21*
X69685000Y-44255700D03*
X74685000Y-44255700D03*
D22*
X68685000Y-41555700D03*
X75685000Y-41555700D03*
D19*
X73787000Y-104914700D03*
X73787000Y-100914700D03*
X70485000Y-100914700D03*
X70485000Y-104914700D03*
D11*
X81455000Y-73455700D03*
D12*
X81455000Y-75995700D03*
X81455000Y-78535700D03*
X81455000Y-81075700D03*
X81455000Y-83615700D03*
D11*
X63295000Y-83685700D03*
D12*
X63295000Y-81145700D03*
X63295000Y-78605700D03*
X63295000Y-76065700D03*
X63295000Y-73525700D03*
D17*
X70408800Y-156756100D03*
D18*
X72948800Y-156756100D03*
D23*
X69269000Y-67425700D03*
X69269000Y-66155700D03*
X69269000Y-64885700D03*
X69269000Y-63615700D03*
X74669000Y-63615700D03*
X74669000Y-64885700D03*
X74669000Y-66155700D03*
X74669000Y-67425700D03*
D19*
X64770000Y-62941700D03*
X64770000Y-66941700D03*
X83185000Y-66814700D03*
X83185000Y-62814700D03*
X70485000Y-47129700D03*
X70485000Y-51129700D03*
X79756000Y-66814700D03*
X79756000Y-62814700D03*
X61468000Y-62941700D03*
X61468000Y-66941700D03*
X72136000Y-90690700D03*
X72136000Y-94690700D03*
X68961000Y-90690700D03*
X68961000Y-94690700D03*
X75438000Y-90690700D03*
X75438000Y-94690700D03*
X73787000Y-78053700D03*
X73787000Y-74053700D03*
X70358000Y-74180700D03*
X70358000Y-78180700D03*
D24*
X74039000Y-70255700D03*
X70039000Y-70255700D03*
X65595000Y-70243700D03*
X61595000Y-70243700D03*
X69969000Y-60605700D03*
X73969000Y-60605700D03*
X82486000Y-70243700D03*
X78486000Y-70243700D03*
D25*
X66566560Y-142049580D03*
D26*
X66566560Y-146847640D03*
X66566560Y-151645700D03*
X71865000Y-142049580D03*
X71865000Y-146847640D03*
X71865000Y-151645700D03*
X77163440Y-142049580D03*
X77163440Y-146847640D03*
X77163440Y-151645700D03*
D11*
X59867800Y-135890000D03*
D12*
X59867800Y-133350000D03*
X59867800Y-130810000D03*
D27*
X77266800Y-134124700D03*
D28*
X79806800Y-134124700D03*
D27*
X84543900Y-87414100D03*
D28*
X87083900Y-87414100D03*
D18*
X80276700Y-58369200D03*
X82776700Y-58369200D03*
X85276700Y-58369200D03*
D29*
X78376700Y-51369200D03*
X87176700Y-51369200D03*
D18*
X69572300Y-83496800D03*
X72072300Y-83496800D03*
X74572300Y-83496800D03*
D29*
X67322300Y-75996800D03*
X76822300Y-75996800D03*
D18*
X59109600Y-58521600D03*
X61609600Y-58521600D03*
X64109600Y-58521600D03*
D29*
X57209600Y-51521600D03*
X66009600Y-51521600D03*
M02*
