M48
;DRILL file {KiCad 4.0.7-e0-6372~58~ubuntu16.04.1} date Sun Jul 15 17:02:33 2018
;FORMAT={-:-/ absolute / metric / decimal}
FMAT,2
METRIC,TZ
T1C0.500
T2C0.550
T3C0.798
T4C0.900
T5C1.000
T6C1.016
T7C1.199
T8C1.598
T9C12.000
%
G90
G05
M71
T3
X56.853Y-97.932
X69.185Y-97.932
X75.221Y-97.932
X87.553Y-97.932
T4
X61.595Y-97.93
X64.135Y-97.93
X70.409Y-156.756
X70.904Y-41.719
X72.949Y-156.756
X73.444Y-41.719
X80.264Y-97.803
X82.804Y-97.803
T5
X59.11Y-58.522
X59.779Y-108.628
X59.779Y-111.168
X59.779Y-113.708
X59.779Y-116.248
X59.779Y-140.208
X59.779Y-142.748
X59.779Y-145.288
X59.779Y-147.828
X59.868Y-130.81
X59.868Y-133.35
X59.868Y-135.89
X61.61Y-58.522
X63.295Y-73.526
X63.295Y-76.066
X63.295Y-78.606
X63.295Y-81.146
X63.295Y-83.686
X64.11Y-58.522
X69.572Y-83.497
X72.072Y-83.497
X74.572Y-83.497
X77.267Y-134.125
X77.381Y-129.934
X79.807Y-134.125
X79.921Y-129.934
X80.277Y-58.369
X81.455Y-73.456
X81.455Y-75.996
X81.455Y-78.536
X81.455Y-81.076
X81.455Y-83.616
X82.777Y-58.369
X84.074Y-133.553
X84.074Y-136.093
X84.355Y-75.036
X84.355Y-77.576
X84.355Y-80.116
X84.544Y-87.414
X85.277Y-58.369
X86.895Y-75.036
X86.895Y-77.576
X86.895Y-80.116
X87.084Y-87.414
T6
X84.684Y-112.116
X84.684Y-114.833
X84.684Y-117.551
T7
X60.493Y-91.669
X60.493Y-104.165
X65.491Y-91.669
X65.491Y-104.165
X78.861Y-91.669
X78.861Y-104.165
X83.859Y-91.669
X83.859Y-104.165
T8
X31.326Y-122.283
X31.326Y-133.581
X37.625Y-122.283
X37.625Y-133.581
X43.927Y-122.283
X43.927Y-133.581
X102.326Y-120.673
X102.326Y-131.971
X114.927Y-120.673
X114.927Y-131.971
T9
X72.445Y-115.286
T1
X68.685Y-41.231G85X68.685Y-41.881
G05
X75.685Y-41.231G85X75.685Y-41.881
G05
T2
X69.835Y-44.256G85X69.535Y-44.256
G05
X74.835Y-44.256G85X74.535Y-44.256
G05
T5
X65.967Y-142.05G85X67.167Y-142.05
G05
X65.967Y-146.848G85X67.167Y-146.848
G05
X65.967Y-151.646G85X67.167Y-151.646
G05
X67.982Y-24.936G85X67.982Y-26.936
G05
X71.265Y-142.05G85X72.465Y-142.05
G05
X71.265Y-146.848G85X72.465Y-146.848
G05
X71.265Y-151.646G85X72.465Y-151.646
G05
X73.682Y-22.936G85X71.682Y-22.936
G05
X73.682Y-28.936G85X71.682Y-28.936
G05
X76.563Y-142.05G85X77.763Y-142.05
G05
X76.563Y-146.848G85X77.763Y-146.848
G05
X76.563Y-151.646G85X77.763Y-151.646
G05
T0
M30
