G04 #@! TF.FileFunction,Copper,L1,Top,Signal*
%FSLAX46Y46*%
G04 Gerber Fmt 4.6, Leading zero omitted, Abs format (unit mm)*
G04 Created by KiCad (PCBNEW 4.0.7-e0-6372~58~ubuntu16.04.1) date Sun Jul 15 17:02:29 2018*
%MOMM*%
%LPD*%
G01*
G04 APERTURE LIST*
%ADD10C,0.100000*%
%ADD11R,1.700000X1.700000*%
%ADD12O,1.700000X1.700000*%
%ADD13R,3.500000X3.500000*%
%ADD14C,2.397760*%
%ADD15C,15.000000*%
%ADD16C,2.159000*%
%ADD17C,1.676400*%
%ADD18R,3.200000X0.800000*%
%ADD19R,1.800000X1.800000*%
%ADD20C,1.800000*%
%ADD21R,1.600000X2.180000*%
%ADD22R,2.200000X1.200000*%
%ADD23R,6.400000X5.800000*%
%ADD24R,3.050000X2.750000*%
%ADD25O,1.250000X0.950000*%
%ADD26O,1.000000X1.550000*%
%ADD27R,1.700000X2.000000*%
%ADD28R,1.198880X2.499360*%
%ADD29R,3.000000X1.800000*%
%ADD30O,3.000000X1.800000*%
%ADD31R,1.510000X3.010000*%
%ADD32O,1.510000X3.010000*%
%ADD33C,1.879600*%
%ADD34O,2.000000X4.000000*%
%ADD35R,1.600000X1.000000*%
%ADD36R,2.000000X1.700000*%
G04 APERTURE END LIST*
D10*
D11*
X84074000Y-136093200D03*
D12*
X84074000Y-133553200D03*
D13*
X72682100Y-28936200D03*
X72682100Y-22936200D03*
X67982100Y-25936200D03*
D14*
X114927380Y-120672860D03*
X114927380Y-131970780D03*
X102326440Y-120672860D03*
X102326440Y-131970780D03*
X37625020Y-133581140D03*
X37625020Y-122283220D03*
X31325820Y-133581140D03*
X31325820Y-122283220D03*
X43926760Y-133581140D03*
X43926760Y-122283220D03*
D11*
X79921100Y-129933700D03*
D12*
X77381100Y-129933700D03*
D11*
X86895000Y-75035700D03*
D12*
X84355000Y-75035700D03*
X86895000Y-77575700D03*
X84355000Y-77575700D03*
X86895000Y-80115700D03*
X84355000Y-80115700D03*
D15*
X72445000Y-115285700D03*
D11*
X59778900Y-147828000D03*
D12*
X59778900Y-145288000D03*
X59778900Y-142748000D03*
X59778900Y-140208000D03*
D11*
X59778900Y-116248000D03*
D12*
X59778900Y-113708000D03*
X59778900Y-111168000D03*
X59778900Y-108628000D03*
D16*
X60492640Y-104165400D03*
X60492640Y-91668600D03*
X65491360Y-104165400D03*
X65491360Y-91668600D03*
D17*
X56852820Y-97932240D03*
X69184520Y-97932240D03*
D16*
X78860640Y-104165400D03*
X78860640Y-91668600D03*
X83859360Y-104165400D03*
X83859360Y-91668600D03*
D17*
X75220820Y-97932240D03*
X87552520Y-97932240D03*
D18*
X64414400Y-86550700D03*
X64414400Y-88150700D03*
D19*
X64135000Y-97929700D03*
D20*
X61595000Y-97929700D03*
D19*
X82804000Y-97802700D03*
D20*
X80264000Y-97802700D03*
D21*
X59695000Y-74085700D03*
X59695000Y-83265700D03*
D19*
X70904100Y-41719500D03*
D20*
X73444100Y-41719500D03*
D22*
X73545700Y-135013700D03*
X73545700Y-132733700D03*
X73545700Y-130453700D03*
D23*
X67245700Y-132733700D03*
D24*
X65570700Y-131208700D03*
X68920700Y-134258700D03*
X65570700Y-134258700D03*
X68920700Y-131208700D03*
D25*
X69685000Y-44255700D03*
X74685000Y-44255700D03*
D26*
X68685000Y-41555700D03*
X75685000Y-41555700D03*
D27*
X83426300Y-140627600D03*
X83426300Y-144627600D03*
X83489800Y-151549100D03*
X83489800Y-147549100D03*
D11*
X81455000Y-73455700D03*
D12*
X81455000Y-75995700D03*
X81455000Y-78535700D03*
X81455000Y-81075700D03*
X81455000Y-83615700D03*
D11*
X63295000Y-83685700D03*
D12*
X63295000Y-81145700D03*
X63295000Y-78605700D03*
X63295000Y-76065700D03*
X63295000Y-73525700D03*
D19*
X70408800Y-156756100D03*
D20*
X72948800Y-156756100D03*
D28*
X60706000Y-61688700D03*
X64516000Y-61688700D03*
X68326000Y-61688700D03*
X64516000Y-69308700D03*
X60706000Y-69308700D03*
X68326000Y-69308700D03*
X83693000Y-69435700D03*
X79883000Y-69435700D03*
X76073000Y-69435700D03*
X79883000Y-61815700D03*
X83693000Y-61815700D03*
X76073000Y-61815700D03*
D29*
X66566560Y-142049580D03*
D30*
X66566560Y-146847640D03*
X66566560Y-151645700D03*
X71865000Y-142049580D03*
X71865000Y-146847640D03*
X71865000Y-151645700D03*
X77163440Y-142049580D03*
X77163440Y-146847640D03*
X77163440Y-151645700D03*
D11*
X59867800Y-135890000D03*
D12*
X59867800Y-133350000D03*
X59867800Y-130810000D03*
D31*
X77266800Y-134124700D03*
D32*
X79806800Y-134124700D03*
D31*
X84543900Y-87414100D03*
D32*
X87083900Y-87414100D03*
D18*
X80467200Y-86296500D03*
X80467200Y-87896500D03*
D33*
X84683600Y-112115600D03*
X84683600Y-114833400D03*
X84683600Y-117551200D03*
D20*
X80276700Y-58369200D03*
X82776700Y-58369200D03*
X85276700Y-58369200D03*
D34*
X78376700Y-51369200D03*
X87176700Y-51369200D03*
D20*
X69572300Y-83496800D03*
X72072300Y-83496800D03*
X74572300Y-83496800D03*
D34*
X67322300Y-75996800D03*
X76822300Y-75996800D03*
D20*
X59109600Y-58521600D03*
X61609600Y-58521600D03*
X64109600Y-58521600D03*
D34*
X57209600Y-51521600D03*
X66009600Y-51521600D03*
D35*
X74587100Y-77609700D03*
X74587100Y-74409700D03*
X69587100Y-77609700D03*
X69587100Y-74409700D03*
D36*
X70066400Y-87312500D03*
X74066400Y-87312500D03*
M02*
