G04 #@! TF.FileFunction,Legend,Bot*
%FSLAX46Y46*%
G04 Gerber Fmt 4.6, Leading zero omitted, Abs format (unit mm)*
G04 Created by KiCad (PCBNEW 4.0.7-e0-6372~58~ubuntu16.04.1) date Sun Jul 15 17:02:29 2018*
%MOMM*%
%LPD*%
G01*
G04 APERTURE LIST*
%ADD10C,0.100000*%
%ADD11C,0.127000*%
%ADD12C,0.120000*%
%ADD13C,0.150000*%
%ADD14C,0.203200*%
%ADD15C,0.010000*%
%ADD16C,0.152400*%
%ADD17C,0.177800*%
G04 APERTURE END LIST*
D10*
D11*
X119126000Y-133850380D02*
X119126000Y-118854220D01*
X119126000Y-118854220D02*
X98127820Y-118854220D01*
X98127820Y-118854220D02*
X98127820Y-123654820D01*
X98127820Y-123654820D02*
X98127820Y-131650740D01*
X98127820Y-131650740D02*
X98127820Y-133850380D01*
X98127820Y-133850380D02*
X119126000Y-133850380D01*
X118397020Y-127650240D02*
X95128080Y-127650240D01*
X95128080Y-127650240D02*
X95128080Y-130649980D01*
X95128080Y-127650240D02*
X95128080Y-124653040D01*
X95128080Y-130649980D02*
X98127820Y-131650740D01*
X95128080Y-124653040D02*
X98127820Y-123654820D01*
X27127200Y-120403620D02*
X27127200Y-135399780D01*
X27127200Y-135399780D02*
X48125380Y-135399780D01*
X48125380Y-135399780D02*
X48125380Y-130599180D01*
X48125380Y-130599180D02*
X48125380Y-122603260D01*
X48125380Y-122603260D02*
X48125380Y-120403620D01*
X48125380Y-120403620D02*
X27127200Y-120403620D01*
X27856180Y-126603760D02*
X51125120Y-126603760D01*
X51125120Y-126603760D02*
X51125120Y-123604020D01*
X51125120Y-126603760D02*
X51125120Y-129600960D01*
X51125120Y-123604020D02*
X48125380Y-122603260D01*
X51125120Y-129600960D02*
X48125380Y-130599180D01*
D12*
X58448900Y-114978000D02*
X58448900Y-107298000D01*
X58448900Y-107298000D02*
X61108900Y-107298000D01*
X61108900Y-107298000D02*
X61108900Y-114978000D01*
X61108900Y-114978000D02*
X58448900Y-114978000D01*
X58448900Y-116248000D02*
X58448900Y-117578000D01*
X58448900Y-117578000D02*
X59778900Y-117578000D01*
X75111000Y-50129700D02*
X75111000Y-48129700D01*
X72971000Y-48129700D02*
X72971000Y-50129700D01*
X67835000Y-38875700D02*
X76535000Y-38875700D01*
X67835000Y-45285700D02*
X76535000Y-45285700D01*
X76535000Y-45285700D02*
X76535000Y-38875700D01*
X76535000Y-40105700D02*
X67835000Y-40105700D01*
X67835000Y-38875700D02*
X67835000Y-45285700D01*
X72717000Y-101914700D02*
X72717000Y-103914700D01*
X74857000Y-103914700D02*
X74857000Y-101914700D01*
X71555000Y-103914700D02*
X71555000Y-101914700D01*
X69415000Y-101914700D02*
X69415000Y-103914700D01*
X82915000Y-72125700D02*
X82915000Y-74725700D01*
X82915000Y-74725700D02*
X91545000Y-74725700D01*
X91545000Y-74725700D02*
X91545000Y-72125700D01*
X91545000Y-72125700D02*
X82915000Y-72125700D01*
X82485000Y-73075700D02*
X82915000Y-73075700D01*
X82485000Y-73835700D02*
X82915000Y-73835700D01*
X82915000Y-72305700D02*
X91545000Y-72305700D01*
X82915000Y-72425700D02*
X91545000Y-72425700D01*
X82915000Y-72545700D02*
X91545000Y-72545700D01*
X82915000Y-72665700D02*
X91545000Y-72665700D01*
X82915000Y-72785700D02*
X91545000Y-72785700D01*
X82915000Y-72905700D02*
X91545000Y-72905700D01*
X82915000Y-73025700D02*
X91545000Y-73025700D01*
X82915000Y-73145700D02*
X91545000Y-73145700D01*
X82915000Y-73265700D02*
X91545000Y-73265700D01*
X82915000Y-73385700D02*
X91545000Y-73385700D01*
X82915000Y-73505700D02*
X91545000Y-73505700D01*
X82915000Y-73625700D02*
X91545000Y-73625700D01*
X82915000Y-73745700D02*
X91545000Y-73745700D01*
X82915000Y-73865700D02*
X91545000Y-73865700D01*
X82915000Y-73985700D02*
X91545000Y-73985700D01*
X82915000Y-74105700D02*
X91545000Y-74105700D01*
X82915000Y-74225700D02*
X91545000Y-74225700D01*
X82915000Y-74345700D02*
X91545000Y-74345700D01*
X82915000Y-74465700D02*
X91545000Y-74465700D01*
X82915000Y-74585700D02*
X91545000Y-74585700D01*
X82915000Y-74705700D02*
X91545000Y-74705700D01*
X82915000Y-74825700D02*
X91545000Y-74825700D01*
X82915000Y-74725700D02*
X82915000Y-77265700D01*
X82915000Y-77265700D02*
X91545000Y-77265700D01*
X91545000Y-77265700D02*
X91545000Y-74725700D01*
X91545000Y-74725700D02*
X82915000Y-74725700D01*
X82485000Y-75615700D02*
X82915000Y-75615700D01*
X82485000Y-76375700D02*
X82915000Y-76375700D01*
X82915000Y-77265700D02*
X82915000Y-79805700D01*
X82915000Y-79805700D02*
X91545000Y-79805700D01*
X91545000Y-79805700D02*
X91545000Y-77265700D01*
X91545000Y-77265700D02*
X82915000Y-77265700D01*
X82485000Y-78155700D02*
X82915000Y-78155700D01*
X82485000Y-78915700D02*
X82915000Y-78915700D01*
X82915000Y-79805700D02*
X82915000Y-82345700D01*
X82915000Y-82345700D02*
X91545000Y-82345700D01*
X91545000Y-82345700D02*
X91545000Y-79805700D01*
X91545000Y-79805700D02*
X82915000Y-79805700D01*
X82485000Y-80695700D02*
X82915000Y-80695700D01*
X82485000Y-81455700D02*
X82915000Y-81455700D01*
X82915000Y-82345700D02*
X82915000Y-84945700D01*
X82915000Y-84945700D02*
X91545000Y-84945700D01*
X91545000Y-84945700D02*
X91545000Y-82345700D01*
X91545000Y-82345700D02*
X82915000Y-82345700D01*
X82485000Y-83235700D02*
X82915000Y-83235700D01*
X82485000Y-83995700D02*
X82915000Y-83995700D01*
X81455000Y-72185700D02*
X80185000Y-72185700D01*
X80185000Y-72185700D02*
X80185000Y-73455700D01*
X61835000Y-85015700D02*
X61835000Y-82415700D01*
X61835000Y-82415700D02*
X53205000Y-82415700D01*
X53205000Y-82415700D02*
X53205000Y-85015700D01*
X53205000Y-85015700D02*
X61835000Y-85015700D01*
X62265000Y-84065700D02*
X61835000Y-84065700D01*
X62265000Y-83305700D02*
X61835000Y-83305700D01*
X61835000Y-84835700D02*
X53205000Y-84835700D01*
X61835000Y-84715700D02*
X53205000Y-84715700D01*
X61835000Y-84595700D02*
X53205000Y-84595700D01*
X61835000Y-84475700D02*
X53205000Y-84475700D01*
X61835000Y-84355700D02*
X53205000Y-84355700D01*
X61835000Y-84235700D02*
X53205000Y-84235700D01*
X61835000Y-84115700D02*
X53205000Y-84115700D01*
X61835000Y-83995700D02*
X53205000Y-83995700D01*
X61835000Y-83875700D02*
X53205000Y-83875700D01*
X61835000Y-83755700D02*
X53205000Y-83755700D01*
X61835000Y-83635700D02*
X53205000Y-83635700D01*
X61835000Y-83515700D02*
X53205000Y-83515700D01*
X61835000Y-83395700D02*
X53205000Y-83395700D01*
X61835000Y-83275700D02*
X53205000Y-83275700D01*
X61835000Y-83155700D02*
X53205000Y-83155700D01*
X61835000Y-83035700D02*
X53205000Y-83035700D01*
X61835000Y-82915700D02*
X53205000Y-82915700D01*
X61835000Y-82795700D02*
X53205000Y-82795700D01*
X61835000Y-82675700D02*
X53205000Y-82675700D01*
X61835000Y-82555700D02*
X53205000Y-82555700D01*
X61835000Y-82435700D02*
X53205000Y-82435700D01*
X61835000Y-82315700D02*
X53205000Y-82315700D01*
X61835000Y-82415700D02*
X61835000Y-79875700D01*
X61835000Y-79875700D02*
X53205000Y-79875700D01*
X53205000Y-79875700D02*
X53205000Y-82415700D01*
X53205000Y-82415700D02*
X61835000Y-82415700D01*
X62265000Y-81525700D02*
X61835000Y-81525700D01*
X62265000Y-80765700D02*
X61835000Y-80765700D01*
X61835000Y-79875700D02*
X61835000Y-77335700D01*
X61835000Y-77335700D02*
X53205000Y-77335700D01*
X53205000Y-77335700D02*
X53205000Y-79875700D01*
X53205000Y-79875700D02*
X61835000Y-79875700D01*
X62265000Y-78985700D02*
X61835000Y-78985700D01*
X62265000Y-78225700D02*
X61835000Y-78225700D01*
X61835000Y-77335700D02*
X61835000Y-74795700D01*
X61835000Y-74795700D02*
X53205000Y-74795700D01*
X53205000Y-74795700D02*
X53205000Y-77335700D01*
X53205000Y-77335700D02*
X61835000Y-77335700D01*
X62265000Y-76445700D02*
X61835000Y-76445700D01*
X62265000Y-75685700D02*
X61835000Y-75685700D01*
X61835000Y-74795700D02*
X61835000Y-72195700D01*
X61835000Y-72195700D02*
X53205000Y-72195700D01*
X53205000Y-72195700D02*
X53205000Y-74795700D01*
X53205000Y-74795700D02*
X61835000Y-74795700D01*
X62265000Y-73905700D02*
X61835000Y-73905700D01*
X62265000Y-73145700D02*
X61835000Y-73145700D01*
X63295000Y-84955700D02*
X64565000Y-84955700D01*
X64565000Y-84955700D02*
X64565000Y-83685700D01*
D13*
X69894000Y-68095700D02*
X69894000Y-68045700D01*
X74044000Y-68095700D02*
X74044000Y-67950700D01*
X74044000Y-62945700D02*
X74044000Y-63090700D01*
X69894000Y-62945700D02*
X69894000Y-63090700D01*
X69894000Y-68095700D02*
X74044000Y-68095700D01*
X69894000Y-62945700D02*
X74044000Y-62945700D01*
X69894000Y-68045700D02*
X68494000Y-68045700D01*
D12*
X65840000Y-65941700D02*
X65840000Y-63941700D01*
X63700000Y-63941700D02*
X63700000Y-65941700D01*
X82115000Y-63814700D02*
X82115000Y-65814700D01*
X84255000Y-65814700D02*
X84255000Y-63814700D01*
X71555000Y-50129700D02*
X71555000Y-48129700D01*
X69415000Y-48129700D02*
X69415000Y-50129700D01*
X78686000Y-63814700D02*
X78686000Y-65814700D01*
X80826000Y-65814700D02*
X80826000Y-63814700D01*
X62538000Y-65941700D02*
X62538000Y-63941700D01*
X60398000Y-63941700D02*
X60398000Y-65941700D01*
X73206000Y-93690700D02*
X73206000Y-91690700D01*
X71066000Y-91690700D02*
X71066000Y-93690700D01*
X70031000Y-93690700D02*
X70031000Y-91690700D01*
X67891000Y-91690700D02*
X67891000Y-93690700D01*
X76508000Y-93690700D02*
X76508000Y-91690700D01*
X74368000Y-91690700D02*
X74368000Y-93690700D01*
X72717000Y-75053700D02*
X72717000Y-77053700D01*
X74857000Y-77053700D02*
X74857000Y-75053700D01*
X71428000Y-77180700D02*
X71428000Y-75180700D01*
X69288000Y-75180700D02*
X69288000Y-77180700D01*
X71039000Y-69235700D02*
X73039000Y-69235700D01*
X73039000Y-71275700D02*
X71039000Y-71275700D01*
X62595000Y-69223700D02*
X64595000Y-69223700D01*
X64595000Y-71263700D02*
X62595000Y-71263700D01*
X72969000Y-61625700D02*
X70969000Y-61625700D01*
X70969000Y-59585700D02*
X72969000Y-59585700D01*
X79486000Y-69223700D02*
X81486000Y-69223700D01*
X81486000Y-71263700D02*
X79486000Y-71263700D01*
D11*
X62017420Y-138348800D02*
X81712580Y-138348800D01*
X81712580Y-138348800D02*
X81712580Y-155346480D01*
X81712580Y-155346480D02*
X62017420Y-155346480D01*
X62017420Y-155346480D02*
X62017420Y-138348800D01*
D14*
X86857840Y-109019340D02*
X82509360Y-109019340D01*
X82509360Y-109019340D02*
X82509360Y-120647460D01*
X82509360Y-120647460D02*
X86857840Y-120647460D01*
X86857840Y-120647460D02*
X86857840Y-109019340D01*
D15*
G36*
X52823669Y-82176357D02*
X52823685Y-79899054D01*
X52823719Y-77704879D01*
X52823775Y-75592292D01*
X52823854Y-73559753D01*
X52823958Y-71605722D01*
X52824091Y-69728661D01*
X52824255Y-67927030D01*
X52824451Y-66199290D01*
X52824683Y-64543900D01*
X52824953Y-62959322D01*
X52825263Y-61444016D01*
X52825616Y-59996443D01*
X52826014Y-58615063D01*
X52826460Y-57298337D01*
X52826955Y-56044725D01*
X52827503Y-54852687D01*
X52828106Y-53720685D01*
X52828766Y-52647179D01*
X52829485Y-51630630D01*
X52830267Y-50669497D01*
X52831113Y-49762242D01*
X52832026Y-48907325D01*
X52833008Y-48103207D01*
X52834062Y-47348347D01*
X52835190Y-46641208D01*
X52836394Y-45980248D01*
X52837678Y-45363930D01*
X52839042Y-44790713D01*
X52840491Y-44259057D01*
X52842026Y-43767424D01*
X52843649Y-43314274D01*
X52845364Y-42898068D01*
X52847172Y-42517265D01*
X52849075Y-42170327D01*
X52851077Y-41855714D01*
X52853180Y-41571887D01*
X52855386Y-41317306D01*
X52857697Y-41090432D01*
X52860116Y-40889725D01*
X52862646Y-40713646D01*
X52865288Y-40560656D01*
X52868046Y-40429214D01*
X52870921Y-40317781D01*
X52873916Y-40224819D01*
X52877034Y-40148787D01*
X52880276Y-40088147D01*
X52883646Y-40041358D01*
X52887146Y-40006881D01*
X52889876Y-39988066D01*
X53039838Y-39363244D01*
X53265367Y-38765859D01*
X53560953Y-38202669D01*
X53921087Y-37680429D01*
X54340262Y-37205896D01*
X54812969Y-36785828D01*
X55333699Y-36426980D01*
X55896943Y-36136110D01*
X56097412Y-36053799D01*
X56320881Y-35972858D01*
X56568539Y-35890882D01*
X56795109Y-35822694D01*
X56845200Y-35808993D01*
X57205034Y-35713380D01*
X72064034Y-35701011D01*
X73412357Y-35699920D01*
X74678616Y-35698967D01*
X75865415Y-35698161D01*
X76975355Y-35697510D01*
X78011040Y-35697024D01*
X78975072Y-35696711D01*
X79870054Y-35696580D01*
X80698589Y-35696640D01*
X81463280Y-35696898D01*
X82166729Y-35697365D01*
X82811539Y-35698049D01*
X83400313Y-35698957D01*
X83935654Y-35700101D01*
X84420164Y-35701487D01*
X84856447Y-35703124D01*
X85247104Y-35705022D01*
X85594739Y-35707190D01*
X85901955Y-35709635D01*
X86171354Y-35712366D01*
X86405540Y-35715393D01*
X86607114Y-35718724D01*
X86778680Y-35722368D01*
X86922840Y-35726333D01*
X87042197Y-35730628D01*
X87139354Y-35735262D01*
X87216915Y-35740244D01*
X87277480Y-35745583D01*
X87323654Y-35751286D01*
X87329696Y-35752204D01*
X87972967Y-35895006D01*
X88588833Y-36116442D01*
X89170540Y-36413068D01*
X89711331Y-36781442D01*
X90203661Y-37217324D01*
X90644452Y-37717829D01*
X91010659Y-38258283D01*
X91302454Y-38839033D01*
X91520009Y-39460421D01*
X91663497Y-40122793D01*
X91665578Y-40136233D01*
X91668965Y-40165842D01*
X91672227Y-40210764D01*
X91675367Y-40272510D01*
X91678385Y-40352596D01*
X91681285Y-40452533D01*
X91684069Y-40573834D01*
X91686738Y-40718012D01*
X91689294Y-40886582D01*
X91691740Y-41081054D01*
X91694078Y-41302944D01*
X91696309Y-41553763D01*
X91698437Y-41835024D01*
X91700462Y-42148241D01*
X91702387Y-42494927D01*
X91704215Y-42876594D01*
X91705947Y-43294756D01*
X91707585Y-43750925D01*
X91709131Y-44246616D01*
X91710588Y-44783340D01*
X91711958Y-45362610D01*
X91713242Y-45985941D01*
X91714442Y-46654844D01*
X91715562Y-47370833D01*
X91716602Y-48135420D01*
X91717566Y-48950120D01*
X91718454Y-49816444D01*
X91719270Y-50735906D01*
X91720014Y-51710019D01*
X91720691Y-52740296D01*
X91721300Y-53828249D01*
X91721845Y-54975393D01*
X91722327Y-56183239D01*
X91722749Y-57453301D01*
X91723113Y-58787093D01*
X91723420Y-60186126D01*
X91723673Y-61651914D01*
X91723875Y-63185971D01*
X91724026Y-64789808D01*
X91724129Y-66464939D01*
X91724187Y-68212877D01*
X91724201Y-70035136D01*
X91724173Y-71933227D01*
X91724106Y-73908665D01*
X91724001Y-75962961D01*
X91723860Y-78097630D01*
X91723687Y-80314184D01*
X91723517Y-82236733D01*
X91723288Y-84551916D01*
X91723033Y-86783861D01*
X91722752Y-88934000D01*
X91722442Y-91003761D01*
X91722101Y-92994574D01*
X91721727Y-94907870D01*
X91721317Y-96745078D01*
X91720871Y-98507627D01*
X91720385Y-100196948D01*
X91719859Y-101814470D01*
X91719289Y-103361624D01*
X91718673Y-104839838D01*
X91718011Y-106250542D01*
X91717299Y-107595167D01*
X91716536Y-108875142D01*
X91715719Y-110091897D01*
X91714847Y-111246862D01*
X91713917Y-112341466D01*
X91712928Y-113377139D01*
X91711877Y-114355311D01*
X91710763Y-115277412D01*
X91709583Y-116144871D01*
X91708335Y-116959119D01*
X91707017Y-117721584D01*
X91705628Y-118433698D01*
X91704165Y-119096889D01*
X91702626Y-119712587D01*
X91701009Y-120282223D01*
X91699312Y-120807225D01*
X91697533Y-121289024D01*
X91695670Y-121729049D01*
X91693721Y-122128731D01*
X91691684Y-122489499D01*
X91689557Y-122812782D01*
X91687337Y-123100011D01*
X91685024Y-123352615D01*
X91682614Y-123572024D01*
X91680106Y-123759668D01*
X91677497Y-123916977D01*
X91674786Y-124045379D01*
X91671971Y-124146306D01*
X91669049Y-124221187D01*
X91666019Y-124271452D01*
X91663515Y-124294900D01*
X91522124Y-124935366D01*
X91305618Y-125542582D01*
X91018645Y-126111703D01*
X90665852Y-126637880D01*
X90251884Y-127116268D01*
X89781388Y-127542020D01*
X89259011Y-127910288D01*
X88689399Y-128216226D01*
X88077199Y-128454988D01*
X87536867Y-128599355D01*
X87502143Y-128606262D01*
X87462741Y-128612745D01*
X87415997Y-128618816D01*
X87359247Y-128624489D01*
X87289827Y-128629778D01*
X87205073Y-128634696D01*
X87102322Y-128639256D01*
X86978907Y-128643472D01*
X86832167Y-128647358D01*
X86659436Y-128650926D01*
X86458051Y-128654190D01*
X86225348Y-128657164D01*
X85958662Y-128659862D01*
X85655329Y-128662296D01*
X85312686Y-128664479D01*
X84928068Y-128666427D01*
X84498811Y-128668151D01*
X84022251Y-128669666D01*
X83495725Y-128670984D01*
X82916567Y-128672120D01*
X82282115Y-128673086D01*
X81589703Y-128673897D01*
X80836668Y-128674565D01*
X80020346Y-128675105D01*
X79138072Y-128675528D01*
X78187183Y-128675850D01*
X77165015Y-128676084D01*
X76068903Y-128676242D01*
X74896184Y-128676338D01*
X73644193Y-128676386D01*
X72310266Y-128676400D01*
X72275700Y-128676400D01*
X70930310Y-128676435D01*
X69666905Y-128676514D01*
X68482801Y-128676596D01*
X67375318Y-128676641D01*
X66341772Y-128676609D01*
X65379482Y-128676458D01*
X64485765Y-128676150D01*
X63657939Y-128675643D01*
X62893322Y-128674897D01*
X62366901Y-128674131D01*
X62366901Y-125861233D01*
X81810934Y-125861233D01*
X81840182Y-125511983D01*
X81935378Y-124817638D01*
X82103885Y-124157238D01*
X82350060Y-123515606D01*
X82505100Y-123194233D01*
X82866346Y-122584254D01*
X83295420Y-122020668D01*
X83786866Y-121507470D01*
X84335226Y-121048652D01*
X84935043Y-120648210D01*
X85580862Y-120310135D01*
X86267225Y-120038422D01*
X86988676Y-119837064D01*
X87134700Y-119805990D01*
X87392952Y-119764019D01*
X87709940Y-119728846D01*
X88059841Y-119703068D01*
X88245950Y-119694249D01*
X88933867Y-119668040D01*
X88933867Y-45144507D01*
X88330617Y-45118325D01*
X87553477Y-45052135D01*
X86826550Y-44921567D01*
X86141949Y-44723827D01*
X85491785Y-44456121D01*
X84868169Y-44115657D01*
X84263215Y-43699640D01*
X84210454Y-43659201D01*
X83665046Y-43185576D01*
X83185354Y-42660456D01*
X82773876Y-42088670D01*
X82433112Y-41475046D01*
X82165562Y-40824410D01*
X81973723Y-40141591D01*
X81860095Y-39431417D01*
X81833380Y-39067316D01*
X81809083Y-38527566D01*
X62360207Y-38527566D01*
X62337339Y-39130816D01*
X62273641Y-39828620D01*
X62135822Y-40490396D01*
X61922255Y-41119761D01*
X61631313Y-41720330D01*
X61261367Y-42295720D01*
X60810790Y-42849546D01*
X60531013Y-43143279D01*
X59972236Y-43647350D01*
X59382174Y-44074924D01*
X58757245Y-44427625D01*
X58093868Y-44707076D01*
X57388461Y-44914903D01*
X56637443Y-45052728D01*
X56220784Y-45097857D01*
X55617534Y-45148619D01*
X55617534Y-119750826D01*
X56198551Y-119802265D01*
X56769767Y-119869521D01*
X57290236Y-119968021D01*
X57790098Y-120103988D01*
X58005479Y-120175269D01*
X58689053Y-120454095D01*
X59326825Y-120797084D01*
X59914818Y-121199426D01*
X60449052Y-121656314D01*
X60925550Y-122162938D01*
X61340333Y-122714491D01*
X61689424Y-123306164D01*
X61968842Y-123933147D01*
X62174611Y-124590634D01*
X62302752Y-125273814D01*
X62315763Y-125384983D01*
X62366901Y-125861233D01*
X62366901Y-128674131D01*
X62189232Y-128673872D01*
X61542986Y-128672527D01*
X60951902Y-128670822D01*
X60413299Y-128668718D01*
X59924493Y-128666172D01*
X59482802Y-128663146D01*
X59085545Y-128659598D01*
X58730039Y-128655488D01*
X58413602Y-128650776D01*
X58133551Y-128645422D01*
X57887205Y-128639386D01*
X57671881Y-128632626D01*
X57484897Y-128625102D01*
X57323571Y-128616775D01*
X57185220Y-128607604D01*
X57067163Y-128597548D01*
X56966717Y-128586567D01*
X56881199Y-128574621D01*
X56807929Y-128561669D01*
X56744222Y-128547672D01*
X56687398Y-128532588D01*
X56634774Y-128516378D01*
X56583668Y-128499000D01*
X56531397Y-128480415D01*
X56475280Y-128460583D01*
X56412634Y-128439462D01*
X56407094Y-128437662D01*
X55795322Y-128195650D01*
X55223277Y-127878932D01*
X54691643Y-127487933D01*
X54326367Y-127152739D01*
X53885357Y-126652800D01*
X53518973Y-126113014D01*
X53227775Y-125534468D01*
X53012328Y-124918250D01*
X52891888Y-124381574D01*
X52888172Y-124355397D01*
X52884591Y-124319902D01*
X52881145Y-124273540D01*
X52877829Y-124214761D01*
X52874642Y-124142016D01*
X52871581Y-124053754D01*
X52868644Y-123948426D01*
X52865827Y-123824481D01*
X52863129Y-123680370D01*
X52860548Y-123514543D01*
X52858079Y-123325449D01*
X52855722Y-123111540D01*
X52853473Y-122871265D01*
X52851331Y-122603074D01*
X52849292Y-122305418D01*
X52847354Y-121976746D01*
X52845514Y-121615509D01*
X52843770Y-121220156D01*
X52842120Y-120789139D01*
X52840561Y-120320906D01*
X52839090Y-119813908D01*
X52837706Y-119266596D01*
X52836405Y-118677419D01*
X52835184Y-118044827D01*
X52834043Y-117367271D01*
X52832977Y-116643200D01*
X52831985Y-115871066D01*
X52831063Y-115049317D01*
X52830210Y-114176404D01*
X52829423Y-113250777D01*
X52828700Y-112270886D01*
X52828037Y-111235182D01*
X52827433Y-110142114D01*
X52826885Y-108990132D01*
X52826390Y-107777688D01*
X52825946Y-106503230D01*
X52825550Y-105165209D01*
X52825200Y-103762074D01*
X52824894Y-102292277D01*
X52824629Y-100754267D01*
X52824402Y-99146495D01*
X52824211Y-97467410D01*
X52824053Y-95715462D01*
X52823926Y-93889102D01*
X52823828Y-91986780D01*
X52823755Y-90006946D01*
X52823706Y-87948050D01*
X52823677Y-85808542D01*
X52823667Y-83586872D01*
X52823669Y-82176357D01*
X52823669Y-82176357D01*
G37*
X52823669Y-82176357D02*
X52823685Y-79899054D01*
X52823719Y-77704879D01*
X52823775Y-75592292D01*
X52823854Y-73559753D01*
X52823958Y-71605722D01*
X52824091Y-69728661D01*
X52824255Y-67927030D01*
X52824451Y-66199290D01*
X52824683Y-64543900D01*
X52824953Y-62959322D01*
X52825263Y-61444016D01*
X52825616Y-59996443D01*
X52826014Y-58615063D01*
X52826460Y-57298337D01*
X52826955Y-56044725D01*
X52827503Y-54852687D01*
X52828106Y-53720685D01*
X52828766Y-52647179D01*
X52829485Y-51630630D01*
X52830267Y-50669497D01*
X52831113Y-49762242D01*
X52832026Y-48907325D01*
X52833008Y-48103207D01*
X52834062Y-47348347D01*
X52835190Y-46641208D01*
X52836394Y-45980248D01*
X52837678Y-45363930D01*
X52839042Y-44790713D01*
X52840491Y-44259057D01*
X52842026Y-43767424D01*
X52843649Y-43314274D01*
X52845364Y-42898068D01*
X52847172Y-42517265D01*
X52849075Y-42170327D01*
X52851077Y-41855714D01*
X52853180Y-41571887D01*
X52855386Y-41317306D01*
X52857697Y-41090432D01*
X52860116Y-40889725D01*
X52862646Y-40713646D01*
X52865288Y-40560656D01*
X52868046Y-40429214D01*
X52870921Y-40317781D01*
X52873916Y-40224819D01*
X52877034Y-40148787D01*
X52880276Y-40088147D01*
X52883646Y-40041358D01*
X52887146Y-40006881D01*
X52889876Y-39988066D01*
X53039838Y-39363244D01*
X53265367Y-38765859D01*
X53560953Y-38202669D01*
X53921087Y-37680429D01*
X54340262Y-37205896D01*
X54812969Y-36785828D01*
X55333699Y-36426980D01*
X55896943Y-36136110D01*
X56097412Y-36053799D01*
X56320881Y-35972858D01*
X56568539Y-35890882D01*
X56795109Y-35822694D01*
X56845200Y-35808993D01*
X57205034Y-35713380D01*
X72064034Y-35701011D01*
X73412357Y-35699920D01*
X74678616Y-35698967D01*
X75865415Y-35698161D01*
X76975355Y-35697510D01*
X78011040Y-35697024D01*
X78975072Y-35696711D01*
X79870054Y-35696580D01*
X80698589Y-35696640D01*
X81463280Y-35696898D01*
X82166729Y-35697365D01*
X82811539Y-35698049D01*
X83400313Y-35698957D01*
X83935654Y-35700101D01*
X84420164Y-35701487D01*
X84856447Y-35703124D01*
X85247104Y-35705022D01*
X85594739Y-35707190D01*
X85901955Y-35709635D01*
X86171354Y-35712366D01*
X86405540Y-35715393D01*
X86607114Y-35718724D01*
X86778680Y-35722368D01*
X86922840Y-35726333D01*
X87042197Y-35730628D01*
X87139354Y-35735262D01*
X87216915Y-35740244D01*
X87277480Y-35745583D01*
X87323654Y-35751286D01*
X87329696Y-35752204D01*
X87972967Y-35895006D01*
X88588833Y-36116442D01*
X89170540Y-36413068D01*
X89711331Y-36781442D01*
X90203661Y-37217324D01*
X90644452Y-37717829D01*
X91010659Y-38258283D01*
X91302454Y-38839033D01*
X91520009Y-39460421D01*
X91663497Y-40122793D01*
X91665578Y-40136233D01*
X91668965Y-40165842D01*
X91672227Y-40210764D01*
X91675367Y-40272510D01*
X91678385Y-40352596D01*
X91681285Y-40452533D01*
X91684069Y-40573834D01*
X91686738Y-40718012D01*
X91689294Y-40886582D01*
X91691740Y-41081054D01*
X91694078Y-41302944D01*
X91696309Y-41553763D01*
X91698437Y-41835024D01*
X91700462Y-42148241D01*
X91702387Y-42494927D01*
X91704215Y-42876594D01*
X91705947Y-43294756D01*
X91707585Y-43750925D01*
X91709131Y-44246616D01*
X91710588Y-44783340D01*
X91711958Y-45362610D01*
X91713242Y-45985941D01*
X91714442Y-46654844D01*
X91715562Y-47370833D01*
X91716602Y-48135420D01*
X91717566Y-48950120D01*
X91718454Y-49816444D01*
X91719270Y-50735906D01*
X91720014Y-51710019D01*
X91720691Y-52740296D01*
X91721300Y-53828249D01*
X91721845Y-54975393D01*
X91722327Y-56183239D01*
X91722749Y-57453301D01*
X91723113Y-58787093D01*
X91723420Y-60186126D01*
X91723673Y-61651914D01*
X91723875Y-63185971D01*
X91724026Y-64789808D01*
X91724129Y-66464939D01*
X91724187Y-68212877D01*
X91724201Y-70035136D01*
X91724173Y-71933227D01*
X91724106Y-73908665D01*
X91724001Y-75962961D01*
X91723860Y-78097630D01*
X91723687Y-80314184D01*
X91723517Y-82236733D01*
X91723288Y-84551916D01*
X91723033Y-86783861D01*
X91722752Y-88934000D01*
X91722442Y-91003761D01*
X91722101Y-92994574D01*
X91721727Y-94907870D01*
X91721317Y-96745078D01*
X91720871Y-98507627D01*
X91720385Y-100196948D01*
X91719859Y-101814470D01*
X91719289Y-103361624D01*
X91718673Y-104839838D01*
X91718011Y-106250542D01*
X91717299Y-107595167D01*
X91716536Y-108875142D01*
X91715719Y-110091897D01*
X91714847Y-111246862D01*
X91713917Y-112341466D01*
X91712928Y-113377139D01*
X91711877Y-114355311D01*
X91710763Y-115277412D01*
X91709583Y-116144871D01*
X91708335Y-116959119D01*
X91707017Y-117721584D01*
X91705628Y-118433698D01*
X91704165Y-119096889D01*
X91702626Y-119712587D01*
X91701009Y-120282223D01*
X91699312Y-120807225D01*
X91697533Y-121289024D01*
X91695670Y-121729049D01*
X91693721Y-122128731D01*
X91691684Y-122489499D01*
X91689557Y-122812782D01*
X91687337Y-123100011D01*
X91685024Y-123352615D01*
X91682614Y-123572024D01*
X91680106Y-123759668D01*
X91677497Y-123916977D01*
X91674786Y-124045379D01*
X91671971Y-124146306D01*
X91669049Y-124221187D01*
X91666019Y-124271452D01*
X91663515Y-124294900D01*
X91522124Y-124935366D01*
X91305618Y-125542582D01*
X91018645Y-126111703D01*
X90665852Y-126637880D01*
X90251884Y-127116268D01*
X89781388Y-127542020D01*
X89259011Y-127910288D01*
X88689399Y-128216226D01*
X88077199Y-128454988D01*
X87536867Y-128599355D01*
X87502143Y-128606262D01*
X87462741Y-128612745D01*
X87415997Y-128618816D01*
X87359247Y-128624489D01*
X87289827Y-128629778D01*
X87205073Y-128634696D01*
X87102322Y-128639256D01*
X86978907Y-128643472D01*
X86832167Y-128647358D01*
X86659436Y-128650926D01*
X86458051Y-128654190D01*
X86225348Y-128657164D01*
X85958662Y-128659862D01*
X85655329Y-128662296D01*
X85312686Y-128664479D01*
X84928068Y-128666427D01*
X84498811Y-128668151D01*
X84022251Y-128669666D01*
X83495725Y-128670984D01*
X82916567Y-128672120D01*
X82282115Y-128673086D01*
X81589703Y-128673897D01*
X80836668Y-128674565D01*
X80020346Y-128675105D01*
X79138072Y-128675528D01*
X78187183Y-128675850D01*
X77165015Y-128676084D01*
X76068903Y-128676242D01*
X74896184Y-128676338D01*
X73644193Y-128676386D01*
X72310266Y-128676400D01*
X72275700Y-128676400D01*
X70930310Y-128676435D01*
X69666905Y-128676514D01*
X68482801Y-128676596D01*
X67375318Y-128676641D01*
X66341772Y-128676609D01*
X65379482Y-128676458D01*
X64485765Y-128676150D01*
X63657939Y-128675643D01*
X62893322Y-128674897D01*
X62366901Y-128674131D01*
X62366901Y-125861233D01*
X81810934Y-125861233D01*
X81840182Y-125511983D01*
X81935378Y-124817638D01*
X82103885Y-124157238D01*
X82350060Y-123515606D01*
X82505100Y-123194233D01*
X82866346Y-122584254D01*
X83295420Y-122020668D01*
X83786866Y-121507470D01*
X84335226Y-121048652D01*
X84935043Y-120648210D01*
X85580862Y-120310135D01*
X86267225Y-120038422D01*
X86988676Y-119837064D01*
X87134700Y-119805990D01*
X87392952Y-119764019D01*
X87709940Y-119728846D01*
X88059841Y-119703068D01*
X88245950Y-119694249D01*
X88933867Y-119668040D01*
X88933867Y-45144507D01*
X88330617Y-45118325D01*
X87553477Y-45052135D01*
X86826550Y-44921567D01*
X86141949Y-44723827D01*
X85491785Y-44456121D01*
X84868169Y-44115657D01*
X84263215Y-43699640D01*
X84210454Y-43659201D01*
X83665046Y-43185576D01*
X83185354Y-42660456D01*
X82773876Y-42088670D01*
X82433112Y-41475046D01*
X82165562Y-40824410D01*
X81973723Y-40141591D01*
X81860095Y-39431417D01*
X81833380Y-39067316D01*
X81809083Y-38527566D01*
X62360207Y-38527566D01*
X62337339Y-39130816D01*
X62273641Y-39828620D01*
X62135822Y-40490396D01*
X61922255Y-41119761D01*
X61631313Y-41720330D01*
X61261367Y-42295720D01*
X60810790Y-42849546D01*
X60531013Y-43143279D01*
X59972236Y-43647350D01*
X59382174Y-44074924D01*
X58757245Y-44427625D01*
X58093868Y-44707076D01*
X57388461Y-44914903D01*
X56637443Y-45052728D01*
X56220784Y-45097857D01*
X55617534Y-45148619D01*
X55617534Y-119750826D01*
X56198551Y-119802265D01*
X56769767Y-119869521D01*
X57290236Y-119968021D01*
X57790098Y-120103988D01*
X58005479Y-120175269D01*
X58689053Y-120454095D01*
X59326825Y-120797084D01*
X59914818Y-121199426D01*
X60449052Y-121656314D01*
X60925550Y-122162938D01*
X61340333Y-122714491D01*
X61689424Y-123306164D01*
X61968842Y-123933147D01*
X62174611Y-124590634D01*
X62302752Y-125273814D01*
X62315763Y-125384983D01*
X62366901Y-125861233D01*
X62366901Y-128674131D01*
X62189232Y-128673872D01*
X61542986Y-128672527D01*
X60951902Y-128670822D01*
X60413299Y-128668718D01*
X59924493Y-128666172D01*
X59482802Y-128663146D01*
X59085545Y-128659598D01*
X58730039Y-128655488D01*
X58413602Y-128650776D01*
X58133551Y-128645422D01*
X57887205Y-128639386D01*
X57671881Y-128632626D01*
X57484897Y-128625102D01*
X57323571Y-128616775D01*
X57185220Y-128607604D01*
X57067163Y-128597548D01*
X56966717Y-128586567D01*
X56881199Y-128574621D01*
X56807929Y-128561669D01*
X56744222Y-128547672D01*
X56687398Y-128532588D01*
X56634774Y-128516378D01*
X56583668Y-128499000D01*
X56531397Y-128480415D01*
X56475280Y-128460583D01*
X56412634Y-128439462D01*
X56407094Y-128437662D01*
X55795322Y-128195650D01*
X55223277Y-127878932D01*
X54691643Y-127487933D01*
X54326367Y-127152739D01*
X53885357Y-126652800D01*
X53518973Y-126113014D01*
X53227775Y-125534468D01*
X53012328Y-124918250D01*
X52891888Y-124381574D01*
X52888172Y-124355397D01*
X52884591Y-124319902D01*
X52881145Y-124273540D01*
X52877829Y-124214761D01*
X52874642Y-124142016D01*
X52871581Y-124053754D01*
X52868644Y-123948426D01*
X52865827Y-123824481D01*
X52863129Y-123680370D01*
X52860548Y-123514543D01*
X52858079Y-123325449D01*
X52855722Y-123111540D01*
X52853473Y-122871265D01*
X52851331Y-122603074D01*
X52849292Y-122305418D01*
X52847354Y-121976746D01*
X52845514Y-121615509D01*
X52843770Y-121220156D01*
X52842120Y-120789139D01*
X52840561Y-120320906D01*
X52839090Y-119813908D01*
X52837706Y-119266596D01*
X52836405Y-118677419D01*
X52835184Y-118044827D01*
X52834043Y-117367271D01*
X52832977Y-116643200D01*
X52831985Y-115871066D01*
X52831063Y-115049317D01*
X52830210Y-114176404D01*
X52829423Y-113250777D01*
X52828700Y-112270886D01*
X52828037Y-111235182D01*
X52827433Y-110142114D01*
X52826885Y-108990132D01*
X52826390Y-107777688D01*
X52825946Y-106503230D01*
X52825550Y-105165209D01*
X52825200Y-103762074D01*
X52824894Y-102292277D01*
X52824629Y-100754267D01*
X52824402Y-99146495D01*
X52824211Y-97467410D01*
X52824053Y-95715462D01*
X52823926Y-93889102D01*
X52823828Y-91986780D01*
X52823755Y-90006946D01*
X52823706Y-87948050D01*
X52823677Y-85808542D01*
X52823667Y-83586872D01*
X52823669Y-82176357D01*
G36*
X57130926Y-45924802D02*
X57838601Y-45852700D01*
X58525435Y-45699471D01*
X59186895Y-45467068D01*
X59818448Y-45157447D01*
X60415562Y-44772560D01*
X60973704Y-44314362D01*
X61064743Y-44228978D01*
X61471435Y-43806144D01*
X61814435Y-43370830D01*
X62113492Y-42896206D01*
X62285516Y-42570400D01*
X62551876Y-41960802D01*
X62740273Y-41358088D01*
X62854415Y-40746827D01*
X62898011Y-40111590D01*
X62898697Y-40019816D01*
X62898867Y-39543566D01*
X81303572Y-39543566D01*
X81324096Y-40189150D01*
X81383100Y-40886465D01*
X81515610Y-41545295D01*
X81723333Y-42169507D01*
X82007976Y-42762967D01*
X82371247Y-43329541D01*
X82814853Y-43873094D01*
X83067943Y-44138074D01*
X83554382Y-44583123D01*
X84050219Y-44953568D01*
X84571171Y-45259235D01*
X85132952Y-45509950D01*
X85434961Y-45618069D01*
X85793305Y-45729616D01*
X86113136Y-45810345D01*
X86425430Y-45865800D01*
X86761166Y-45901530D01*
X87134890Y-45922444D01*
X87770080Y-45947357D01*
X87841266Y-45804045D01*
X87845387Y-45799038D01*
X87849346Y-45802030D01*
X87853148Y-45814666D01*
X87856796Y-45838589D01*
X87860294Y-45875441D01*
X87863643Y-45926867D01*
X87866848Y-45994509D01*
X87869913Y-46080011D01*
X87872840Y-46185016D01*
X87875632Y-46311168D01*
X87878294Y-46460109D01*
X87880828Y-46633483D01*
X87883238Y-46832934D01*
X87885526Y-47060104D01*
X87887698Y-47316638D01*
X87889755Y-47604177D01*
X87891701Y-47924366D01*
X87893539Y-48278848D01*
X87895273Y-48669266D01*
X87896906Y-49097263D01*
X87898442Y-49564484D01*
X87899883Y-50072570D01*
X87901233Y-50623165D01*
X87902496Y-51217913D01*
X87903674Y-51858457D01*
X87904771Y-52546440D01*
X87905791Y-53283506D01*
X87906736Y-54071297D01*
X87907611Y-54911458D01*
X87908417Y-55805631D01*
X87909159Y-56755460D01*
X87909841Y-57762587D01*
X87910464Y-58828657D01*
X87911033Y-59955313D01*
X87911551Y-61144197D01*
X87912022Y-62396954D01*
X87912448Y-63715226D01*
X87912833Y-65100657D01*
X87913180Y-66554890D01*
X87913493Y-68079569D01*
X87913775Y-69676336D01*
X87914029Y-71346835D01*
X87914258Y-73092709D01*
X87914467Y-74915602D01*
X87914658Y-76817157D01*
X87914834Y-78799017D01*
X87915000Y-80862825D01*
X87915103Y-82257900D01*
X87917755Y-118855066D01*
X87335727Y-118856257D01*
X86623242Y-118899152D01*
X85929465Y-119023546D01*
X85259212Y-119227416D01*
X84617300Y-119508743D01*
X84008543Y-119865505D01*
X83437759Y-120295680D01*
X83046473Y-120656263D01*
X82573085Y-121186566D01*
X82171868Y-121755982D01*
X81845023Y-122359730D01*
X81594750Y-122993029D01*
X81423248Y-123651097D01*
X81332717Y-124329151D01*
X81328667Y-124390150D01*
X81300931Y-124845233D01*
X63115721Y-124845233D01*
X63115721Y-124633566D01*
X81090591Y-124633566D01*
X81141009Y-124185505D01*
X81261600Y-123476396D01*
X81457515Y-122799886D01*
X81724409Y-122159926D01*
X82057934Y-121560465D01*
X82453744Y-121005454D01*
X82907491Y-120498843D01*
X83414829Y-120044582D01*
X83971411Y-119646622D01*
X84572890Y-119308912D01*
X85214919Y-119035403D01*
X85893150Y-118830045D01*
X86603238Y-118696788D01*
X87240534Y-118642694D01*
X87433436Y-118635276D01*
X87592112Y-118629095D01*
X87699379Y-118624824D01*
X87737950Y-118623157D01*
X87738461Y-118581102D01*
X87738966Y-118456317D01*
X87739464Y-118250740D01*
X87739955Y-117966308D01*
X87740438Y-117604958D01*
X87740913Y-117168628D01*
X87741379Y-116659254D01*
X87741836Y-116078774D01*
X87742282Y-115429126D01*
X87742718Y-114712245D01*
X87743143Y-113930070D01*
X87743556Y-113084538D01*
X87743957Y-112177586D01*
X87744345Y-111211151D01*
X87744719Y-110187171D01*
X87745080Y-109107582D01*
X87745426Y-107974322D01*
X87745757Y-106789328D01*
X87746072Y-105554537D01*
X87746371Y-104271887D01*
X87746653Y-102943315D01*
X87746918Y-101570757D01*
X87747164Y-100156152D01*
X87747393Y-98701436D01*
X87747602Y-97208547D01*
X87747792Y-95679422D01*
X87747961Y-94115997D01*
X87748110Y-92520211D01*
X87748237Y-90894001D01*
X87748342Y-89239303D01*
X87748425Y-87558055D01*
X87748485Y-85852194D01*
X87748521Y-84123658D01*
X87748534Y-82384900D01*
X87748534Y-46147566D01*
X87377006Y-46147566D01*
X86729651Y-46109702D01*
X86069981Y-45999739D01*
X85417955Y-45823119D01*
X84793530Y-45585288D01*
X84216664Y-45291689D01*
X84197176Y-45280231D01*
X83584328Y-44871609D01*
X83032371Y-44407948D01*
X82544083Y-43893796D01*
X82122243Y-43333706D01*
X81769632Y-42732226D01*
X81489028Y-42093908D01*
X81283211Y-41423302D01*
X81154961Y-40724958D01*
X81113245Y-40231483D01*
X81089882Y-39712900D01*
X63123599Y-39712900D01*
X63097265Y-40231483D01*
X63028504Y-40920706D01*
X62892235Y-41568861D01*
X62684603Y-42190706D01*
X62450824Y-42706275D01*
X62201289Y-43154014D01*
X61923481Y-43563360D01*
X61599371Y-43958857D01*
X61290200Y-44286232D01*
X60754021Y-44765916D01*
X60167988Y-45179889D01*
X59539547Y-45524772D01*
X58876145Y-45797188D01*
X58185227Y-45993756D01*
X57474239Y-46111097D01*
X57220878Y-46132900D01*
X56802867Y-46160294D01*
X56802867Y-118749233D01*
X57040851Y-118749233D01*
X57272950Y-118760888D01*
X57558582Y-118792937D01*
X57870316Y-118841009D01*
X58180722Y-118900730D01*
X58462368Y-118967730D01*
X58530532Y-118986676D01*
X59236893Y-119232788D01*
X59896958Y-119549058D01*
X60508189Y-119933526D01*
X61068049Y-120384237D01*
X61574000Y-120899233D01*
X62023505Y-121476556D01*
X62281964Y-121880505D01*
X62511462Y-122305550D01*
X62699175Y-122738618D01*
X62850625Y-123197146D01*
X62971331Y-123698571D01*
X63066816Y-124260330D01*
X63089998Y-124432483D01*
X63115721Y-124633566D01*
X63115721Y-124845233D01*
X62911545Y-124845233D01*
X62884648Y-124466304D01*
X62795441Y-123794607D01*
X62627381Y-123143213D01*
X62385025Y-122517876D01*
X62072927Y-121924350D01*
X61695642Y-121368388D01*
X61257726Y-120855745D01*
X60763733Y-120392173D01*
X60218219Y-119983427D01*
X59625739Y-119635260D01*
X58990848Y-119353427D01*
X58776566Y-119277217D01*
X58443927Y-119172482D01*
X58138658Y-119092625D01*
X57836787Y-119033478D01*
X57514339Y-118990879D01*
X57147340Y-118960661D01*
X56866367Y-118945350D01*
X56612367Y-118933526D01*
X56591151Y-45948068D01*
X57130926Y-45924802D01*
X57130926Y-45924802D01*
G37*
X57130926Y-45924802D02*
X57838601Y-45852700D01*
X58525435Y-45699471D01*
X59186895Y-45467068D01*
X59818448Y-45157447D01*
X60415562Y-44772560D01*
X60973704Y-44314362D01*
X61064743Y-44228978D01*
X61471435Y-43806144D01*
X61814435Y-43370830D01*
X62113492Y-42896206D01*
X62285516Y-42570400D01*
X62551876Y-41960802D01*
X62740273Y-41358088D01*
X62854415Y-40746827D01*
X62898011Y-40111590D01*
X62898697Y-40019816D01*
X62898867Y-39543566D01*
X81303572Y-39543566D01*
X81324096Y-40189150D01*
X81383100Y-40886465D01*
X81515610Y-41545295D01*
X81723333Y-42169507D01*
X82007976Y-42762967D01*
X82371247Y-43329541D01*
X82814853Y-43873094D01*
X83067943Y-44138074D01*
X83554382Y-44583123D01*
X84050219Y-44953568D01*
X84571171Y-45259235D01*
X85132952Y-45509950D01*
X85434961Y-45618069D01*
X85793305Y-45729616D01*
X86113136Y-45810345D01*
X86425430Y-45865800D01*
X86761166Y-45901530D01*
X87134890Y-45922444D01*
X87770080Y-45947357D01*
X87841266Y-45804045D01*
X87845387Y-45799038D01*
X87849346Y-45802030D01*
X87853148Y-45814666D01*
X87856796Y-45838589D01*
X87860294Y-45875441D01*
X87863643Y-45926867D01*
X87866848Y-45994509D01*
X87869913Y-46080011D01*
X87872840Y-46185016D01*
X87875632Y-46311168D01*
X87878294Y-46460109D01*
X87880828Y-46633483D01*
X87883238Y-46832934D01*
X87885526Y-47060104D01*
X87887698Y-47316638D01*
X87889755Y-47604177D01*
X87891701Y-47924366D01*
X87893539Y-48278848D01*
X87895273Y-48669266D01*
X87896906Y-49097263D01*
X87898442Y-49564484D01*
X87899883Y-50072570D01*
X87901233Y-50623165D01*
X87902496Y-51217913D01*
X87903674Y-51858457D01*
X87904771Y-52546440D01*
X87905791Y-53283506D01*
X87906736Y-54071297D01*
X87907611Y-54911458D01*
X87908417Y-55805631D01*
X87909159Y-56755460D01*
X87909841Y-57762587D01*
X87910464Y-58828657D01*
X87911033Y-59955313D01*
X87911551Y-61144197D01*
X87912022Y-62396954D01*
X87912448Y-63715226D01*
X87912833Y-65100657D01*
X87913180Y-66554890D01*
X87913493Y-68079569D01*
X87913775Y-69676336D01*
X87914029Y-71346835D01*
X87914258Y-73092709D01*
X87914467Y-74915602D01*
X87914658Y-76817157D01*
X87914834Y-78799017D01*
X87915000Y-80862825D01*
X87915103Y-82257900D01*
X87917755Y-118855066D01*
X87335727Y-118856257D01*
X86623242Y-118899152D01*
X85929465Y-119023546D01*
X85259212Y-119227416D01*
X84617300Y-119508743D01*
X84008543Y-119865505D01*
X83437759Y-120295680D01*
X83046473Y-120656263D01*
X82573085Y-121186566D01*
X82171868Y-121755982D01*
X81845023Y-122359730D01*
X81594750Y-122993029D01*
X81423248Y-123651097D01*
X81332717Y-124329151D01*
X81328667Y-124390150D01*
X81300931Y-124845233D01*
X63115721Y-124845233D01*
X63115721Y-124633566D01*
X81090591Y-124633566D01*
X81141009Y-124185505D01*
X81261600Y-123476396D01*
X81457515Y-122799886D01*
X81724409Y-122159926D01*
X82057934Y-121560465D01*
X82453744Y-121005454D01*
X82907491Y-120498843D01*
X83414829Y-120044582D01*
X83971411Y-119646622D01*
X84572890Y-119308912D01*
X85214919Y-119035403D01*
X85893150Y-118830045D01*
X86603238Y-118696788D01*
X87240534Y-118642694D01*
X87433436Y-118635276D01*
X87592112Y-118629095D01*
X87699379Y-118624824D01*
X87737950Y-118623157D01*
X87738461Y-118581102D01*
X87738966Y-118456317D01*
X87739464Y-118250740D01*
X87739955Y-117966308D01*
X87740438Y-117604958D01*
X87740913Y-117168628D01*
X87741379Y-116659254D01*
X87741836Y-116078774D01*
X87742282Y-115429126D01*
X87742718Y-114712245D01*
X87743143Y-113930070D01*
X87743556Y-113084538D01*
X87743957Y-112177586D01*
X87744345Y-111211151D01*
X87744719Y-110187171D01*
X87745080Y-109107582D01*
X87745426Y-107974322D01*
X87745757Y-106789328D01*
X87746072Y-105554537D01*
X87746371Y-104271887D01*
X87746653Y-102943315D01*
X87746918Y-101570757D01*
X87747164Y-100156152D01*
X87747393Y-98701436D01*
X87747602Y-97208547D01*
X87747792Y-95679422D01*
X87747961Y-94115997D01*
X87748110Y-92520211D01*
X87748237Y-90894001D01*
X87748342Y-89239303D01*
X87748425Y-87558055D01*
X87748485Y-85852194D01*
X87748521Y-84123658D01*
X87748534Y-82384900D01*
X87748534Y-46147566D01*
X87377006Y-46147566D01*
X86729651Y-46109702D01*
X86069981Y-45999739D01*
X85417955Y-45823119D01*
X84793530Y-45585288D01*
X84216664Y-45291689D01*
X84197176Y-45280231D01*
X83584328Y-44871609D01*
X83032371Y-44407948D01*
X82544083Y-43893796D01*
X82122243Y-43333706D01*
X81769632Y-42732226D01*
X81489028Y-42093908D01*
X81283211Y-41423302D01*
X81154961Y-40724958D01*
X81113245Y-40231483D01*
X81089882Y-39712900D01*
X63123599Y-39712900D01*
X63097265Y-40231483D01*
X63028504Y-40920706D01*
X62892235Y-41568861D01*
X62684603Y-42190706D01*
X62450824Y-42706275D01*
X62201289Y-43154014D01*
X61923481Y-43563360D01*
X61599371Y-43958857D01*
X61290200Y-44286232D01*
X60754021Y-44765916D01*
X60167988Y-45179889D01*
X59539547Y-45524772D01*
X58876145Y-45797188D01*
X58185227Y-45993756D01*
X57474239Y-46111097D01*
X57220878Y-46132900D01*
X56802867Y-46160294D01*
X56802867Y-118749233D01*
X57040851Y-118749233D01*
X57272950Y-118760888D01*
X57558582Y-118792937D01*
X57870316Y-118841009D01*
X58180722Y-118900730D01*
X58462368Y-118967730D01*
X58530532Y-118986676D01*
X59236893Y-119232788D01*
X59896958Y-119549058D01*
X60508189Y-119933526D01*
X61068049Y-120384237D01*
X61574000Y-120899233D01*
X62023505Y-121476556D01*
X62281964Y-121880505D01*
X62511462Y-122305550D01*
X62699175Y-122738618D01*
X62850625Y-123197146D01*
X62971331Y-123698571D01*
X63066816Y-124260330D01*
X63089998Y-124432483D01*
X63115721Y-124633566D01*
X63115721Y-124845233D01*
X62911545Y-124845233D01*
X62884648Y-124466304D01*
X62795441Y-123794607D01*
X62627381Y-123143213D01*
X62385025Y-122517876D01*
X62072927Y-121924350D01*
X61695642Y-121368388D01*
X61257726Y-120855745D01*
X60763733Y-120392173D01*
X60218219Y-119983427D01*
X59625739Y-119635260D01*
X58990848Y-119353427D01*
X58776566Y-119277217D01*
X58443927Y-119172482D01*
X58138658Y-119092625D01*
X57836787Y-119033478D01*
X57514339Y-118990879D01*
X57147340Y-118960661D01*
X56866367Y-118945350D01*
X56612367Y-118933526D01*
X56591151Y-45948068D01*
X57130926Y-45924802D01*
D16*
X111548333Y-127537633D02*
X111548333Y-128807633D01*
X111463667Y-129061633D01*
X111294333Y-129230967D01*
X111040333Y-129315633D01*
X110871000Y-129315633D01*
X112225667Y-127537633D02*
X113326334Y-127537633D01*
X112733667Y-128214967D01*
X112987667Y-128214967D01*
X113157000Y-128299633D01*
X113241667Y-128384300D01*
X113326334Y-128553633D01*
X113326334Y-128976967D01*
X113241667Y-129146300D01*
X113157000Y-129230967D01*
X112987667Y-129315633D01*
X112479667Y-129315633D01*
X112310334Y-129230967D01*
X112225667Y-129146300D01*
X101642333Y-124997633D02*
X101303667Y-124997633D01*
X101134333Y-125082300D01*
X101049667Y-125166967D01*
X100880333Y-125420967D01*
X100795667Y-125759633D01*
X100795667Y-126436967D01*
X100880333Y-126606300D01*
X100965000Y-126690967D01*
X101134333Y-126775633D01*
X101473000Y-126775633D01*
X101642333Y-126690967D01*
X101727000Y-126606300D01*
X101811667Y-126436967D01*
X101811667Y-126013633D01*
X101727000Y-125844300D01*
X101642333Y-125759633D01*
X101473000Y-125674967D01*
X101134333Y-125674967D01*
X100965000Y-125759633D01*
X100880333Y-125844300D01*
X100795667Y-126013633D01*
X102573666Y-126606300D02*
X102658333Y-126690967D01*
X102573666Y-126775633D01*
X102489000Y-126690967D01*
X102573666Y-126606300D01*
X102573666Y-126775633D01*
X104267000Y-124997633D02*
X103420333Y-124997633D01*
X103335667Y-125844300D01*
X103420333Y-125759633D01*
X103589667Y-125674967D01*
X104013000Y-125674967D01*
X104182333Y-125759633D01*
X104267000Y-125844300D01*
X104351667Y-126013633D01*
X104351667Y-126436967D01*
X104267000Y-126606300D01*
X104182333Y-126690967D01*
X104013000Y-126775633D01*
X103589667Y-126775633D01*
X103420333Y-126690967D01*
X103335667Y-126606300D01*
X105113666Y-126775633D02*
X105113666Y-125590300D01*
X105113666Y-125759633D02*
X105198333Y-125674967D01*
X105367666Y-125590300D01*
X105621666Y-125590300D01*
X105791000Y-125674967D01*
X105875666Y-125844300D01*
X105875666Y-126775633D01*
X105875666Y-125844300D02*
X105960333Y-125674967D01*
X106129666Y-125590300D01*
X106383666Y-125590300D01*
X106553000Y-125674967D01*
X106637666Y-125844300D01*
X106637666Y-126775633D01*
X107484333Y-126775633D02*
X107484333Y-125590300D01*
X107484333Y-125759633D02*
X107569000Y-125674967D01*
X107738333Y-125590300D01*
X107992333Y-125590300D01*
X108161667Y-125674967D01*
X108246333Y-125844300D01*
X108246333Y-126775633D01*
X108246333Y-125844300D02*
X108331000Y-125674967D01*
X108500333Y-125590300D01*
X108754333Y-125590300D01*
X108923667Y-125674967D01*
X109008333Y-125844300D01*
X109008333Y-126775633D01*
X109431667Y-126944967D02*
X110786334Y-126944967D01*
X111717667Y-124997633D02*
X111717667Y-126267633D01*
X111633001Y-126521633D01*
X111463667Y-126690967D01*
X111209667Y-126775633D01*
X111040334Y-126775633D01*
X112479668Y-126267633D02*
X113326334Y-126267633D01*
X112310334Y-126775633D02*
X112903001Y-124997633D01*
X113495668Y-126775633D01*
X115104334Y-126606300D02*
X115019668Y-126690967D01*
X114765668Y-126775633D01*
X114596334Y-126775633D01*
X114342334Y-126690967D01*
X114173001Y-126521633D01*
X114088334Y-126352300D01*
X114003668Y-126013633D01*
X114003668Y-125759633D01*
X114088334Y-125420967D01*
X114173001Y-125251633D01*
X114342334Y-125082300D01*
X114596334Y-124997633D01*
X114765668Y-124997633D01*
X115019668Y-125082300D01*
X115104334Y-125166967D01*
X115866334Y-126775633D02*
X115866334Y-124997633D01*
X116882334Y-126775633D02*
X116120334Y-125759633D01*
X116882334Y-124997633D02*
X115866334Y-126013633D01*
X117221001Y-126944967D02*
X118575668Y-126944967D01*
X118829668Y-124997633D02*
X119930335Y-124997633D01*
X119337668Y-125674967D01*
X119591668Y-125674967D01*
X119761001Y-125759633D01*
X119845668Y-125844300D01*
X119930335Y-126013633D01*
X119930335Y-126436967D01*
X119845668Y-126606300D01*
X119761001Y-126690967D01*
X119591668Y-126775633D01*
X119083668Y-126775633D01*
X118914335Y-126690967D01*
X118829668Y-126606300D01*
X120692334Y-126775633D02*
X120692334Y-124997633D01*
X121369668Y-124997633D01*
X121539001Y-125082300D01*
X121623668Y-125166967D01*
X121708334Y-125336300D01*
X121708334Y-125590300D01*
X121623668Y-125759633D01*
X121539001Y-125844300D01*
X121369668Y-125928967D01*
X120692334Y-125928967D01*
X32672867Y-124769033D02*
X32672867Y-126039033D01*
X32588201Y-126293033D01*
X32418867Y-126462367D01*
X32164867Y-126547033D01*
X31995534Y-126547033D01*
X34450868Y-126547033D02*
X33434868Y-126547033D01*
X33942868Y-126547033D02*
X33942868Y-124769033D01*
X33773534Y-125023033D01*
X33604201Y-125192367D01*
X33434868Y-125277033D01*
X35551534Y-124769033D02*
X35720867Y-124769033D01*
X35890201Y-124853700D01*
X35974867Y-124938367D01*
X36059534Y-125107700D01*
X36144201Y-125446367D01*
X36144201Y-125869700D01*
X36059534Y-126208367D01*
X35974867Y-126377700D01*
X35890201Y-126462367D01*
X35720867Y-126547033D01*
X35551534Y-126547033D01*
X35382201Y-126462367D01*
X35297534Y-126377700D01*
X35212867Y-126208367D01*
X35128201Y-125869700D01*
X35128201Y-125446367D01*
X35212867Y-125107700D01*
X35297534Y-124938367D01*
X35382201Y-124853700D01*
X35551534Y-124769033D01*
X20099866Y-127309033D02*
X19761200Y-127309033D01*
X19591866Y-127393700D01*
X19507200Y-127478367D01*
X19337866Y-127732367D01*
X19253200Y-128071033D01*
X19253200Y-128748367D01*
X19337866Y-128917700D01*
X19422533Y-129002367D01*
X19591866Y-129087033D01*
X19930533Y-129087033D01*
X20099866Y-129002367D01*
X20184533Y-128917700D01*
X20269200Y-128748367D01*
X20269200Y-128325033D01*
X20184533Y-128155700D01*
X20099866Y-128071033D01*
X19930533Y-127986367D01*
X19591866Y-127986367D01*
X19422533Y-128071033D01*
X19337866Y-128155700D01*
X19253200Y-128325033D01*
X21031199Y-128917700D02*
X21115866Y-129002367D01*
X21031199Y-129087033D01*
X20946533Y-129002367D01*
X21031199Y-128917700D01*
X21031199Y-129087033D01*
X22724533Y-127309033D02*
X21877866Y-127309033D01*
X21793200Y-128155700D01*
X21877866Y-128071033D01*
X22047200Y-127986367D01*
X22470533Y-127986367D01*
X22639866Y-128071033D01*
X22724533Y-128155700D01*
X22809200Y-128325033D01*
X22809200Y-128748367D01*
X22724533Y-128917700D01*
X22639866Y-129002367D01*
X22470533Y-129087033D01*
X22047200Y-129087033D01*
X21877866Y-129002367D01*
X21793200Y-128917700D01*
X23571199Y-129087033D02*
X23571199Y-127901700D01*
X23571199Y-128071033D02*
X23655866Y-127986367D01*
X23825199Y-127901700D01*
X24079199Y-127901700D01*
X24248533Y-127986367D01*
X24333199Y-128155700D01*
X24333199Y-129087033D01*
X24333199Y-128155700D02*
X24417866Y-127986367D01*
X24587199Y-127901700D01*
X24841199Y-127901700D01*
X25010533Y-127986367D01*
X25095199Y-128155700D01*
X25095199Y-129087033D01*
X25941866Y-129087033D02*
X25941866Y-127901700D01*
X25941866Y-128071033D02*
X26026533Y-127986367D01*
X26195866Y-127901700D01*
X26449866Y-127901700D01*
X26619200Y-127986367D01*
X26703866Y-128155700D01*
X26703866Y-129087033D01*
X26703866Y-128155700D02*
X26788533Y-127986367D01*
X26957866Y-127901700D01*
X27211866Y-127901700D01*
X27381200Y-127986367D01*
X27465866Y-128155700D01*
X27465866Y-129087033D01*
X27889200Y-129256367D02*
X29243867Y-129256367D01*
X30175200Y-127309033D02*
X30175200Y-128579033D01*
X30090534Y-128833033D01*
X29921200Y-129002367D01*
X29667200Y-129087033D01*
X29497867Y-129087033D01*
X30937201Y-128579033D02*
X31783867Y-128579033D01*
X30767867Y-129087033D02*
X31360534Y-127309033D01*
X31953201Y-129087033D01*
X33561867Y-128917700D02*
X33477201Y-129002367D01*
X33223201Y-129087033D01*
X33053867Y-129087033D01*
X32799867Y-129002367D01*
X32630534Y-128833033D01*
X32545867Y-128663700D01*
X32461201Y-128325033D01*
X32461201Y-128071033D01*
X32545867Y-127732367D01*
X32630534Y-127563033D01*
X32799867Y-127393700D01*
X33053867Y-127309033D01*
X33223201Y-127309033D01*
X33477201Y-127393700D01*
X33561867Y-127478367D01*
X34323867Y-129087033D02*
X34323867Y-127309033D01*
X35339867Y-129087033D02*
X34577867Y-128071033D01*
X35339867Y-127309033D02*
X34323867Y-128325033D01*
X35678534Y-129256367D02*
X37033201Y-129256367D01*
X37202534Y-127309033D02*
X38218534Y-127309033D01*
X37710534Y-129087033D02*
X37710534Y-127309033D01*
X39827201Y-129087033D02*
X39234535Y-128240367D01*
X38811201Y-129087033D02*
X38811201Y-127309033D01*
X39488535Y-127309033D01*
X39657868Y-127393700D01*
X39742535Y-127478367D01*
X39827201Y-127647700D01*
X39827201Y-127901700D01*
X39742535Y-128071033D01*
X39657868Y-128155700D01*
X39488535Y-128240367D01*
X38811201Y-128240367D01*
X40504535Y-129002367D02*
X40758535Y-129087033D01*
X41181868Y-129087033D01*
X41351201Y-129002367D01*
X41435868Y-128917700D01*
X41520535Y-128748367D01*
X41520535Y-128579033D01*
X41435868Y-128409700D01*
X41351201Y-128325033D01*
X41181868Y-128240367D01*
X40843201Y-128155700D01*
X40673868Y-128071033D01*
X40589201Y-127986367D01*
X40504535Y-127817033D01*
X40504535Y-127647700D01*
X40589201Y-127478367D01*
X40673868Y-127393700D01*
X40843201Y-127309033D01*
X41266535Y-127309033D01*
X41520535Y-127393700D01*
X41859201Y-129256367D02*
X43213868Y-129256367D01*
X44399201Y-127309033D02*
X44060535Y-127309033D01*
X43891201Y-127393700D01*
X43806535Y-127478367D01*
X43637201Y-127732367D01*
X43552535Y-128071033D01*
X43552535Y-128748367D01*
X43637201Y-128917700D01*
X43721868Y-129002367D01*
X43891201Y-129087033D01*
X44229868Y-129087033D01*
X44399201Y-129002367D01*
X44483868Y-128917700D01*
X44568535Y-128748367D01*
X44568535Y-128325033D01*
X44483868Y-128155700D01*
X44399201Y-128071033D01*
X44229868Y-127986367D01*
X43891201Y-127986367D01*
X43721868Y-128071033D01*
X43637201Y-128155700D01*
X43552535Y-128325033D01*
X45330534Y-129087033D02*
X45330534Y-127309033D01*
X46007868Y-127309033D01*
X46177201Y-127393700D01*
X46261868Y-127478367D01*
X46346534Y-127647700D01*
X46346534Y-127901700D01*
X46261868Y-128071033D01*
X46177201Y-128155700D01*
X46007868Y-128240367D01*
X45330534Y-128240367D01*
X47108534Y-129087033D02*
X47108534Y-127309033D01*
X47955201Y-129087033D02*
X47955201Y-127309033D01*
X48971201Y-129087033D01*
X48971201Y-127309033D01*
X49733202Y-129002367D02*
X49987202Y-129087033D01*
X50410535Y-129087033D01*
X50579868Y-129002367D01*
X50664535Y-128917700D01*
X50749202Y-128748367D01*
X50749202Y-128579033D01*
X50664535Y-128409700D01*
X50579868Y-128325033D01*
X50410535Y-128240367D01*
X50071868Y-128155700D01*
X49902535Y-128071033D01*
X49817868Y-127986367D01*
X49733202Y-127817033D01*
X49733202Y-127647700D01*
X49817868Y-127478367D01*
X49902535Y-127393700D01*
X50071868Y-127309033D01*
X50495202Y-127309033D01*
X50749202Y-127393700D01*
D13*
X60588423Y-118030381D02*
X60588423Y-118744667D01*
X60636043Y-118887524D01*
X60731281Y-118982762D01*
X60874138Y-119030381D01*
X60969376Y-119030381D01*
X59588423Y-119030381D02*
X60159852Y-119030381D01*
X59874138Y-119030381D02*
X59874138Y-118030381D01*
X59969376Y-118173238D01*
X60064614Y-118268476D01*
X60159852Y-118316095D01*
X58636042Y-119030381D02*
X59207471Y-119030381D01*
X58921757Y-119030381D02*
X58921757Y-118030381D01*
X59016995Y-118173238D01*
X59112233Y-118268476D01*
X59207471Y-118316095D01*
X72643381Y-48486843D02*
X72167190Y-48153509D01*
X72643381Y-47915414D02*
X71643381Y-47915414D01*
X71643381Y-48296367D01*
X71691000Y-48391605D01*
X71738619Y-48439224D01*
X71833857Y-48486843D01*
X71976714Y-48486843D01*
X72071952Y-48439224D01*
X72119571Y-48391605D01*
X72167190Y-48296367D01*
X72167190Y-47915414D01*
X72643381Y-49439224D02*
X72643381Y-48867795D01*
X72643381Y-49153509D02*
X71643381Y-49153509D01*
X71786238Y-49058271D01*
X71881476Y-48963033D01*
X71929095Y-48867795D01*
X72643381Y-50391605D02*
X72643381Y-49820176D01*
X72643381Y-50105890D02*
X71643381Y-50105890D01*
X71786238Y-50010652D01*
X71881476Y-49915414D01*
X71929095Y-49820176D01*
X72518333Y-45598081D02*
X72518333Y-46312367D01*
X72565953Y-46455224D01*
X72661191Y-46550462D01*
X72804048Y-46598081D01*
X72899286Y-46598081D01*
X72137381Y-45598081D02*
X71470714Y-45598081D01*
X71899286Y-46598081D01*
X76089381Y-102271843D02*
X75613190Y-101938509D01*
X76089381Y-101700414D02*
X75089381Y-101700414D01*
X75089381Y-102081367D01*
X75137000Y-102176605D01*
X75184619Y-102224224D01*
X75279857Y-102271843D01*
X75422714Y-102271843D01*
X75517952Y-102224224D01*
X75565571Y-102176605D01*
X75613190Y-102081367D01*
X75613190Y-101700414D01*
X76089381Y-103224224D02*
X76089381Y-102652795D01*
X76089381Y-102938509D02*
X75089381Y-102938509D01*
X75232238Y-102843271D01*
X75327476Y-102748033D01*
X75375095Y-102652795D01*
X75089381Y-104128986D02*
X75089381Y-103652795D01*
X75565571Y-103605176D01*
X75517952Y-103652795D01*
X75470333Y-103748033D01*
X75470333Y-103986129D01*
X75517952Y-104081367D01*
X75565571Y-104128986D01*
X75660810Y-104176605D01*
X75898905Y-104176605D01*
X75994143Y-104128986D01*
X76041762Y-104081367D01*
X76089381Y-103986129D01*
X76089381Y-103748033D01*
X76041762Y-103652795D01*
X75994143Y-103605176D01*
X69087381Y-102271843D02*
X68611190Y-101938509D01*
X69087381Y-101700414D02*
X68087381Y-101700414D01*
X68087381Y-102081367D01*
X68135000Y-102176605D01*
X68182619Y-102224224D01*
X68277857Y-102271843D01*
X68420714Y-102271843D01*
X68515952Y-102224224D01*
X68563571Y-102176605D01*
X68611190Y-102081367D01*
X68611190Y-101700414D01*
X69087381Y-103224224D02*
X69087381Y-102652795D01*
X69087381Y-102938509D02*
X68087381Y-102938509D01*
X68230238Y-102843271D01*
X68325476Y-102748033D01*
X68373095Y-102652795D01*
X68420714Y-104081367D02*
X69087381Y-104081367D01*
X68039762Y-103843271D02*
X68754048Y-103605176D01*
X68754048Y-104224224D01*
X86168333Y-70638081D02*
X86168333Y-71352367D01*
X86215953Y-71495224D01*
X86311191Y-71590462D01*
X86454048Y-71638081D01*
X86549286Y-71638081D01*
X85263571Y-70638081D02*
X85454048Y-70638081D01*
X85549286Y-70685700D01*
X85596905Y-70733319D01*
X85692143Y-70876176D01*
X85739762Y-71066652D01*
X85739762Y-71447605D01*
X85692143Y-71542843D01*
X85644524Y-71590462D01*
X85549286Y-71638081D01*
X85358809Y-71638081D01*
X85263571Y-71590462D01*
X85215952Y-71542843D01*
X85168333Y-71447605D01*
X85168333Y-71209510D01*
X85215952Y-71114271D01*
X85263571Y-71066652D01*
X85358809Y-71019033D01*
X85549286Y-71019033D01*
X85644524Y-71066652D01*
X85692143Y-71114271D01*
X85739762Y-71209510D01*
X59248333Y-85408081D02*
X59248333Y-86122367D01*
X59295953Y-86265224D01*
X59391191Y-86360462D01*
X59534048Y-86408081D01*
X59629286Y-86408081D01*
X58248333Y-86408081D02*
X58819762Y-86408081D01*
X58534048Y-86408081D02*
X58534048Y-85408081D01*
X58629286Y-85550938D01*
X58724524Y-85646176D01*
X58819762Y-85693795D01*
X72730905Y-68473081D02*
X72730905Y-69282605D01*
X72683286Y-69377843D01*
X72635667Y-69425462D01*
X72540429Y-69473081D01*
X72349952Y-69473081D01*
X72254714Y-69425462D01*
X72207095Y-69377843D01*
X72159476Y-69282605D01*
X72159476Y-68473081D01*
X71159476Y-69473081D02*
X71730905Y-69473081D01*
X71445191Y-69473081D02*
X71445191Y-68473081D01*
X71540429Y-68615938D01*
X71635667Y-68711176D01*
X71730905Y-68758795D01*
X63372381Y-64298843D02*
X62896190Y-63965509D01*
X63372381Y-63727414D02*
X62372381Y-63727414D01*
X62372381Y-64108367D01*
X62420000Y-64203605D01*
X62467619Y-64251224D01*
X62562857Y-64298843D01*
X62705714Y-64298843D01*
X62800952Y-64251224D01*
X62848571Y-64203605D01*
X62896190Y-64108367D01*
X62896190Y-63727414D01*
X63372381Y-65251224D02*
X63372381Y-64679795D01*
X63372381Y-64965509D02*
X62372381Y-64965509D01*
X62515238Y-64870271D01*
X62610476Y-64775033D01*
X62658095Y-64679795D01*
X62372381Y-65870271D02*
X62372381Y-65965510D01*
X62420000Y-66060748D01*
X62467619Y-66108367D01*
X62562857Y-66155986D01*
X62753333Y-66203605D01*
X62991429Y-66203605D01*
X63181905Y-66155986D01*
X63277143Y-66108367D01*
X63324762Y-66060748D01*
X63372381Y-65965510D01*
X63372381Y-65870271D01*
X63324762Y-65775033D01*
X63277143Y-65727414D01*
X63181905Y-65679795D01*
X62991429Y-65632176D01*
X62753333Y-65632176D01*
X62562857Y-65679795D01*
X62467619Y-65727414D01*
X62420000Y-65775033D01*
X62372381Y-65870271D01*
X85487381Y-64648034D02*
X85011190Y-64314700D01*
X85487381Y-64076605D02*
X84487381Y-64076605D01*
X84487381Y-64457558D01*
X84535000Y-64552796D01*
X84582619Y-64600415D01*
X84677857Y-64648034D01*
X84820714Y-64648034D01*
X84915952Y-64600415D01*
X84963571Y-64552796D01*
X85011190Y-64457558D01*
X85011190Y-64076605D01*
X85487381Y-65124224D02*
X85487381Y-65314700D01*
X85439762Y-65409939D01*
X85392143Y-65457558D01*
X85249286Y-65552796D01*
X85058810Y-65600415D01*
X84677857Y-65600415D01*
X84582619Y-65552796D01*
X84535000Y-65505177D01*
X84487381Y-65409939D01*
X84487381Y-65219462D01*
X84535000Y-65124224D01*
X84582619Y-65076605D01*
X84677857Y-65028986D01*
X84915952Y-65028986D01*
X85011190Y-65076605D01*
X85058810Y-65124224D01*
X85106429Y-65219462D01*
X85106429Y-65409939D01*
X85058810Y-65505177D01*
X85011190Y-65552796D01*
X84915952Y-65600415D01*
X69087381Y-48963034D02*
X68611190Y-48629700D01*
X69087381Y-48391605D02*
X68087381Y-48391605D01*
X68087381Y-48772558D01*
X68135000Y-48867796D01*
X68182619Y-48915415D01*
X68277857Y-48963034D01*
X68420714Y-48963034D01*
X68515952Y-48915415D01*
X68563571Y-48867796D01*
X68611190Y-48772558D01*
X68611190Y-48391605D01*
X68515952Y-49534462D02*
X68468333Y-49439224D01*
X68420714Y-49391605D01*
X68325476Y-49343986D01*
X68277857Y-49343986D01*
X68182619Y-49391605D01*
X68135000Y-49439224D01*
X68087381Y-49534462D01*
X68087381Y-49724939D01*
X68135000Y-49820177D01*
X68182619Y-49867796D01*
X68277857Y-49915415D01*
X68325476Y-49915415D01*
X68420714Y-49867796D01*
X68468333Y-49820177D01*
X68515952Y-49724939D01*
X68515952Y-49534462D01*
X68563571Y-49439224D01*
X68611190Y-49391605D01*
X68706429Y-49343986D01*
X68896905Y-49343986D01*
X68992143Y-49391605D01*
X69039762Y-49439224D01*
X69087381Y-49534462D01*
X69087381Y-49724939D01*
X69039762Y-49820177D01*
X68992143Y-49867796D01*
X68896905Y-49915415D01*
X68706429Y-49915415D01*
X68611190Y-49867796D01*
X68563571Y-49820177D01*
X68515952Y-49724939D01*
X82058381Y-64648034D02*
X81582190Y-64314700D01*
X82058381Y-64076605D02*
X81058381Y-64076605D01*
X81058381Y-64457558D01*
X81106000Y-64552796D01*
X81153619Y-64600415D01*
X81248857Y-64648034D01*
X81391714Y-64648034D01*
X81486952Y-64600415D01*
X81534571Y-64552796D01*
X81582190Y-64457558D01*
X81582190Y-64076605D01*
X81058381Y-64981367D02*
X81058381Y-65648034D01*
X82058381Y-65219462D01*
X60070381Y-64775034D02*
X59594190Y-64441700D01*
X60070381Y-64203605D02*
X59070381Y-64203605D01*
X59070381Y-64584558D01*
X59118000Y-64679796D01*
X59165619Y-64727415D01*
X59260857Y-64775034D01*
X59403714Y-64775034D01*
X59498952Y-64727415D01*
X59546571Y-64679796D01*
X59594190Y-64584558D01*
X59594190Y-64203605D01*
X59070381Y-65632177D02*
X59070381Y-65441700D01*
X59118000Y-65346462D01*
X59165619Y-65298843D01*
X59308476Y-65203605D01*
X59498952Y-65155986D01*
X59879905Y-65155986D01*
X59975143Y-65203605D01*
X60022762Y-65251224D01*
X60070381Y-65346462D01*
X60070381Y-65536939D01*
X60022762Y-65632177D01*
X59975143Y-65679796D01*
X59879905Y-65727415D01*
X59641810Y-65727415D01*
X59546571Y-65679796D01*
X59498952Y-65632177D01*
X59451333Y-65536939D01*
X59451333Y-65346462D01*
X59498952Y-65251224D01*
X59546571Y-65203605D01*
X59641810Y-65155986D01*
X70738381Y-92524034D02*
X70262190Y-92190700D01*
X70738381Y-91952605D02*
X69738381Y-91952605D01*
X69738381Y-92333558D01*
X69786000Y-92428796D01*
X69833619Y-92476415D01*
X69928857Y-92524034D01*
X70071714Y-92524034D01*
X70166952Y-92476415D01*
X70214571Y-92428796D01*
X70262190Y-92333558D01*
X70262190Y-91952605D01*
X69738381Y-93428796D02*
X69738381Y-92952605D01*
X70214571Y-92904986D01*
X70166952Y-92952605D01*
X70119333Y-93047843D01*
X70119333Y-93285939D01*
X70166952Y-93381177D01*
X70214571Y-93428796D01*
X70309810Y-93476415D01*
X70547905Y-93476415D01*
X70643143Y-93428796D01*
X70690762Y-93381177D01*
X70738381Y-93285939D01*
X70738381Y-93047843D01*
X70690762Y-92952605D01*
X70643143Y-92904986D01*
X67563381Y-92524034D02*
X67087190Y-92190700D01*
X67563381Y-91952605D02*
X66563381Y-91952605D01*
X66563381Y-92333558D01*
X66611000Y-92428796D01*
X66658619Y-92476415D01*
X66753857Y-92524034D01*
X66896714Y-92524034D01*
X66991952Y-92476415D01*
X67039571Y-92428796D01*
X67087190Y-92333558D01*
X67087190Y-91952605D01*
X66896714Y-93381177D02*
X67563381Y-93381177D01*
X66515762Y-93143081D02*
X67230048Y-92904986D01*
X67230048Y-93524034D01*
X74040381Y-92524034D02*
X73564190Y-92190700D01*
X74040381Y-91952605D02*
X73040381Y-91952605D01*
X73040381Y-92333558D01*
X73088000Y-92428796D01*
X73135619Y-92476415D01*
X73230857Y-92524034D01*
X73373714Y-92524034D01*
X73468952Y-92476415D01*
X73516571Y-92428796D01*
X73564190Y-92333558D01*
X73564190Y-91952605D01*
X73040381Y-92857367D02*
X73040381Y-93476415D01*
X73421333Y-93143081D01*
X73421333Y-93285939D01*
X73468952Y-93381177D01*
X73516571Y-93428796D01*
X73611810Y-93476415D01*
X73849905Y-93476415D01*
X73945143Y-93428796D01*
X73992762Y-93381177D01*
X74040381Y-93285939D01*
X74040381Y-93000224D01*
X73992762Y-92904986D01*
X73945143Y-92857367D01*
X76089381Y-75887034D02*
X75613190Y-75553700D01*
X76089381Y-75315605D02*
X75089381Y-75315605D01*
X75089381Y-75696558D01*
X75137000Y-75791796D01*
X75184619Y-75839415D01*
X75279857Y-75887034D01*
X75422714Y-75887034D01*
X75517952Y-75839415D01*
X75565571Y-75791796D01*
X75613190Y-75696558D01*
X75613190Y-75315605D01*
X75184619Y-76267986D02*
X75137000Y-76315605D01*
X75089381Y-76410843D01*
X75089381Y-76648939D01*
X75137000Y-76744177D01*
X75184619Y-76791796D01*
X75279857Y-76839415D01*
X75375095Y-76839415D01*
X75517952Y-76791796D01*
X76089381Y-76220367D01*
X76089381Y-76839415D01*
X68960381Y-76014034D02*
X68484190Y-75680700D01*
X68960381Y-75442605D02*
X67960381Y-75442605D01*
X67960381Y-75823558D01*
X68008000Y-75918796D01*
X68055619Y-75966415D01*
X68150857Y-76014034D01*
X68293714Y-76014034D01*
X68388952Y-75966415D01*
X68436571Y-75918796D01*
X68484190Y-75823558D01*
X68484190Y-75442605D01*
X68960381Y-76966415D02*
X68960381Y-76394986D01*
X68960381Y-76680700D02*
X67960381Y-76680700D01*
X68103238Y-76585462D01*
X68198476Y-76490224D01*
X68246095Y-76394986D01*
X72205666Y-68862843D02*
X72253285Y-68910462D01*
X72396142Y-68958081D01*
X72491380Y-68958081D01*
X72634238Y-68910462D01*
X72729476Y-68815224D01*
X72777095Y-68719986D01*
X72824714Y-68529510D01*
X72824714Y-68386652D01*
X72777095Y-68196176D01*
X72729476Y-68100938D01*
X72634238Y-68005700D01*
X72491380Y-67958081D01*
X72396142Y-67958081D01*
X72253285Y-68005700D01*
X72205666Y-68053319D01*
X71348523Y-68291414D02*
X71348523Y-68958081D01*
X71586619Y-67910462D02*
X71824714Y-68624748D01*
X71205666Y-68624748D01*
X63761666Y-68850843D02*
X63809285Y-68898462D01*
X63952142Y-68946081D01*
X64047380Y-68946081D01*
X64190238Y-68898462D01*
X64285476Y-68803224D01*
X64333095Y-68707986D01*
X64380714Y-68517510D01*
X64380714Y-68374652D01*
X64333095Y-68184176D01*
X64285476Y-68088938D01*
X64190238Y-67993700D01*
X64047380Y-67946081D01*
X63952142Y-67946081D01*
X63809285Y-67993700D01*
X63761666Y-68041319D01*
X63428333Y-67946081D02*
X62809285Y-67946081D01*
X63142619Y-68327033D01*
X62999761Y-68327033D01*
X62904523Y-68374652D01*
X62856904Y-68422271D01*
X62809285Y-68517510D01*
X62809285Y-68755605D01*
X62856904Y-68850843D01*
X62904523Y-68898462D01*
X62999761Y-68946081D01*
X63285476Y-68946081D01*
X63380714Y-68898462D01*
X63428333Y-68850843D01*
X72135666Y-62712843D02*
X72183285Y-62760462D01*
X72326142Y-62808081D01*
X72421380Y-62808081D01*
X72564238Y-62760462D01*
X72659476Y-62665224D01*
X72707095Y-62569986D01*
X72754714Y-62379510D01*
X72754714Y-62236652D01*
X72707095Y-62046176D01*
X72659476Y-61950938D01*
X72564238Y-61855700D01*
X72421380Y-61808081D01*
X72326142Y-61808081D01*
X72183285Y-61855700D01*
X72135666Y-61903319D01*
X71754714Y-61903319D02*
X71707095Y-61855700D01*
X71611857Y-61808081D01*
X71373761Y-61808081D01*
X71278523Y-61855700D01*
X71230904Y-61903319D01*
X71183285Y-61998557D01*
X71183285Y-62093795D01*
X71230904Y-62236652D01*
X71802333Y-62808081D01*
X71183285Y-62808081D01*
X80652666Y-68850843D02*
X80700285Y-68898462D01*
X80843142Y-68946081D01*
X80938380Y-68946081D01*
X81081238Y-68898462D01*
X81176476Y-68803224D01*
X81224095Y-68707986D01*
X81271714Y-68517510D01*
X81271714Y-68374652D01*
X81224095Y-68184176D01*
X81176476Y-68088938D01*
X81081238Y-67993700D01*
X80938380Y-67946081D01*
X80843142Y-67946081D01*
X80700285Y-67993700D01*
X80652666Y-68041319D01*
X79700285Y-68946081D02*
X80271714Y-68946081D01*
X79986000Y-68946081D02*
X79986000Y-67946081D01*
X80081238Y-68088938D01*
X80176476Y-68184176D01*
X80271714Y-68231795D01*
D17*
X82947934Y-107044067D02*
X83201934Y-107128733D01*
X83625267Y-107128733D01*
X83794600Y-107044067D01*
X83879267Y-106959400D01*
X83963934Y-106790067D01*
X83963934Y-106620733D01*
X83879267Y-106451400D01*
X83794600Y-106366733D01*
X83625267Y-106282067D01*
X83286600Y-106197400D01*
X83117267Y-106112733D01*
X83032600Y-106028067D01*
X82947934Y-105858733D01*
X82947934Y-105689400D01*
X83032600Y-105520067D01*
X83117267Y-105435400D01*
X83286600Y-105350733D01*
X83709934Y-105350733D01*
X83963934Y-105435400D01*
X84556600Y-105350733D02*
X84979933Y-107128733D01*
X85318600Y-105858733D01*
X85657267Y-107128733D01*
X86080600Y-105350733D01*
X87689267Y-107128733D02*
X86673267Y-107128733D01*
X87181267Y-107128733D02*
X87181267Y-105350733D01*
X87011933Y-105604733D01*
X86842600Y-105774067D01*
X86673267Y-105858733D01*
X80788934Y-124189067D02*
X81042934Y-124273733D01*
X81466267Y-124273733D01*
X81635600Y-124189067D01*
X81720267Y-124104400D01*
X81804934Y-123935067D01*
X81804934Y-123765733D01*
X81720267Y-123596400D01*
X81635600Y-123511733D01*
X81466267Y-123427067D01*
X81127600Y-123342400D01*
X80958267Y-123257733D01*
X80873600Y-123173067D01*
X80788934Y-123003733D01*
X80788934Y-122834400D01*
X80873600Y-122665067D01*
X80958267Y-122580400D01*
X81127600Y-122495733D01*
X81550934Y-122495733D01*
X81804934Y-122580400D01*
X82397600Y-122495733D02*
X82820933Y-124273733D01*
X83159600Y-123003733D01*
X83498267Y-124273733D01*
X83921600Y-122495733D01*
X84175600Y-124443067D02*
X85530267Y-124443067D01*
X85953600Y-124273733D02*
X85953600Y-122495733D01*
X86630934Y-122495733D01*
X86800267Y-122580400D01*
X86884934Y-122665067D01*
X86969600Y-122834400D01*
X86969600Y-123088400D01*
X86884934Y-123257733D01*
X86800267Y-123342400D01*
X86630934Y-123427067D01*
X85953600Y-123427067D01*
X88493600Y-123088400D02*
X88493600Y-124273733D01*
X87731600Y-123088400D02*
X87731600Y-124019733D01*
X87816267Y-124189067D01*
X87985600Y-124273733D01*
X88239600Y-124273733D01*
X88408934Y-124189067D01*
X88493600Y-124104400D01*
X89255601Y-124189067D02*
X89424934Y-124273733D01*
X89763601Y-124273733D01*
X89932934Y-124189067D01*
X90017601Y-124019733D01*
X90017601Y-123935067D01*
X89932934Y-123765733D01*
X89763601Y-123681067D01*
X89509601Y-123681067D01*
X89340267Y-123596400D01*
X89255601Y-123427067D01*
X89255601Y-123342400D01*
X89340267Y-123173067D01*
X89509601Y-123088400D01*
X89763601Y-123088400D01*
X89932934Y-123173067D01*
X90779600Y-124273733D02*
X90779600Y-122495733D01*
X91541600Y-124273733D02*
X91541600Y-123342400D01*
X91456934Y-123173067D01*
X91287600Y-123088400D01*
X91033600Y-123088400D01*
X90864267Y-123173067D01*
X90779600Y-123257733D01*
M02*
