G04 #@! TF.FileFunction,Legend,Top*
%FSLAX46Y46*%
G04 Gerber Fmt 4.6, Leading zero omitted, Abs format (unit mm)*
G04 Created by KiCad (PCBNEW 4.0.7-e0-6372~58~ubuntu16.04.1) date Sun Jul 15 17:02:29 2018*
%MOMM*%
%LPD*%
G01*
G04 APERTURE LIST*
%ADD10C,0.100000*%
%ADD11C,0.120000*%
%ADD12C,0.127000*%
%ADD13C,0.203200*%
%ADD14C,0.304800*%
%ADD15C,0.101600*%
%ADD16C,0.254000*%
%ADD17C,0.063500*%
%ADD18C,0.066040*%
%ADD19C,0.010000*%
%ADD20C,0.150000*%
%ADD21C,0.330200*%
G04 APERTURE END LIST*
D10*
D11*
X85404000Y-134823200D02*
X85404000Y-132223200D01*
X85404000Y-132223200D02*
X82744000Y-132223200D01*
X82744000Y-132223200D02*
X82744000Y-134823200D01*
X82744000Y-134823200D02*
X85404000Y-134823200D01*
X85404000Y-136093200D02*
X85404000Y-137423200D01*
X85404000Y-137423200D02*
X84074000Y-137423200D01*
X68082100Y-23936200D02*
X68082100Y-15136200D01*
X68082100Y-15136200D02*
X77282100Y-15136200D01*
X70782100Y-29836200D02*
X68082100Y-29836200D01*
X68082100Y-29836200D02*
X68082100Y-27936200D01*
X77282100Y-15136200D02*
X77282100Y-29836200D01*
X77282100Y-29836200D02*
X74682100Y-29836200D01*
D12*
X128125220Y-133151880D02*
X119126000Y-133151880D01*
X119126000Y-133151880D02*
X119126000Y-122153680D01*
X119126000Y-122153680D02*
X128125220Y-122153680D01*
X128125220Y-122153680D02*
X128125220Y-127650240D01*
X128125220Y-127650240D02*
X128125220Y-133151880D01*
X127124460Y-132151120D02*
X126123700Y-123154440D01*
X126123700Y-132151120D02*
X125125480Y-123154440D01*
X125125480Y-132151120D02*
X124124720Y-123154440D01*
X124124720Y-132151120D02*
X123123960Y-123154440D01*
X123123960Y-132151120D02*
X122125740Y-123154440D01*
X122125740Y-132151120D02*
X121124980Y-123154440D01*
X121124980Y-132151120D02*
X120124220Y-123154440D01*
X128125220Y-127650240D02*
X127223520Y-127650240D01*
X125125480Y-136370060D02*
X119126000Y-136370060D01*
X125125480Y-118874540D02*
X119126000Y-118874540D01*
X125125480Y-136370060D02*
X125125480Y-118874540D01*
X119126000Y-136370060D02*
X119126000Y-118874540D01*
X112502874Y-131620260D02*
G75*
G03X112502874Y-131620260I-775894J0D01*
G01*
X112826800Y-131620260D02*
X110627160Y-131620260D01*
X111726980Y-130520440D02*
X111726980Y-132720080D01*
X112502874Y-121023380D02*
G75*
G03X112502874Y-121023380I-775894J0D01*
G01*
X112826800Y-121023380D02*
X110627160Y-121023380D01*
X111726980Y-119923560D02*
X111726980Y-122123200D01*
X18127980Y-121102120D02*
X27127200Y-121102120D01*
X27127200Y-121102120D02*
X27127200Y-132100320D01*
X27127200Y-132100320D02*
X18127980Y-132100320D01*
X18127980Y-132100320D02*
X18127980Y-126603760D01*
X18127980Y-126603760D02*
X18127980Y-121102120D01*
X19128740Y-122102880D02*
X20129500Y-131099560D01*
X20129500Y-122102880D02*
X21127720Y-131099560D01*
X21127720Y-122102880D02*
X22128480Y-131099560D01*
X22128480Y-122102880D02*
X23129240Y-131099560D01*
X23129240Y-122102880D02*
X24127460Y-131099560D01*
X24127460Y-122102880D02*
X25128220Y-131099560D01*
X25128220Y-122102880D02*
X26128980Y-131099560D01*
X18127980Y-126603760D02*
X19029680Y-126603760D01*
X21127720Y-117883940D02*
X27127200Y-117883940D01*
X21127720Y-135379460D02*
X27127200Y-135379460D01*
X21127720Y-117883940D02*
X21127720Y-135379460D01*
X27127200Y-117883940D02*
X27127200Y-135379460D01*
X35302114Y-122633740D02*
G75*
G03X35302114Y-122633740I-775894J0D01*
G01*
X33426400Y-122633740D02*
X35626040Y-122633740D01*
X34526220Y-123733560D02*
X34526220Y-121533920D01*
X35302114Y-133230620D02*
G75*
G03X35302114Y-133230620I-775894J0D01*
G01*
X33426400Y-133230620D02*
X35626040Y-133230620D01*
X34526220Y-134330440D02*
X34526220Y-132130800D01*
D11*
X78651100Y-128603700D02*
X76051100Y-128603700D01*
X76051100Y-128603700D02*
X76051100Y-131263700D01*
X76051100Y-131263700D02*
X78651100Y-131263700D01*
X78651100Y-131263700D02*
X78651100Y-128603700D01*
X79921100Y-128603700D02*
X81251100Y-128603700D01*
X81251100Y-128603700D02*
X81251100Y-129933700D01*
X88225000Y-76305700D02*
X88225000Y-81445700D01*
X88225000Y-81445700D02*
X83025000Y-81445700D01*
X83025000Y-81445700D02*
X83025000Y-73705700D01*
X83025000Y-73705700D02*
X85625000Y-73705700D01*
X85625000Y-73705700D02*
X85625000Y-76305700D01*
X85625000Y-76305700D02*
X88225000Y-76305700D01*
X88225000Y-75035700D02*
X88225000Y-73705700D01*
X88225000Y-73705700D02*
X86955000Y-73705700D01*
X61108900Y-146558000D02*
X61108900Y-138878000D01*
X61108900Y-138878000D02*
X58448900Y-138878000D01*
X58448900Y-138878000D02*
X58448900Y-146558000D01*
X58448900Y-146558000D02*
X61108900Y-146558000D01*
X61108900Y-147828000D02*
X61108900Y-149158000D01*
X61108900Y-149158000D02*
X59778900Y-149158000D01*
D13*
X58994040Y-103916480D02*
X58143140Y-103916480D01*
X56992520Y-102765860D02*
X56992520Y-93068140D01*
X58143140Y-91917520D02*
X58994040Y-91917520D01*
X61993780Y-91917520D02*
X63990220Y-91917520D01*
X66989960Y-91917520D02*
X67840860Y-91917520D01*
X68991480Y-93068140D02*
X68991480Y-102765860D01*
X67840860Y-103916480D02*
X66989960Y-103916480D01*
X63990220Y-103916480D02*
X61993780Y-103916480D01*
X56992520Y-93068140D02*
X58143140Y-91917520D01*
X58143140Y-103916480D02*
X56992520Y-102765860D01*
X68991480Y-102765860D02*
X67840860Y-103916480D01*
X67840860Y-91917520D02*
X68991480Y-93068140D01*
D14*
X62357000Y-97282000D02*
X62357000Y-97917000D01*
X62357000Y-97917000D02*
X62357000Y-98552000D01*
X62357000Y-98552000D02*
X63627000Y-97917000D01*
X63627000Y-97917000D02*
X62357000Y-97282000D01*
D15*
X65463366Y-97917000D02*
G75*
G03X65463366Y-97917000I-2471366J0D01*
G01*
D12*
X59057620Y-97917000D02*
G75*
G03X59057620Y-97917000I-563960J0D01*
G01*
X58493660Y-98714560D02*
X58493660Y-97119440D01*
X59293760Y-97917000D02*
X57693560Y-97917000D01*
X68054300Y-97917000D02*
G75*
G03X68054300Y-97917000I-563960J0D01*
G01*
X67490340Y-98714560D02*
X67490340Y-97119440D01*
X68290440Y-97917000D02*
X66690240Y-97917000D01*
D13*
X77362040Y-103916480D02*
X76511140Y-103916480D01*
X75360520Y-102765860D02*
X75360520Y-93068140D01*
X76511140Y-91917520D02*
X77362040Y-91917520D01*
X80361780Y-91917520D02*
X82358220Y-91917520D01*
X85357960Y-91917520D02*
X86208860Y-91917520D01*
X87359480Y-93068140D02*
X87359480Y-102765860D01*
X86208860Y-103916480D02*
X85357960Y-103916480D01*
X82358220Y-103916480D02*
X80361780Y-103916480D01*
X75360520Y-93068140D02*
X76511140Y-91917520D01*
X76511140Y-103916480D02*
X75360520Y-102765860D01*
X87359480Y-102765860D02*
X86208860Y-103916480D01*
X86208860Y-91917520D02*
X87359480Y-93068140D01*
D14*
X80725000Y-97282000D02*
X80725000Y-97917000D01*
X80725000Y-97917000D02*
X80725000Y-98552000D01*
X80725000Y-98552000D02*
X81995000Y-97917000D01*
X81995000Y-97917000D02*
X80725000Y-97282000D01*
D15*
X83831366Y-97917000D02*
G75*
G03X83831366Y-97917000I-2471366J0D01*
G01*
D12*
X77425620Y-97917000D02*
G75*
G03X77425620Y-97917000I-563960J0D01*
G01*
X76861660Y-98714560D02*
X76861660Y-97119440D01*
X77661760Y-97917000D02*
X76061560Y-97917000D01*
X86422300Y-97917000D02*
G75*
G03X86422300Y-97917000I-563960J0D01*
G01*
X85858340Y-98714560D02*
X85858340Y-97119440D01*
X86658440Y-97917000D02*
X85058240Y-97917000D01*
D11*
X62614400Y-87850700D02*
X62614400Y-86850700D01*
X66214400Y-86850700D02*
X66214400Y-87850700D01*
X61192665Y-99008308D02*
G75*
G03X64425000Y-99165216I1672335J1078608D01*
G01*
X61192665Y-96851092D02*
G75*
G02X64425000Y-96694184I1672335J-1078608D01*
G01*
X61823870Y-99009537D02*
G75*
G03X63905961Y-99009700I1041130J1079837D01*
G01*
X61823870Y-96849863D02*
G75*
G02X63905961Y-96849700I1041130J-1079837D01*
G01*
X64425000Y-99165700D02*
X64425000Y-99009700D01*
X64425000Y-96849700D02*
X64425000Y-96693700D01*
X79861665Y-98881308D02*
G75*
G03X83094000Y-99038216I1672335J1078608D01*
G01*
X79861665Y-96724092D02*
G75*
G02X83094000Y-96567184I1672335J-1078608D01*
G01*
X80492870Y-98882537D02*
G75*
G03X82574961Y-98882700I1041130J1079837D01*
G01*
X80492870Y-96722863D02*
G75*
G02X82574961Y-96722700I1041130J-1079837D01*
G01*
X83094000Y-99038700D02*
X83094000Y-98882700D01*
X83094000Y-96722700D02*
X83094000Y-96566700D01*
X61505000Y-75615700D02*
X61505000Y-81735700D01*
X61505000Y-81735700D02*
X57885000Y-81735700D01*
X57885000Y-81735700D02*
X57885000Y-75615700D01*
X57885000Y-75615700D02*
X61505000Y-75615700D01*
X75164100Y-41719962D02*
G75*
G03X69614100Y-40174670I-2990000J462D01*
G01*
X75164100Y-41719038D02*
G75*
G02X69614100Y-43264330I-2990000J-462D01*
G01*
X74674100Y-41719500D02*
G75*
G03X74674100Y-41719500I-2500000J0D01*
G01*
X69614100Y-40174500D02*
X69614100Y-43264500D01*
X70315700Y-136183700D02*
X71815700Y-136183700D01*
X71815700Y-136183700D02*
X71815700Y-135913700D01*
X71815700Y-135913700D02*
X74645700Y-135913700D01*
X70315700Y-129283700D02*
X71815700Y-129283700D01*
X71815700Y-129283700D02*
X71815700Y-129553700D01*
X71815700Y-129553700D02*
X72915700Y-129553700D01*
X82356300Y-143627600D02*
X82356300Y-141627600D01*
X84496300Y-141627600D02*
X84496300Y-143627600D01*
X84559800Y-148549100D02*
X84559800Y-150549100D01*
X82419800Y-150549100D02*
X82419800Y-148549100D01*
X74718799Y-156758058D02*
G75*
G03X69118800Y-155116588I-3039999J1958D01*
G01*
X74718799Y-156754142D02*
G75*
G02X69118800Y-158395612I-3039999J-1958D01*
G01*
X74178800Y-156756100D02*
G75*
G03X74178800Y-156756100I-2500000J0D01*
G01*
X69118800Y-155116100D02*
X69118800Y-158396100D01*
D16*
X58663840Y-68798160D02*
X68663820Y-68798160D01*
X70365620Y-62199240D02*
X70365620Y-68798160D01*
X70365620Y-62199240D02*
X69164200Y-62199240D01*
X58663840Y-62199240D02*
X58166000Y-62199240D01*
X58166000Y-62199240D02*
X58166000Y-62699620D01*
X58166000Y-62699620D02*
X58166000Y-68297780D01*
X58166000Y-68297780D02*
X58166000Y-68798160D01*
X58166000Y-68798160D02*
X58663840Y-68798160D01*
X58166000Y-62699620D02*
X56167020Y-62699620D01*
X56167020Y-62699620D02*
X56167020Y-68297780D01*
X56167020Y-68297780D02*
X58166000Y-68297780D01*
X65163700Y-62199240D02*
X67564000Y-62199240D01*
X62163960Y-62199240D02*
X63563500Y-62199240D01*
X58663840Y-62199240D02*
X60563760Y-62199240D01*
D12*
X60187528Y-65498700D02*
G75*
G03X60187528Y-65498700I-423868J0D01*
G01*
X59164220Y-65498700D02*
X60365640Y-65498700D01*
X59763660Y-66098140D02*
X59763660Y-64899260D01*
X67187768Y-65498700D02*
G75*
G03X67187768Y-65498700I-423868J0D01*
G01*
X66164460Y-65498700D02*
X67365880Y-65498700D01*
X66763900Y-66098140D02*
X66763900Y-64899260D01*
D16*
X85735160Y-62326240D02*
X75735180Y-62326240D01*
X74033380Y-68925160D02*
X74033380Y-62326240D01*
X74033380Y-68925160D02*
X75234800Y-68925160D01*
X85735160Y-68925160D02*
X86233000Y-68925160D01*
X86233000Y-68925160D02*
X86233000Y-68424780D01*
X86233000Y-68424780D02*
X86233000Y-62826620D01*
X86233000Y-62826620D02*
X86233000Y-62326240D01*
X86233000Y-62326240D02*
X85735160Y-62326240D01*
X86233000Y-68424780D02*
X88231980Y-68424780D01*
X88231980Y-68424780D02*
X88231980Y-62826620D01*
X88231980Y-62826620D02*
X86233000Y-62826620D01*
X79235300Y-68925160D02*
X76835000Y-68925160D01*
X82235040Y-68925160D02*
X80835500Y-68925160D01*
X85735160Y-68925160D02*
X83835240Y-68925160D01*
D12*
X85059208Y-65625700D02*
G75*
G03X85059208Y-65625700I-423868J0D01*
G01*
X85234780Y-65625700D02*
X84033360Y-65625700D01*
X84635340Y-65026260D02*
X84635340Y-66225140D01*
X78058968Y-65625700D02*
G75*
G03X78058968Y-65625700I-423868J0D01*
G01*
X78234540Y-65625700D02*
X77033120Y-65625700D01*
X77635100Y-65026260D02*
X77635100Y-66225140D01*
X62017420Y-138348800D02*
X62017420Y-155346480D01*
X62017420Y-155346480D02*
X81712580Y-155346480D01*
X81712580Y-155346480D02*
X81712580Y-138348800D01*
X81712580Y-138348800D02*
X62017420Y-138348800D01*
X72863220Y-140848160D02*
X72863220Y-152847120D01*
X72863220Y-152847120D02*
X70866780Y-152847120D01*
X70866780Y-152847120D02*
X70866780Y-140848160D01*
X70866780Y-140848160D02*
X72863220Y-140848160D01*
X78164200Y-140848160D02*
X76162680Y-140848160D01*
X76162680Y-140848160D02*
X76162680Y-152847120D01*
X76162680Y-152847120D02*
X78164200Y-152847120D01*
X78164200Y-152847120D02*
X78164200Y-140848160D01*
X65565800Y-140848160D02*
X65565800Y-152847120D01*
X65565800Y-152847120D02*
X67567320Y-152847120D01*
X67567320Y-152847120D02*
X67567320Y-140848160D01*
X67567320Y-140848160D02*
X65565800Y-140848160D01*
D17*
X76175523Y-146847640D02*
G75*
G03X76175523Y-146847640I-4310523J0D01*
G01*
D11*
X61197800Y-134620000D02*
X61197800Y-129480000D01*
X61197800Y-129480000D02*
X58537800Y-129480000D01*
X58537800Y-129480000D02*
X58537800Y-134620000D01*
X58537800Y-134620000D02*
X61197800Y-134620000D01*
X61197800Y-135890000D02*
X61197800Y-137220000D01*
X61197800Y-137220000D02*
X59867800Y-137220000D01*
X81076800Y-136918700D02*
X75996800Y-136918700D01*
X75996800Y-132346700D02*
X81076800Y-132346700D01*
X75996800Y-132346700D02*
X75996800Y-136918700D01*
X81076800Y-132346700D02*
X81076800Y-136918700D01*
X88353900Y-90208100D02*
X83273900Y-90208100D01*
X83273900Y-85636100D02*
X88353900Y-85636100D01*
X83273900Y-85636100D02*
X83273900Y-90208100D01*
X88353900Y-85636100D02*
X88353900Y-90208100D01*
X78667200Y-87596500D02*
X78667200Y-86596500D01*
X82267200Y-86596500D02*
X82267200Y-87596500D01*
D18*
X84455000Y-115138200D02*
X84912200Y-115138200D01*
X84912200Y-115138200D02*
X84912200Y-114528600D01*
X84455000Y-114528600D02*
X84912200Y-114528600D01*
X84455000Y-115138200D02*
X84455000Y-114528600D01*
X84455000Y-112598200D02*
X84912200Y-112598200D01*
X84912200Y-112598200D02*
X84912200Y-111988600D01*
X84455000Y-111988600D02*
X84912200Y-111988600D01*
X84455000Y-112598200D02*
X84455000Y-111988600D01*
X84455000Y-117678200D02*
X84912200Y-117678200D01*
X84912200Y-117678200D02*
X84912200Y-117068600D01*
X84455000Y-117068600D02*
X84912200Y-117068600D01*
X84455000Y-117678200D02*
X84455000Y-117068600D01*
D12*
X84665820Y-112994440D02*
X84500720Y-112976660D01*
X84500720Y-112976660D02*
X84338160Y-112928400D01*
X84338160Y-112928400D02*
X84190840Y-112849660D01*
X84190840Y-112849660D02*
X84058760Y-112742980D01*
X84058760Y-112742980D02*
X83952080Y-112613440D01*
X83952080Y-112613440D02*
X83873340Y-112466120D01*
X83873340Y-112466120D02*
X83822540Y-112303560D01*
X83822540Y-112303560D02*
X83807300Y-112135920D01*
X83807300Y-112135920D02*
X83822540Y-111963200D01*
X83822540Y-111963200D02*
X83870800Y-111798100D01*
X83870800Y-111798100D02*
X83949540Y-111643160D01*
X83949540Y-111643160D02*
X84058760Y-111508540D01*
X84058760Y-111508540D02*
X84190840Y-111396780D01*
X84190840Y-111396780D02*
X84343240Y-111312960D01*
X84343240Y-111312960D02*
X84510880Y-111262160D01*
X84510880Y-111262160D02*
X84681060Y-111241840D01*
X84681060Y-111241840D02*
X84851240Y-111262160D01*
X84851240Y-111262160D02*
X85018880Y-111312960D01*
X85018880Y-111312960D02*
X85171280Y-111396780D01*
X85171280Y-111396780D02*
X85303360Y-111508540D01*
X85303360Y-111508540D02*
X85412580Y-111643160D01*
X85412580Y-111643160D02*
X85491320Y-111798100D01*
X85491320Y-111798100D02*
X85542120Y-111963200D01*
X85542120Y-111963200D02*
X85557360Y-112135920D01*
X85557360Y-112135920D02*
X85537040Y-112306100D01*
X85537040Y-112306100D02*
X85483700Y-112471200D01*
X85483700Y-112471200D02*
X85399880Y-112618520D01*
X85399880Y-112618520D02*
X85288120Y-112750600D01*
X85288120Y-112750600D02*
X85153500Y-112854740D01*
X85153500Y-112854740D02*
X85001100Y-112933480D01*
X85001100Y-112933480D02*
X84836000Y-112979200D01*
X84836000Y-112979200D02*
X84665820Y-112994440D01*
X84678520Y-118430040D02*
X84510880Y-118414800D01*
X84510880Y-118414800D02*
X84348320Y-118366540D01*
X84348320Y-118366540D02*
X84198460Y-118287800D01*
X84198460Y-118287800D02*
X84066380Y-118183660D01*
X84066380Y-118183660D02*
X83957160Y-118054120D01*
X83957160Y-118054120D02*
X83875880Y-117904260D01*
X83875880Y-117904260D02*
X83825080Y-117744240D01*
X83825080Y-117744240D02*
X83807300Y-117574060D01*
X83807300Y-117574060D02*
X83822540Y-117398800D01*
X83822540Y-117398800D02*
X83870800Y-117231160D01*
X83870800Y-117231160D02*
X83952080Y-117073680D01*
X83952080Y-117073680D02*
X84063840Y-116936520D01*
X84063840Y-116936520D02*
X84198460Y-116824760D01*
X84198460Y-116824760D02*
X84353400Y-116740940D01*
X84353400Y-116740940D02*
X84523580Y-116687600D01*
X84523580Y-116687600D02*
X84696300Y-116667280D01*
X84696300Y-116667280D02*
X84869020Y-116690140D01*
X84869020Y-116690140D02*
X85034120Y-116743480D01*
X85034120Y-116743480D02*
X85183980Y-116829840D01*
X85183980Y-116829840D02*
X85316060Y-116941600D01*
X85316060Y-116941600D02*
X85425280Y-117078760D01*
X85425280Y-117078760D02*
X85504020Y-117233700D01*
X85504020Y-117233700D02*
X85549740Y-117401340D01*
X85549740Y-117401340D02*
X85564980Y-117576600D01*
X85564980Y-117576600D02*
X85544660Y-117744240D01*
X85544660Y-117744240D02*
X85491320Y-117906800D01*
X85491320Y-117906800D02*
X85407500Y-118056660D01*
X85407500Y-118056660D02*
X85298280Y-118186200D01*
X85298280Y-118186200D02*
X85163660Y-118290340D01*
X85163660Y-118290340D02*
X85011260Y-118369080D01*
X85011260Y-118369080D02*
X84846160Y-118414800D01*
X84846160Y-118414800D02*
X84678520Y-118430040D01*
X84673440Y-115707160D02*
X84505800Y-115691920D01*
X84505800Y-115691920D02*
X84345780Y-115643660D01*
X84345780Y-115643660D02*
X84195920Y-115564920D01*
X84195920Y-115564920D02*
X84063840Y-115458240D01*
X84063840Y-115458240D02*
X83957160Y-115328700D01*
X83957160Y-115328700D02*
X83875880Y-115181380D01*
X83875880Y-115181380D02*
X83827620Y-115018820D01*
X83827620Y-115018820D02*
X83809840Y-114851180D01*
X83809840Y-114851180D02*
X83825080Y-114681000D01*
X83825080Y-114681000D02*
X83875880Y-114510820D01*
X83875880Y-114510820D02*
X83957160Y-114355880D01*
X83957160Y-114355880D02*
X84068920Y-114221260D01*
X84068920Y-114221260D02*
X84203540Y-114109500D01*
X84203540Y-114109500D02*
X84358480Y-114025680D01*
X84358480Y-114025680D02*
X84526120Y-113974880D01*
X84526120Y-113974880D02*
X84698840Y-113954560D01*
X84698840Y-113954560D02*
X84866480Y-113974880D01*
X84866480Y-113974880D02*
X85031580Y-114028220D01*
X85031580Y-114028220D02*
X85178900Y-114109500D01*
X85178900Y-114109500D02*
X85310980Y-114221260D01*
X85310980Y-114221260D02*
X85417660Y-114355880D01*
X85417660Y-114355880D02*
X85496400Y-114508280D01*
X85496400Y-114508280D02*
X85542120Y-114670840D01*
X85542120Y-114670840D02*
X85557360Y-114841020D01*
X85557360Y-114841020D02*
X85537040Y-115011200D01*
X85537040Y-115011200D02*
X85486240Y-115173760D01*
X85486240Y-115173760D02*
X85404960Y-115323620D01*
X85404960Y-115323620D02*
X85293200Y-115455700D01*
X85293200Y-115455700D02*
X85161120Y-115562380D01*
X85161120Y-115562380D02*
X85008720Y-115643660D01*
X85008720Y-115643660D02*
X84843620Y-115691920D01*
X84843620Y-115691920D02*
X84673440Y-115707160D01*
X84683600Y-112560100D02*
X84587080Y-112549940D01*
X84587080Y-112549940D02*
X84495640Y-112519460D01*
X84495640Y-112519460D02*
X84411820Y-112471200D01*
X84411820Y-112471200D02*
X84340700Y-112402620D01*
X84340700Y-112402620D02*
X84287360Y-112321340D01*
X84287360Y-112321340D02*
X84254340Y-112229900D01*
X84254340Y-112229900D02*
X84239100Y-112135920D01*
X84239100Y-112135920D02*
X84249260Y-112031780D01*
X84249260Y-112031780D02*
X84279740Y-111935260D01*
X84279740Y-111935260D02*
X84333080Y-111848900D01*
X84333080Y-111848900D02*
X84404200Y-111772700D01*
X84404200Y-111772700D02*
X84488020Y-111716820D01*
X84488020Y-111716820D02*
X84584540Y-111681260D01*
X84584540Y-111681260D02*
X84683600Y-111668560D01*
X84683600Y-111668560D02*
X84782660Y-111681260D01*
X84782660Y-111681260D02*
X84876640Y-111714280D01*
X84876640Y-111714280D02*
X84960460Y-111770160D01*
X84960460Y-111770160D02*
X85031580Y-111843820D01*
X85031580Y-111843820D02*
X85082380Y-111927640D01*
X85082380Y-111927640D02*
X85115400Y-112024160D01*
X85115400Y-112024160D02*
X85123020Y-112123220D01*
X85123020Y-112123220D02*
X85112860Y-112222280D01*
X85112860Y-112222280D02*
X85079840Y-112313720D01*
X85079840Y-112313720D02*
X85026500Y-112397540D01*
X85026500Y-112397540D02*
X84955380Y-112466120D01*
X84955380Y-112466120D02*
X84871560Y-112516920D01*
X84871560Y-112516920D02*
X84780120Y-112549940D01*
X84780120Y-112549940D02*
X84683600Y-112560100D01*
X84686140Y-117995700D02*
X84589620Y-117988080D01*
X84589620Y-117988080D02*
X84498180Y-117957600D01*
X84498180Y-117957600D02*
X84414360Y-117909340D01*
X84414360Y-117909340D02*
X84343240Y-117840760D01*
X84343240Y-117840760D02*
X84289900Y-117759480D01*
X84289900Y-117759480D02*
X84256880Y-117668040D01*
X84256880Y-117668040D02*
X84244180Y-117571520D01*
X84244180Y-117571520D02*
X84251800Y-117469920D01*
X84251800Y-117469920D02*
X84282280Y-117373400D01*
X84282280Y-117373400D02*
X84335620Y-117287040D01*
X84335620Y-117287040D02*
X84406740Y-117210840D01*
X84406740Y-117210840D02*
X84490560Y-117154960D01*
X84490560Y-117154960D02*
X84587080Y-117119400D01*
X84587080Y-117119400D02*
X84686140Y-117106700D01*
X84686140Y-117106700D02*
X84785200Y-117119400D01*
X84785200Y-117119400D02*
X84879180Y-117152420D01*
X84879180Y-117152420D02*
X84963000Y-117208300D01*
X84963000Y-117208300D02*
X85034120Y-117279420D01*
X85034120Y-117279420D02*
X85084920Y-117365780D01*
X85084920Y-117365780D02*
X85117940Y-117462300D01*
X85117940Y-117462300D02*
X85128100Y-117561360D01*
X85128100Y-117561360D02*
X85115400Y-117660420D01*
X85115400Y-117660420D02*
X85082380Y-117751860D01*
X85082380Y-117751860D02*
X85029040Y-117835680D01*
X85029040Y-117835680D02*
X84957920Y-117904260D01*
X84957920Y-117904260D02*
X84876640Y-117955060D01*
X84876640Y-117955060D02*
X84782660Y-117985540D01*
X84782660Y-117985540D02*
X84686140Y-117995700D01*
X84693760Y-115280440D02*
X84597240Y-115270280D01*
X84597240Y-115270280D02*
X84505800Y-115239800D01*
X84505800Y-115239800D02*
X84421980Y-115191540D01*
X84421980Y-115191540D02*
X84350860Y-115122960D01*
X84350860Y-115122960D02*
X84297520Y-115041680D01*
X84297520Y-115041680D02*
X84264500Y-114950240D01*
X84264500Y-114950240D02*
X84251800Y-114856260D01*
X84251800Y-114856260D02*
X84259420Y-114754660D01*
X84259420Y-114754660D02*
X84289900Y-114658140D01*
X84289900Y-114658140D02*
X84343240Y-114571780D01*
X84343240Y-114571780D02*
X84414360Y-114495580D01*
X84414360Y-114495580D02*
X84498180Y-114439700D01*
X84498180Y-114439700D02*
X84594700Y-114404140D01*
X84594700Y-114404140D02*
X84693760Y-114391440D01*
X84693760Y-114391440D02*
X84792820Y-114404140D01*
X84792820Y-114404140D02*
X84886800Y-114437160D01*
X84886800Y-114437160D02*
X84970620Y-114493040D01*
X84970620Y-114493040D02*
X85041740Y-114566700D01*
X85041740Y-114566700D02*
X85092540Y-114650520D01*
X85092540Y-114650520D02*
X85125560Y-114747040D01*
X85125560Y-114747040D02*
X85133180Y-114846100D01*
X85133180Y-114846100D02*
X85123020Y-114942620D01*
X85123020Y-114942620D02*
X85090000Y-115034060D01*
X85090000Y-115034060D02*
X85036660Y-115117880D01*
X85036660Y-115117880D02*
X84965540Y-115186460D01*
X84965540Y-115186460D02*
X84884260Y-115237260D01*
X84884260Y-115237260D02*
X84790280Y-115270280D01*
X84790280Y-115270280D02*
X84693760Y-115280440D01*
D19*
G36*
X54349322Y-127410633D02*
X54079611Y-127124660D01*
X53700486Y-126662968D01*
X53374654Y-126141249D01*
X53106827Y-125568817D01*
X52901720Y-124954988D01*
X52827071Y-124649035D01*
X52822987Y-124627796D01*
X52819053Y-124601591D01*
X52815266Y-124568859D01*
X52811622Y-124528039D01*
X52808120Y-124477568D01*
X52804757Y-124415886D01*
X52801529Y-124341432D01*
X52798435Y-124252643D01*
X52795470Y-124147959D01*
X52792633Y-124025819D01*
X52789920Y-123884661D01*
X52787329Y-123722923D01*
X52784857Y-123539045D01*
X52782502Y-123331465D01*
X52780259Y-123098621D01*
X52778128Y-122838953D01*
X52776104Y-122550899D01*
X52774185Y-122232897D01*
X52772369Y-121883387D01*
X52770652Y-121500807D01*
X52769032Y-121083596D01*
X52767506Y-120630192D01*
X52766070Y-120139034D01*
X52764724Y-119608561D01*
X52763462Y-119037211D01*
X52762284Y-118423424D01*
X52761185Y-117765637D01*
X52760164Y-117062289D01*
X52759217Y-116311819D01*
X52758342Y-115512666D01*
X52757536Y-114663269D01*
X52756795Y-113762065D01*
X52756118Y-112807494D01*
X52755501Y-111797995D01*
X52754943Y-110732005D01*
X52754439Y-109607964D01*
X52753987Y-108424311D01*
X52753584Y-107179483D01*
X52753228Y-105871920D01*
X52752916Y-104500061D01*
X52752644Y-103062344D01*
X52752411Y-101557207D01*
X52752213Y-99983089D01*
X52752048Y-98338430D01*
X52751913Y-96621667D01*
X52751805Y-94831240D01*
X52751721Y-92965587D01*
X52751658Y-91023146D01*
X52751614Y-89002357D01*
X52751586Y-86901658D01*
X52751571Y-84719487D01*
X52751567Y-82454284D01*
X52751567Y-82346800D01*
X52751570Y-80078571D01*
X52751583Y-77893445D01*
X52751607Y-75789860D01*
X52751646Y-73766251D01*
X52751703Y-71821055D01*
X52751780Y-69952710D01*
X52751880Y-68159651D01*
X52752007Y-66440316D01*
X52752162Y-64793141D01*
X52752349Y-63216562D01*
X52752571Y-61709017D01*
X52752830Y-60268942D01*
X52753130Y-58894774D01*
X52753473Y-57584949D01*
X52753861Y-56337904D01*
X52754299Y-55152076D01*
X52754788Y-54025902D01*
X52755332Y-52957817D01*
X52755934Y-51946260D01*
X52756595Y-50989666D01*
X52757320Y-50086472D01*
X52758111Y-49235115D01*
X52758970Y-48434031D01*
X52759901Y-47681658D01*
X52760907Y-46976432D01*
X52761990Y-46316789D01*
X52763153Y-45701166D01*
X52764399Y-45128000D01*
X52765731Y-44595728D01*
X52767152Y-44102786D01*
X52768664Y-43647611D01*
X52770271Y-43228639D01*
X52771975Y-42844308D01*
X52773779Y-42493053D01*
X52775687Y-42173313D01*
X52777700Y-41883522D01*
X52779821Y-41622119D01*
X52782054Y-41387539D01*
X52784402Y-41178219D01*
X52786867Y-40992597D01*
X52789452Y-40829108D01*
X52792159Y-40686189D01*
X52794993Y-40562278D01*
X52797955Y-40455810D01*
X52801048Y-40365222D01*
X52804276Y-40288952D01*
X52807641Y-40225435D01*
X52811146Y-40173108D01*
X52814794Y-40130409D01*
X52818587Y-40095773D01*
X52822529Y-40067638D01*
X52826623Y-40044440D01*
X52828635Y-40034633D01*
X53002760Y-39388047D01*
X53238184Y-38796050D01*
X53539174Y-38250649D01*
X53910003Y-37743853D01*
X54254400Y-37366272D01*
X54756693Y-36919832D01*
X55299349Y-36547794D01*
X55881754Y-36250470D01*
X56503291Y-36028175D01*
X57163344Y-35881221D01*
X57179409Y-35878661D01*
X57225125Y-35873446D01*
X57295805Y-35868548D01*
X57393874Y-35863957D01*
X57521757Y-35859665D01*
X57681879Y-35855663D01*
X57876665Y-35851941D01*
X58108540Y-35848490D01*
X58379928Y-35845302D01*
X58693255Y-35842368D01*
X59050945Y-35839677D01*
X59455424Y-35837222D01*
X59909116Y-35834993D01*
X60414446Y-35832981D01*
X60973839Y-35831177D01*
X61589720Y-35829572D01*
X62264514Y-35828158D01*
X63000646Y-35826924D01*
X63800540Y-35825862D01*
X64666621Y-35824964D01*
X65601315Y-35824219D01*
X66607046Y-35823618D01*
X67686240Y-35823154D01*
X68841320Y-35822816D01*
X70074712Y-35822596D01*
X71388841Y-35822485D01*
X72246067Y-35822466D01*
X73573949Y-35822481D01*
X74819848Y-35822533D01*
X75986447Y-35822637D01*
X77076432Y-35822806D01*
X78092485Y-35823053D01*
X79037291Y-35823393D01*
X79913532Y-35823837D01*
X80723894Y-35824401D01*
X81471059Y-35825096D01*
X82157711Y-35825938D01*
X82786535Y-35826939D01*
X83360214Y-35828113D01*
X83881432Y-35829473D01*
X84352873Y-35831033D01*
X84777220Y-35832806D01*
X85157157Y-35834806D01*
X85495369Y-35837046D01*
X85794538Y-35839540D01*
X86057349Y-35842302D01*
X86286485Y-35845344D01*
X86484631Y-35848680D01*
X86654470Y-35852324D01*
X86798685Y-35856289D01*
X86919961Y-35860589D01*
X87020982Y-35865236D01*
X87104431Y-35870246D01*
X87172992Y-35875631D01*
X87229348Y-35881404D01*
X87276185Y-35887579D01*
X87316185Y-35894170D01*
X87337900Y-35898306D01*
X88013362Y-36072370D01*
X88641908Y-36315751D01*
X89221715Y-36627244D01*
X89750958Y-37005640D01*
X90227811Y-37449733D01*
X90650450Y-37958314D01*
X90817823Y-38200761D01*
X91121880Y-38733465D01*
X91354697Y-39292665D01*
X91519477Y-39888246D01*
X91619425Y-40530092D01*
X91636814Y-40727291D01*
X91639521Y-40798912D01*
X91642113Y-40939532D01*
X91644592Y-41149636D01*
X91646959Y-41429710D01*
X91649212Y-41780240D01*
X91651354Y-42201712D01*
X91653383Y-42694612D01*
X91655301Y-43259427D01*
X91657107Y-43896641D01*
X91658803Y-44606742D01*
X91660388Y-45390214D01*
X91661863Y-46247545D01*
X91663228Y-47179219D01*
X91664484Y-48185724D01*
X91665630Y-49267545D01*
X91666668Y-50425167D01*
X91667598Y-51659078D01*
X91668419Y-52969763D01*
X91669133Y-54357708D01*
X91669740Y-55823398D01*
X91670240Y-57367321D01*
X91670633Y-58989962D01*
X91670920Y-60691806D01*
X91671101Y-62473341D01*
X91671176Y-64335051D01*
X91671147Y-66277424D01*
X91671012Y-68300944D01*
X91670774Y-70406099D01*
X91670431Y-72593373D01*
X91669984Y-74863253D01*
X91669434Y-77216225D01*
X91668781Y-79652775D01*
X91668026Y-82173389D01*
X91667829Y-82791300D01*
X91654485Y-124256800D01*
X91559126Y-124669291D01*
X91368976Y-125332989D01*
X91117162Y-125941321D01*
X90800872Y-126499791D01*
X90417291Y-127013903D01*
X90282268Y-127167332D01*
X90061635Y-127408740D01*
X90858767Y-127420270D01*
X91655900Y-127431800D01*
X91660354Y-143031633D01*
X91660594Y-144180113D01*
X91660655Y-145308810D01*
X91660544Y-146414670D01*
X91660266Y-147494637D01*
X91659826Y-148545658D01*
X91659229Y-149564676D01*
X91658481Y-150548638D01*
X91657587Y-151494489D01*
X91656553Y-152399173D01*
X91655383Y-153259637D01*
X91654084Y-154072825D01*
X91652661Y-154835683D01*
X91651119Y-155545155D01*
X91649463Y-156198187D01*
X91647699Y-156791725D01*
X91645833Y-157322713D01*
X91643868Y-157788096D01*
X91641812Y-158184821D01*
X91639670Y-158509832D01*
X91637445Y-158760074D01*
X91635145Y-158932492D01*
X91632775Y-159024032D01*
X91632196Y-159033633D01*
X91538396Y-159687103D01*
X91368143Y-160310963D01*
X91125977Y-160900268D01*
X90816439Y-161450068D01*
X90444070Y-161955419D01*
X90013412Y-162411371D01*
X89529005Y-162812980D01*
X88995391Y-163155297D01*
X88417110Y-163433375D01*
X87798705Y-163642268D01*
X87300605Y-163752415D01*
X87259644Y-163758320D01*
X87205594Y-163763861D01*
X87135832Y-163769050D01*
X87047736Y-163773898D01*
X86938684Y-163778415D01*
X86806054Y-163782615D01*
X86647224Y-163786506D01*
X86459571Y-163790102D01*
X86240474Y-163793412D01*
X85987310Y-163796449D01*
X85697457Y-163799224D01*
X85368294Y-163801747D01*
X84997197Y-163804030D01*
X84581545Y-163806085D01*
X84118716Y-163807922D01*
X83606088Y-163809553D01*
X83041038Y-163810989D01*
X82420944Y-163812241D01*
X81743185Y-163813321D01*
X81005138Y-163814240D01*
X80204180Y-163815008D01*
X79337691Y-163815638D01*
X78403047Y-163816140D01*
X77397627Y-163816526D01*
X76318808Y-163816807D01*
X75163969Y-163816994D01*
X73930487Y-163817099D01*
X72615740Y-163817132D01*
X72208772Y-163817130D01*
X70865281Y-163817081D01*
X69603857Y-163816959D01*
X68421900Y-163816753D01*
X67316812Y-163816453D01*
X66285993Y-163816048D01*
X65326843Y-163815525D01*
X64436763Y-163814876D01*
X64166492Y-163814618D01*
X64166492Y-158652633D01*
X79897468Y-158652633D01*
X79927813Y-158304760D01*
X80022616Y-157693464D01*
X80197999Y-157084980D01*
X80450044Y-156487503D01*
X80774837Y-155909230D01*
X81168461Y-155358358D01*
X81537687Y-154935109D01*
X82111038Y-154392161D01*
X82730203Y-153918147D01*
X83390079Y-153515402D01*
X84085565Y-153186260D01*
X84811560Y-152933057D01*
X85562963Y-152758127D01*
X86334672Y-152663804D01*
X86522984Y-152653394D01*
X87105067Y-152628736D01*
X87105067Y-129796454D01*
X84385150Y-128465960D01*
X81665234Y-127135466D01*
X72023344Y-127124611D01*
X67912728Y-127119984D01*
X67912728Y-126006083D01*
X68766754Y-126005836D01*
X69696542Y-126005299D01*
X70704864Y-126004484D01*
X71794492Y-126003404D01*
X72036955Y-126003141D01*
X81749900Y-125992466D01*
X81779862Y-125590300D01*
X81871803Y-124914507D01*
X82042857Y-124258555D01*
X82288733Y-123627708D01*
X82605143Y-123027231D01*
X82987796Y-122462386D01*
X83432402Y-121938439D01*
X83934671Y-121460654D01*
X84490314Y-121034296D01*
X85095041Y-120664627D01*
X85744562Y-120356913D01*
X86174643Y-120197295D01*
X86627239Y-120059675D01*
X87053304Y-119960588D01*
X87485028Y-119894319D01*
X87954601Y-119855151D01*
X88152817Y-119846066D01*
X88840734Y-119820440D01*
X88840638Y-82541620D01*
X88840543Y-45262800D01*
X88278753Y-45253141D01*
X87509565Y-45198748D01*
X86761779Y-45062458D01*
X86035752Y-44844382D01*
X85331841Y-44544633D01*
X84650405Y-44163323D01*
X84503197Y-44068274D01*
X84180678Y-43831022D01*
X83840011Y-43538613D01*
X83501476Y-43211332D01*
X83185356Y-42869464D01*
X82911932Y-42533294D01*
X82774603Y-42339434D01*
X82431031Y-41765822D01*
X82165233Y-41196092D01*
X81972391Y-40615490D01*
X81847689Y-40009261D01*
X81786311Y-39362650D01*
X81783821Y-39304383D01*
X81759563Y-38679966D01*
X62267829Y-38679966D01*
X62287390Y-38883550D01*
X62291123Y-39012467D01*
X62285521Y-39196948D01*
X62271805Y-39408553D01*
X62258790Y-39550300D01*
X62143240Y-40271949D01*
X61950428Y-40959927D01*
X61680881Y-41612874D01*
X61335126Y-42229426D01*
X61080810Y-42595355D01*
X60608564Y-43154703D01*
X60074970Y-43658577D01*
X59486822Y-44101756D01*
X58850913Y-44479017D01*
X58294026Y-44737393D01*
X57921078Y-44878242D01*
X57547020Y-44993747D01*
X57154511Y-45087603D01*
X56726215Y-45163504D01*
X56244791Y-45225146D01*
X55810150Y-45266640D01*
X55524400Y-45290705D01*
X55524400Y-119901794D01*
X56106484Y-119952509D01*
X56779423Y-120034890D01*
X57397581Y-120162368D01*
X57980905Y-120340236D01*
X58549341Y-120573787D01*
X58678234Y-120635042D01*
X59322028Y-120992226D01*
X59914596Y-121410120D01*
X60451363Y-121883573D01*
X60927753Y-122407430D01*
X61339193Y-122976540D01*
X61681107Y-123585749D01*
X61948923Y-124229905D01*
X61996503Y-124372843D01*
X62085219Y-124681522D01*
X62160093Y-125000596D01*
X62216387Y-125305613D01*
X62249364Y-125572124D01*
X62256048Y-125712262D01*
X62263360Y-125841570D01*
X62281028Y-125938521D01*
X62290353Y-125960808D01*
X62309120Y-125966834D01*
X62359303Y-125972378D01*
X62443675Y-125977451D01*
X62565007Y-125982066D01*
X62726070Y-125986235D01*
X62929637Y-125989970D01*
X63178478Y-125993282D01*
X63475366Y-125996185D01*
X63823072Y-125998689D01*
X64224367Y-126000807D01*
X64682024Y-126002551D01*
X65198813Y-126003934D01*
X65777506Y-126004966D01*
X66420875Y-126005660D01*
X67131692Y-126006028D01*
X67912728Y-126006083D01*
X67912728Y-127119984D01*
X62381455Y-127113756D01*
X57302507Y-129929466D01*
X57302454Y-141324105D01*
X57302400Y-152718743D01*
X57630484Y-152746178D01*
X58451903Y-152854160D01*
X59235418Y-153037754D01*
X59981958Y-153297339D01*
X60692454Y-153633293D01*
X61367836Y-154045994D01*
X61985470Y-154515950D01*
X62517354Y-155014233D01*
X62979785Y-155555614D01*
X63370424Y-156135865D01*
X63686933Y-156750757D01*
X63926973Y-157396060D01*
X64088206Y-158067547D01*
X64138242Y-158409216D01*
X64166492Y-158652633D01*
X64166492Y-163814618D01*
X63613152Y-163814089D01*
X62853413Y-163813152D01*
X62154945Y-163812056D01*
X61515148Y-163810789D01*
X60931424Y-163809341D01*
X60401173Y-163807700D01*
X59921794Y-163805855D01*
X59490690Y-163803797D01*
X59105260Y-163801513D01*
X58762905Y-163798994D01*
X58461025Y-163796228D01*
X58197021Y-163793204D01*
X57968293Y-163789911D01*
X57772242Y-163786340D01*
X57606269Y-163782478D01*
X57467773Y-163778314D01*
X57354156Y-163773839D01*
X57262818Y-163769041D01*
X57191159Y-163763910D01*
X57136580Y-163758433D01*
X57104635Y-163753987D01*
X56462660Y-163607568D01*
X55847725Y-163382621D01*
X55267025Y-163082838D01*
X54727756Y-162711913D01*
X54254606Y-162291209D01*
X53818021Y-161793248D01*
X53450753Y-161248954D01*
X53155894Y-160664691D01*
X52936538Y-160046820D01*
X52795778Y-159401705D01*
X52774386Y-159246410D01*
X52769952Y-159170144D01*
X52765759Y-159015413D01*
X52761806Y-158781882D01*
X52758092Y-158469219D01*
X52754615Y-158077088D01*
X52751376Y-157605156D01*
X52748374Y-157053089D01*
X52745606Y-156420552D01*
X52743073Y-155707212D01*
X52740774Y-154912735D01*
X52738707Y-154036787D01*
X52736872Y-153079033D01*
X52735267Y-152039139D01*
X52733893Y-150916772D01*
X52732747Y-149711598D01*
X52731830Y-148423282D01*
X52731139Y-147051490D01*
X52730675Y-145595889D01*
X52730436Y-144056144D01*
X52730400Y-143149160D01*
X52730400Y-127410633D01*
X54349322Y-127410633D01*
X54349322Y-127410633D01*
G37*
X54349322Y-127410633D02*
X54079611Y-127124660D01*
X53700486Y-126662968D01*
X53374654Y-126141249D01*
X53106827Y-125568817D01*
X52901720Y-124954988D01*
X52827071Y-124649035D01*
X52822987Y-124627796D01*
X52819053Y-124601591D01*
X52815266Y-124568859D01*
X52811622Y-124528039D01*
X52808120Y-124477568D01*
X52804757Y-124415886D01*
X52801529Y-124341432D01*
X52798435Y-124252643D01*
X52795470Y-124147959D01*
X52792633Y-124025819D01*
X52789920Y-123884661D01*
X52787329Y-123722923D01*
X52784857Y-123539045D01*
X52782502Y-123331465D01*
X52780259Y-123098621D01*
X52778128Y-122838953D01*
X52776104Y-122550899D01*
X52774185Y-122232897D01*
X52772369Y-121883387D01*
X52770652Y-121500807D01*
X52769032Y-121083596D01*
X52767506Y-120630192D01*
X52766070Y-120139034D01*
X52764724Y-119608561D01*
X52763462Y-119037211D01*
X52762284Y-118423424D01*
X52761185Y-117765637D01*
X52760164Y-117062289D01*
X52759217Y-116311819D01*
X52758342Y-115512666D01*
X52757536Y-114663269D01*
X52756795Y-113762065D01*
X52756118Y-112807494D01*
X52755501Y-111797995D01*
X52754943Y-110732005D01*
X52754439Y-109607964D01*
X52753987Y-108424311D01*
X52753584Y-107179483D01*
X52753228Y-105871920D01*
X52752916Y-104500061D01*
X52752644Y-103062344D01*
X52752411Y-101557207D01*
X52752213Y-99983089D01*
X52752048Y-98338430D01*
X52751913Y-96621667D01*
X52751805Y-94831240D01*
X52751721Y-92965587D01*
X52751658Y-91023146D01*
X52751614Y-89002357D01*
X52751586Y-86901658D01*
X52751571Y-84719487D01*
X52751567Y-82454284D01*
X52751567Y-82346800D01*
X52751570Y-80078571D01*
X52751583Y-77893445D01*
X52751607Y-75789860D01*
X52751646Y-73766251D01*
X52751703Y-71821055D01*
X52751780Y-69952710D01*
X52751880Y-68159651D01*
X52752007Y-66440316D01*
X52752162Y-64793141D01*
X52752349Y-63216562D01*
X52752571Y-61709017D01*
X52752830Y-60268942D01*
X52753130Y-58894774D01*
X52753473Y-57584949D01*
X52753861Y-56337904D01*
X52754299Y-55152076D01*
X52754788Y-54025902D01*
X52755332Y-52957817D01*
X52755934Y-51946260D01*
X52756595Y-50989666D01*
X52757320Y-50086472D01*
X52758111Y-49235115D01*
X52758970Y-48434031D01*
X52759901Y-47681658D01*
X52760907Y-46976432D01*
X52761990Y-46316789D01*
X52763153Y-45701166D01*
X52764399Y-45128000D01*
X52765731Y-44595728D01*
X52767152Y-44102786D01*
X52768664Y-43647611D01*
X52770271Y-43228639D01*
X52771975Y-42844308D01*
X52773779Y-42493053D01*
X52775687Y-42173313D01*
X52777700Y-41883522D01*
X52779821Y-41622119D01*
X52782054Y-41387539D01*
X52784402Y-41178219D01*
X52786867Y-40992597D01*
X52789452Y-40829108D01*
X52792159Y-40686189D01*
X52794993Y-40562278D01*
X52797955Y-40455810D01*
X52801048Y-40365222D01*
X52804276Y-40288952D01*
X52807641Y-40225435D01*
X52811146Y-40173108D01*
X52814794Y-40130409D01*
X52818587Y-40095773D01*
X52822529Y-40067638D01*
X52826623Y-40044440D01*
X52828635Y-40034633D01*
X53002760Y-39388047D01*
X53238184Y-38796050D01*
X53539174Y-38250649D01*
X53910003Y-37743853D01*
X54254400Y-37366272D01*
X54756693Y-36919832D01*
X55299349Y-36547794D01*
X55881754Y-36250470D01*
X56503291Y-36028175D01*
X57163344Y-35881221D01*
X57179409Y-35878661D01*
X57225125Y-35873446D01*
X57295805Y-35868548D01*
X57393874Y-35863957D01*
X57521757Y-35859665D01*
X57681879Y-35855663D01*
X57876665Y-35851941D01*
X58108540Y-35848490D01*
X58379928Y-35845302D01*
X58693255Y-35842368D01*
X59050945Y-35839677D01*
X59455424Y-35837222D01*
X59909116Y-35834993D01*
X60414446Y-35832981D01*
X60973839Y-35831177D01*
X61589720Y-35829572D01*
X62264514Y-35828158D01*
X63000646Y-35826924D01*
X63800540Y-35825862D01*
X64666621Y-35824964D01*
X65601315Y-35824219D01*
X66607046Y-35823618D01*
X67686240Y-35823154D01*
X68841320Y-35822816D01*
X70074712Y-35822596D01*
X71388841Y-35822485D01*
X72246067Y-35822466D01*
X73573949Y-35822481D01*
X74819848Y-35822533D01*
X75986447Y-35822637D01*
X77076432Y-35822806D01*
X78092485Y-35823053D01*
X79037291Y-35823393D01*
X79913532Y-35823837D01*
X80723894Y-35824401D01*
X81471059Y-35825096D01*
X82157711Y-35825938D01*
X82786535Y-35826939D01*
X83360214Y-35828113D01*
X83881432Y-35829473D01*
X84352873Y-35831033D01*
X84777220Y-35832806D01*
X85157157Y-35834806D01*
X85495369Y-35837046D01*
X85794538Y-35839540D01*
X86057349Y-35842302D01*
X86286485Y-35845344D01*
X86484631Y-35848680D01*
X86654470Y-35852324D01*
X86798685Y-35856289D01*
X86919961Y-35860589D01*
X87020982Y-35865236D01*
X87104431Y-35870246D01*
X87172992Y-35875631D01*
X87229348Y-35881404D01*
X87276185Y-35887579D01*
X87316185Y-35894170D01*
X87337900Y-35898306D01*
X88013362Y-36072370D01*
X88641908Y-36315751D01*
X89221715Y-36627244D01*
X89750958Y-37005640D01*
X90227811Y-37449733D01*
X90650450Y-37958314D01*
X90817823Y-38200761D01*
X91121880Y-38733465D01*
X91354697Y-39292665D01*
X91519477Y-39888246D01*
X91619425Y-40530092D01*
X91636814Y-40727291D01*
X91639521Y-40798912D01*
X91642113Y-40939532D01*
X91644592Y-41149636D01*
X91646959Y-41429710D01*
X91649212Y-41780240D01*
X91651354Y-42201712D01*
X91653383Y-42694612D01*
X91655301Y-43259427D01*
X91657107Y-43896641D01*
X91658803Y-44606742D01*
X91660388Y-45390214D01*
X91661863Y-46247545D01*
X91663228Y-47179219D01*
X91664484Y-48185724D01*
X91665630Y-49267545D01*
X91666668Y-50425167D01*
X91667598Y-51659078D01*
X91668419Y-52969763D01*
X91669133Y-54357708D01*
X91669740Y-55823398D01*
X91670240Y-57367321D01*
X91670633Y-58989962D01*
X91670920Y-60691806D01*
X91671101Y-62473341D01*
X91671176Y-64335051D01*
X91671147Y-66277424D01*
X91671012Y-68300944D01*
X91670774Y-70406099D01*
X91670431Y-72593373D01*
X91669984Y-74863253D01*
X91669434Y-77216225D01*
X91668781Y-79652775D01*
X91668026Y-82173389D01*
X91667829Y-82791300D01*
X91654485Y-124256800D01*
X91559126Y-124669291D01*
X91368976Y-125332989D01*
X91117162Y-125941321D01*
X90800872Y-126499791D01*
X90417291Y-127013903D01*
X90282268Y-127167332D01*
X90061635Y-127408740D01*
X90858767Y-127420270D01*
X91655900Y-127431800D01*
X91660354Y-143031633D01*
X91660594Y-144180113D01*
X91660655Y-145308810D01*
X91660544Y-146414670D01*
X91660266Y-147494637D01*
X91659826Y-148545658D01*
X91659229Y-149564676D01*
X91658481Y-150548638D01*
X91657587Y-151494489D01*
X91656553Y-152399173D01*
X91655383Y-153259637D01*
X91654084Y-154072825D01*
X91652661Y-154835683D01*
X91651119Y-155545155D01*
X91649463Y-156198187D01*
X91647699Y-156791725D01*
X91645833Y-157322713D01*
X91643868Y-157788096D01*
X91641812Y-158184821D01*
X91639670Y-158509832D01*
X91637445Y-158760074D01*
X91635145Y-158932492D01*
X91632775Y-159024032D01*
X91632196Y-159033633D01*
X91538396Y-159687103D01*
X91368143Y-160310963D01*
X91125977Y-160900268D01*
X90816439Y-161450068D01*
X90444070Y-161955419D01*
X90013412Y-162411371D01*
X89529005Y-162812980D01*
X88995391Y-163155297D01*
X88417110Y-163433375D01*
X87798705Y-163642268D01*
X87300605Y-163752415D01*
X87259644Y-163758320D01*
X87205594Y-163763861D01*
X87135832Y-163769050D01*
X87047736Y-163773898D01*
X86938684Y-163778415D01*
X86806054Y-163782615D01*
X86647224Y-163786506D01*
X86459571Y-163790102D01*
X86240474Y-163793412D01*
X85987310Y-163796449D01*
X85697457Y-163799224D01*
X85368294Y-163801747D01*
X84997197Y-163804030D01*
X84581545Y-163806085D01*
X84118716Y-163807922D01*
X83606088Y-163809553D01*
X83041038Y-163810989D01*
X82420944Y-163812241D01*
X81743185Y-163813321D01*
X81005138Y-163814240D01*
X80204180Y-163815008D01*
X79337691Y-163815638D01*
X78403047Y-163816140D01*
X77397627Y-163816526D01*
X76318808Y-163816807D01*
X75163969Y-163816994D01*
X73930487Y-163817099D01*
X72615740Y-163817132D01*
X72208772Y-163817130D01*
X70865281Y-163817081D01*
X69603857Y-163816959D01*
X68421900Y-163816753D01*
X67316812Y-163816453D01*
X66285993Y-163816048D01*
X65326843Y-163815525D01*
X64436763Y-163814876D01*
X64166492Y-163814618D01*
X64166492Y-158652633D01*
X79897468Y-158652633D01*
X79927813Y-158304760D01*
X80022616Y-157693464D01*
X80197999Y-157084980D01*
X80450044Y-156487503D01*
X80774837Y-155909230D01*
X81168461Y-155358358D01*
X81537687Y-154935109D01*
X82111038Y-154392161D01*
X82730203Y-153918147D01*
X83390079Y-153515402D01*
X84085565Y-153186260D01*
X84811560Y-152933057D01*
X85562963Y-152758127D01*
X86334672Y-152663804D01*
X86522984Y-152653394D01*
X87105067Y-152628736D01*
X87105067Y-129796454D01*
X84385150Y-128465960D01*
X81665234Y-127135466D01*
X72023344Y-127124611D01*
X67912728Y-127119984D01*
X67912728Y-126006083D01*
X68766754Y-126005836D01*
X69696542Y-126005299D01*
X70704864Y-126004484D01*
X71794492Y-126003404D01*
X72036955Y-126003141D01*
X81749900Y-125992466D01*
X81779862Y-125590300D01*
X81871803Y-124914507D01*
X82042857Y-124258555D01*
X82288733Y-123627708D01*
X82605143Y-123027231D01*
X82987796Y-122462386D01*
X83432402Y-121938439D01*
X83934671Y-121460654D01*
X84490314Y-121034296D01*
X85095041Y-120664627D01*
X85744562Y-120356913D01*
X86174643Y-120197295D01*
X86627239Y-120059675D01*
X87053304Y-119960588D01*
X87485028Y-119894319D01*
X87954601Y-119855151D01*
X88152817Y-119846066D01*
X88840734Y-119820440D01*
X88840638Y-82541620D01*
X88840543Y-45262800D01*
X88278753Y-45253141D01*
X87509565Y-45198748D01*
X86761779Y-45062458D01*
X86035752Y-44844382D01*
X85331841Y-44544633D01*
X84650405Y-44163323D01*
X84503197Y-44068274D01*
X84180678Y-43831022D01*
X83840011Y-43538613D01*
X83501476Y-43211332D01*
X83185356Y-42869464D01*
X82911932Y-42533294D01*
X82774603Y-42339434D01*
X82431031Y-41765822D01*
X82165233Y-41196092D01*
X81972391Y-40615490D01*
X81847689Y-40009261D01*
X81786311Y-39362650D01*
X81783821Y-39304383D01*
X81759563Y-38679966D01*
X62267829Y-38679966D01*
X62287390Y-38883550D01*
X62291123Y-39012467D01*
X62285521Y-39196948D01*
X62271805Y-39408553D01*
X62258790Y-39550300D01*
X62143240Y-40271949D01*
X61950428Y-40959927D01*
X61680881Y-41612874D01*
X61335126Y-42229426D01*
X61080810Y-42595355D01*
X60608564Y-43154703D01*
X60074970Y-43658577D01*
X59486822Y-44101756D01*
X58850913Y-44479017D01*
X58294026Y-44737393D01*
X57921078Y-44878242D01*
X57547020Y-44993747D01*
X57154511Y-45087603D01*
X56726215Y-45163504D01*
X56244791Y-45225146D01*
X55810150Y-45266640D01*
X55524400Y-45290705D01*
X55524400Y-119901794D01*
X56106484Y-119952509D01*
X56779423Y-120034890D01*
X57397581Y-120162368D01*
X57980905Y-120340236D01*
X58549341Y-120573787D01*
X58678234Y-120635042D01*
X59322028Y-120992226D01*
X59914596Y-121410120D01*
X60451363Y-121883573D01*
X60927753Y-122407430D01*
X61339193Y-122976540D01*
X61681107Y-123585749D01*
X61948923Y-124229905D01*
X61996503Y-124372843D01*
X62085219Y-124681522D01*
X62160093Y-125000596D01*
X62216387Y-125305613D01*
X62249364Y-125572124D01*
X62256048Y-125712262D01*
X62263360Y-125841570D01*
X62281028Y-125938521D01*
X62290353Y-125960808D01*
X62309120Y-125966834D01*
X62359303Y-125972378D01*
X62443675Y-125977451D01*
X62565007Y-125982066D01*
X62726070Y-125986235D01*
X62929637Y-125989970D01*
X63178478Y-125993282D01*
X63475366Y-125996185D01*
X63823072Y-125998689D01*
X64224367Y-126000807D01*
X64682024Y-126002551D01*
X65198813Y-126003934D01*
X65777506Y-126004966D01*
X66420875Y-126005660D01*
X67131692Y-126006028D01*
X67912728Y-126006083D01*
X67912728Y-127119984D01*
X62381455Y-127113756D01*
X57302507Y-129929466D01*
X57302454Y-141324105D01*
X57302400Y-152718743D01*
X57630484Y-152746178D01*
X58451903Y-152854160D01*
X59235418Y-153037754D01*
X59981958Y-153297339D01*
X60692454Y-153633293D01*
X61367836Y-154045994D01*
X61985470Y-154515950D01*
X62517354Y-155014233D01*
X62979785Y-155555614D01*
X63370424Y-156135865D01*
X63686933Y-156750757D01*
X63926973Y-157396060D01*
X64088206Y-158067547D01*
X64138242Y-158409216D01*
X64166492Y-158652633D01*
X64166492Y-163814618D01*
X63613152Y-163814089D01*
X62853413Y-163813152D01*
X62154945Y-163812056D01*
X61515148Y-163810789D01*
X60931424Y-163809341D01*
X60401173Y-163807700D01*
X59921794Y-163805855D01*
X59490690Y-163803797D01*
X59105260Y-163801513D01*
X58762905Y-163798994D01*
X58461025Y-163796228D01*
X58197021Y-163793204D01*
X57968293Y-163789911D01*
X57772242Y-163786340D01*
X57606269Y-163782478D01*
X57467773Y-163778314D01*
X57354156Y-163773839D01*
X57262818Y-163769041D01*
X57191159Y-163763910D01*
X57136580Y-163758433D01*
X57104635Y-163753987D01*
X56462660Y-163607568D01*
X55847725Y-163382621D01*
X55267025Y-163082838D01*
X54727756Y-162711913D01*
X54254606Y-162291209D01*
X53818021Y-161793248D01*
X53450753Y-161248954D01*
X53155894Y-160664691D01*
X52936538Y-160046820D01*
X52795778Y-159401705D01*
X52774386Y-159246410D01*
X52769952Y-159170144D01*
X52765759Y-159015413D01*
X52761806Y-158781882D01*
X52758092Y-158469219D01*
X52754615Y-158077088D01*
X52751376Y-157605156D01*
X52748374Y-157053089D01*
X52745606Y-156420552D01*
X52743073Y-155707212D01*
X52740774Y-154912735D01*
X52738707Y-154036787D01*
X52736872Y-153079033D01*
X52735267Y-152039139D01*
X52733893Y-150916772D01*
X52732747Y-149711598D01*
X52731830Y-148423282D01*
X52731139Y-147051490D01*
X52730675Y-145595889D01*
X52730436Y-144056144D01*
X52730400Y-143149160D01*
X52730400Y-127410633D01*
X54349322Y-127410633D01*
G36*
X57058984Y-46073725D02*
X57777654Y-45993527D01*
X58477856Y-45831083D01*
X59156639Y-45587377D01*
X59811055Y-45263397D01*
X60202234Y-45023327D01*
X60450679Y-44839420D01*
X60727314Y-44601840D01*
X61014733Y-44328254D01*
X61295528Y-44036328D01*
X61552293Y-43743730D01*
X61767622Y-43468126D01*
X61845855Y-43355127D01*
X62204621Y-42740002D01*
X62480790Y-42107786D01*
X62675209Y-41455741D01*
X62788721Y-40781134D01*
X62822179Y-40193389D01*
X62826900Y-39653645D01*
X81241900Y-39653705D01*
X81247002Y-40235752D01*
X81293939Y-40916955D01*
X81419915Y-41577329D01*
X81620827Y-42212025D01*
X81892569Y-42816194D01*
X82231038Y-43384988D01*
X82632127Y-43913559D01*
X83091733Y-44397058D01*
X83605751Y-44830636D01*
X84170075Y-45209446D01*
X84780602Y-45528638D01*
X85433227Y-45783365D01*
X86095445Y-45962731D01*
X86304360Y-45999327D01*
X86565957Y-46032734D01*
X86848250Y-46059357D01*
X87088875Y-46074343D01*
X87686516Y-46100786D01*
X87773449Y-45851126D01*
X87860383Y-45601466D01*
X87863643Y-82304466D01*
X87866902Y-119007466D01*
X87242568Y-119010445D01*
X86527943Y-119055164D01*
X85833773Y-119181185D01*
X85164582Y-119386659D01*
X84524893Y-119669733D01*
X83919231Y-120028556D01*
X83352118Y-120461277D01*
X83071205Y-120717545D01*
X82578637Y-121245734D01*
X82165606Y-121800651D01*
X81829978Y-122386706D01*
X81569620Y-123008308D01*
X81382395Y-123669865D01*
X81266171Y-124375788D01*
X81256662Y-124466018D01*
X81203928Y-124997633D01*
X72030527Y-124997633D01*
X70987145Y-124997594D01*
X70025158Y-124997461D01*
X69141295Y-124997211D01*
X68332283Y-124996819D01*
X67594850Y-124996261D01*
X66925726Y-124995515D01*
X66321639Y-124994555D01*
X65779316Y-124993359D01*
X65295486Y-124991902D01*
X64866878Y-124990161D01*
X64490219Y-124988111D01*
X64162238Y-124985730D01*
X63879663Y-124982992D01*
X63639223Y-124979875D01*
X63437645Y-124976355D01*
X63271659Y-124972407D01*
X63137992Y-124968008D01*
X63033373Y-124963134D01*
X63032643Y-124963085D01*
X63032643Y-124785966D01*
X81051400Y-124785966D01*
X81051400Y-124558678D01*
X81063534Y-124349530D01*
X81096839Y-124087047D01*
X81146673Y-123798531D01*
X81208395Y-123511283D01*
X81268302Y-123283133D01*
X81503249Y-122625499D01*
X81810512Y-122004767D01*
X82184200Y-121425402D01*
X82618420Y-120891870D01*
X83107282Y-120408639D01*
X83644894Y-119980174D01*
X84225364Y-119610941D01*
X84842800Y-119305407D01*
X85491312Y-119068037D01*
X86165008Y-118903298D01*
X86857996Y-118815656D01*
X87178894Y-118802498D01*
X87654889Y-118795800D01*
X87655144Y-82547883D01*
X87655400Y-46299966D01*
X87378565Y-46299966D01*
X87206700Y-46295037D01*
X86989195Y-46281902D01*
X86764399Y-46263039D01*
X86690648Y-46255495D01*
X85978430Y-46138752D01*
X85296554Y-45948647D01*
X84649365Y-45689767D01*
X84041212Y-45366697D01*
X83476441Y-44984025D01*
X82959400Y-44546335D01*
X82494434Y-44058215D01*
X82085893Y-43524251D01*
X81738121Y-42949028D01*
X81455467Y-42337134D01*
X81242277Y-41693153D01*
X81102899Y-41021673D01*
X81041679Y-40327280D01*
X81040812Y-40294778D01*
X81030530Y-39865300D01*
X63017400Y-39865300D01*
X63017230Y-40278050D01*
X62975385Y-40929620D01*
X62853208Y-41577157D01*
X62654935Y-42212471D01*
X62384797Y-42827374D01*
X62047028Y-43413679D01*
X61645863Y-43963197D01*
X61185535Y-44467740D01*
X60670277Y-44919119D01*
X60583234Y-44985699D01*
X59981268Y-45391782D01*
X59359503Y-45719607D01*
X58710079Y-45972097D01*
X58025137Y-46152173D01*
X57296818Y-46262758D01*
X57101292Y-46280339D01*
X56709684Y-46310891D01*
X56720292Y-82595679D01*
X56730900Y-118880466D01*
X57151541Y-118910435D01*
X57865099Y-119001175D01*
X58552300Y-119167108D01*
X59208386Y-119403797D01*
X59828602Y-119706803D01*
X60408190Y-120071688D01*
X60942393Y-120494014D01*
X61426455Y-120969342D01*
X61855617Y-121493234D01*
X62225124Y-122061252D01*
X62530219Y-122668958D01*
X62766143Y-123311912D01*
X62928141Y-123985678D01*
X62982002Y-124350311D01*
X63032643Y-124785966D01*
X63032643Y-124963085D01*
X62954530Y-124957762D01*
X62898191Y-124951867D01*
X62861085Y-124945425D01*
X62839939Y-124938413D01*
X62831483Y-124930808D01*
X62831429Y-124930671D01*
X62816787Y-124851741D01*
X62807482Y-124723217D01*
X62805734Y-124636487D01*
X62784511Y-124330528D01*
X62724696Y-123973676D01*
X62632064Y-123587145D01*
X62512391Y-123192151D01*
X62371454Y-122809910D01*
X62215028Y-122461636D01*
X62211889Y-122455377D01*
X61918805Y-121945228D01*
X61562444Y-121446139D01*
X61159947Y-120978857D01*
X60728452Y-120564124D01*
X60486583Y-120367159D01*
X59897265Y-119970800D01*
X59265175Y-119644536D01*
X58599502Y-119391617D01*
X57909436Y-119215290D01*
X57204166Y-119118804D01*
X56910934Y-119103024D01*
X56540635Y-119092133D01*
X56540518Y-82596749D01*
X56540400Y-46101366D01*
X57058984Y-46073725D01*
X57058984Y-46073725D01*
G37*
X57058984Y-46073725D02*
X57777654Y-45993527D01*
X58477856Y-45831083D01*
X59156639Y-45587377D01*
X59811055Y-45263397D01*
X60202234Y-45023327D01*
X60450679Y-44839420D01*
X60727314Y-44601840D01*
X61014733Y-44328254D01*
X61295528Y-44036328D01*
X61552293Y-43743730D01*
X61767622Y-43468126D01*
X61845855Y-43355127D01*
X62204621Y-42740002D01*
X62480790Y-42107786D01*
X62675209Y-41455741D01*
X62788721Y-40781134D01*
X62822179Y-40193389D01*
X62826900Y-39653645D01*
X81241900Y-39653705D01*
X81247002Y-40235752D01*
X81293939Y-40916955D01*
X81419915Y-41577329D01*
X81620827Y-42212025D01*
X81892569Y-42816194D01*
X82231038Y-43384988D01*
X82632127Y-43913559D01*
X83091733Y-44397058D01*
X83605751Y-44830636D01*
X84170075Y-45209446D01*
X84780602Y-45528638D01*
X85433227Y-45783365D01*
X86095445Y-45962731D01*
X86304360Y-45999327D01*
X86565957Y-46032734D01*
X86848250Y-46059357D01*
X87088875Y-46074343D01*
X87686516Y-46100786D01*
X87773449Y-45851126D01*
X87860383Y-45601466D01*
X87863643Y-82304466D01*
X87866902Y-119007466D01*
X87242568Y-119010445D01*
X86527943Y-119055164D01*
X85833773Y-119181185D01*
X85164582Y-119386659D01*
X84524893Y-119669733D01*
X83919231Y-120028556D01*
X83352118Y-120461277D01*
X83071205Y-120717545D01*
X82578637Y-121245734D01*
X82165606Y-121800651D01*
X81829978Y-122386706D01*
X81569620Y-123008308D01*
X81382395Y-123669865D01*
X81266171Y-124375788D01*
X81256662Y-124466018D01*
X81203928Y-124997633D01*
X72030527Y-124997633D01*
X70987145Y-124997594D01*
X70025158Y-124997461D01*
X69141295Y-124997211D01*
X68332283Y-124996819D01*
X67594850Y-124996261D01*
X66925726Y-124995515D01*
X66321639Y-124994555D01*
X65779316Y-124993359D01*
X65295486Y-124991902D01*
X64866878Y-124990161D01*
X64490219Y-124988111D01*
X64162238Y-124985730D01*
X63879663Y-124982992D01*
X63639223Y-124979875D01*
X63437645Y-124976355D01*
X63271659Y-124972407D01*
X63137992Y-124968008D01*
X63033373Y-124963134D01*
X63032643Y-124963085D01*
X63032643Y-124785966D01*
X81051400Y-124785966D01*
X81051400Y-124558678D01*
X81063534Y-124349530D01*
X81096839Y-124087047D01*
X81146673Y-123798531D01*
X81208395Y-123511283D01*
X81268302Y-123283133D01*
X81503249Y-122625499D01*
X81810512Y-122004767D01*
X82184200Y-121425402D01*
X82618420Y-120891870D01*
X83107282Y-120408639D01*
X83644894Y-119980174D01*
X84225364Y-119610941D01*
X84842800Y-119305407D01*
X85491312Y-119068037D01*
X86165008Y-118903298D01*
X86857996Y-118815656D01*
X87178894Y-118802498D01*
X87654889Y-118795800D01*
X87655144Y-82547883D01*
X87655400Y-46299966D01*
X87378565Y-46299966D01*
X87206700Y-46295037D01*
X86989195Y-46281902D01*
X86764399Y-46263039D01*
X86690648Y-46255495D01*
X85978430Y-46138752D01*
X85296554Y-45948647D01*
X84649365Y-45689767D01*
X84041212Y-45366697D01*
X83476441Y-44984025D01*
X82959400Y-44546335D01*
X82494434Y-44058215D01*
X82085893Y-43524251D01*
X81738121Y-42949028D01*
X81455467Y-42337134D01*
X81242277Y-41693153D01*
X81102899Y-41021673D01*
X81041679Y-40327280D01*
X81040812Y-40294778D01*
X81030530Y-39865300D01*
X63017400Y-39865300D01*
X63017230Y-40278050D01*
X62975385Y-40929620D01*
X62853208Y-41577157D01*
X62654935Y-42212471D01*
X62384797Y-42827374D01*
X62047028Y-43413679D01*
X61645863Y-43963197D01*
X61185535Y-44467740D01*
X60670277Y-44919119D01*
X60583234Y-44985699D01*
X59981268Y-45391782D01*
X59359503Y-45719607D01*
X58710079Y-45972097D01*
X58025137Y-46152173D01*
X57296818Y-46262758D01*
X57101292Y-46280339D01*
X56709684Y-46310891D01*
X56720292Y-82595679D01*
X56730900Y-118880466D01*
X57151541Y-118910435D01*
X57865099Y-119001175D01*
X58552300Y-119167108D01*
X59208386Y-119403797D01*
X59828602Y-119706803D01*
X60408190Y-120071688D01*
X60942393Y-120494014D01*
X61426455Y-120969342D01*
X61855617Y-121493234D01*
X62225124Y-122061252D01*
X62530219Y-122668958D01*
X62766143Y-123311912D01*
X62928141Y-123985678D01*
X62982002Y-124350311D01*
X63032643Y-124785966D01*
X63032643Y-124963085D01*
X62954530Y-124957762D01*
X62898191Y-124951867D01*
X62861085Y-124945425D01*
X62839939Y-124938413D01*
X62831483Y-124930808D01*
X62831429Y-124930671D01*
X62816787Y-124851741D01*
X62807482Y-124723217D01*
X62805734Y-124636487D01*
X62784511Y-124330528D01*
X62724696Y-123973676D01*
X62632064Y-123587145D01*
X62512391Y-123192151D01*
X62371454Y-122809910D01*
X62215028Y-122461636D01*
X62211889Y-122455377D01*
X61918805Y-121945228D01*
X61562444Y-121446139D01*
X61159947Y-120978857D01*
X60728452Y-120564124D01*
X60486583Y-120367159D01*
X59897265Y-119970800D01*
X59265175Y-119644536D01*
X58599502Y-119391617D01*
X57909436Y-119215290D01*
X57204166Y-119118804D01*
X56910934Y-119103024D01*
X56540635Y-119092133D01*
X56540518Y-82596749D01*
X56540400Y-46101366D01*
X57058984Y-46073725D01*
D11*
X80014268Y-49697218D02*
G75*
G02X85538700Y-49696200I2762432J-1171982D01*
G01*
X85074453Y-52797495D02*
G75*
G02X80478700Y-52797200I-2297753J1928295D01*
G01*
X77815700Y-57429200D02*
X77815700Y-53563200D01*
X77815700Y-49174200D02*
X77815700Y-45309200D01*
X87736700Y-57429200D02*
X87736700Y-53563200D01*
X87736700Y-49174200D02*
X87736700Y-45309200D01*
X77815700Y-57429200D02*
X79451700Y-57429200D01*
X81101700Y-57429200D02*
X81951700Y-57429200D01*
X83601700Y-57429200D02*
X84451700Y-57429200D01*
X86101700Y-57429200D02*
X87736700Y-57429200D01*
X77815700Y-45309200D02*
X87736700Y-45309200D01*
X69447882Y-74542554D02*
G75*
G02X74696300Y-74541800I2624418J-1454246D01*
G01*
X74696400Y-77452424D02*
G75*
G02X69447300Y-77450800I-2624100J1455624D01*
G01*
X65962300Y-82556800D02*
X65962300Y-77898800D01*
X65962300Y-74093800D02*
X65962300Y-71086800D01*
X78182300Y-82556800D02*
X78182300Y-77898800D01*
X78182300Y-74093800D02*
X78182300Y-71086800D01*
X65962300Y-82556800D02*
X68747300Y-82556800D01*
X70397300Y-82556800D02*
X71247300Y-82556800D01*
X72897300Y-82556800D02*
X73747300Y-82556800D01*
X75397300Y-82556800D02*
X78182300Y-82556800D01*
X65962300Y-71086800D02*
X78182300Y-71086800D01*
X58847168Y-49849618D02*
G75*
G02X64371600Y-49848600I2762432J-1171982D01*
G01*
X63907353Y-52949895D02*
G75*
G02X59311600Y-52949600I-2297753J1928295D01*
G01*
X56648600Y-57581600D02*
X56648600Y-53715600D01*
X56648600Y-49326600D02*
X56648600Y-45461600D01*
X66569600Y-57581600D02*
X66569600Y-53715600D01*
X66569600Y-49326600D02*
X66569600Y-45461600D01*
X56648600Y-57581600D02*
X58284600Y-57581600D01*
X59934600Y-57581600D02*
X60784600Y-57581600D01*
X62434600Y-57581600D02*
X63284600Y-57581600D01*
X64934600Y-57581600D02*
X66569600Y-57581600D01*
X56648600Y-45461600D02*
X66569600Y-45461600D01*
X73066400Y-88382500D02*
X71066400Y-88382500D01*
X71066400Y-86242500D02*
X73066400Y-86242500D01*
D20*
X83264477Y-137875581D02*
X83264477Y-138589867D01*
X83216857Y-138732724D01*
X83121619Y-138827962D01*
X82978762Y-138875581D01*
X82883524Y-138875581D01*
X84264477Y-138875581D02*
X83693048Y-138875581D01*
X83978762Y-138875581D02*
X83978762Y-137875581D01*
X83883524Y-138018438D01*
X83788286Y-138113676D01*
X83693048Y-138161295D01*
X84645429Y-137970819D02*
X84693048Y-137923200D01*
X84788286Y-137875581D01*
X85026382Y-137875581D01*
X85121620Y-137923200D01*
X85169239Y-137970819D01*
X85216858Y-138066057D01*
X85216858Y-138161295D01*
X85169239Y-138304152D01*
X84597810Y-138875581D01*
X85216858Y-138875581D01*
X86717143Y-138227962D02*
X86764762Y-138275581D01*
X86812381Y-138418438D01*
X86812381Y-138513676D01*
X86764762Y-138656534D01*
X86669524Y-138751772D01*
X86574286Y-138799391D01*
X86383810Y-138847010D01*
X86240952Y-138847010D01*
X86050476Y-138799391D01*
X85955238Y-138751772D01*
X85860000Y-138656534D01*
X85812381Y-138513676D01*
X85812381Y-138418438D01*
X85860000Y-138275581D01*
X85907619Y-138227962D01*
X86812381Y-137656534D02*
X86764762Y-137751772D01*
X86717143Y-137799391D01*
X86621905Y-137847010D01*
X86336190Y-137847010D01*
X86240952Y-137799391D01*
X86193333Y-137751772D01*
X86145714Y-137656534D01*
X86145714Y-137513676D01*
X86193333Y-137418438D01*
X86240952Y-137370819D01*
X86336190Y-137323200D01*
X86621905Y-137323200D01*
X86717143Y-137370819D01*
X86764762Y-137418438D01*
X86812381Y-137513676D01*
X86812381Y-137656534D01*
X86145714Y-136894629D02*
X86812381Y-136894629D01*
X86240952Y-136894629D02*
X86193333Y-136847010D01*
X86145714Y-136751772D01*
X86145714Y-136608914D01*
X86193333Y-136513676D01*
X86288571Y-136466057D01*
X86812381Y-136466057D01*
X86907619Y-136227962D02*
X86907619Y-135466057D01*
X85812381Y-134942247D02*
X86526667Y-134942247D01*
X86669524Y-134989867D01*
X86764762Y-135085105D01*
X86812381Y-135227962D01*
X86812381Y-135323200D01*
X86812381Y-134037485D02*
X86288571Y-134037485D01*
X86193333Y-134085104D01*
X86145714Y-134180342D01*
X86145714Y-134370819D01*
X86193333Y-134466057D01*
X86764762Y-134037485D02*
X86812381Y-134132723D01*
X86812381Y-134370819D01*
X86764762Y-134466057D01*
X86669524Y-134513676D01*
X86574286Y-134513676D01*
X86479048Y-134466057D01*
X86431429Y-134370819D01*
X86431429Y-134132723D01*
X86383810Y-134037485D01*
X86764762Y-133132723D02*
X86812381Y-133227961D01*
X86812381Y-133418438D01*
X86764762Y-133513676D01*
X86717143Y-133561295D01*
X86621905Y-133608914D01*
X86336190Y-133608914D01*
X86240952Y-133561295D01*
X86193333Y-133513676D01*
X86145714Y-133418438D01*
X86145714Y-133227961D01*
X86193333Y-133132723D01*
X86812381Y-132704152D02*
X85812381Y-132704152D01*
X86431429Y-132608914D02*
X86812381Y-132323199D01*
X86145714Y-132323199D02*
X86526667Y-132704152D01*
X86812381Y-131894628D02*
X85812381Y-131894628D01*
X86812381Y-131418438D02*
X85812381Y-131418438D01*
X86812381Y-130847009D01*
X85812381Y-130847009D01*
X66384481Y-20819533D02*
X67098767Y-20819533D01*
X67241624Y-20867153D01*
X67336862Y-20962391D01*
X67384481Y-21105248D01*
X67384481Y-21200486D01*
X67384481Y-20295724D02*
X67384481Y-20105248D01*
X67336862Y-20010009D01*
X67289243Y-19962390D01*
X67146386Y-19867152D01*
X66955910Y-19819533D01*
X66574957Y-19819533D01*
X66479719Y-19867152D01*
X66432100Y-19914771D01*
X66384481Y-20010009D01*
X66384481Y-20200486D01*
X66432100Y-20295724D01*
X66479719Y-20343343D01*
X66574957Y-20390962D01*
X66813052Y-20390962D01*
X66908290Y-20343343D01*
X66955910Y-20295724D01*
X67003529Y-20200486D01*
X67003529Y-20010009D01*
X66955910Y-19914771D01*
X66908290Y-19867152D01*
X66813052Y-19819533D01*
X81703481Y-130743223D02*
X82417767Y-130743223D01*
X82560624Y-130790843D01*
X82655862Y-130886081D01*
X82703481Y-131028938D01*
X82703481Y-131124176D01*
X82703481Y-129743223D02*
X82703481Y-130314652D01*
X82703481Y-130028938D02*
X81703481Y-130028938D01*
X81846338Y-130124176D01*
X81941576Y-130219414D01*
X81989195Y-130314652D01*
X81703481Y-128838461D02*
X81703481Y-129314652D01*
X82179671Y-129362271D01*
X82132052Y-129314652D01*
X82084433Y-129219414D01*
X82084433Y-128981318D01*
X82132052Y-128886080D01*
X82179671Y-128838461D01*
X82274910Y-128790842D01*
X82513005Y-128790842D01*
X82608243Y-128838461D01*
X82655862Y-128886080D01*
X82703481Y-128981318D01*
X82703481Y-129219414D01*
X82655862Y-129314652D01*
X82608243Y-129362271D01*
X76674910Y-128004843D02*
X76627291Y-128052462D01*
X76484434Y-128100081D01*
X76389196Y-128100081D01*
X76246338Y-128052462D01*
X76151100Y-127957224D01*
X76103481Y-127861986D01*
X76055862Y-127671510D01*
X76055862Y-127528652D01*
X76103481Y-127338176D01*
X76151100Y-127242938D01*
X76246338Y-127147700D01*
X76389196Y-127100081D01*
X76484434Y-127100081D01*
X76627291Y-127147700D01*
X76674910Y-127195319D01*
X77246338Y-128100081D02*
X77151100Y-128052462D01*
X77103481Y-128004843D01*
X77055862Y-127909605D01*
X77055862Y-127623890D01*
X77103481Y-127528652D01*
X77151100Y-127481033D01*
X77246338Y-127433414D01*
X77389196Y-127433414D01*
X77484434Y-127481033D01*
X77532053Y-127528652D01*
X77579672Y-127623890D01*
X77579672Y-127909605D01*
X77532053Y-128004843D01*
X77484434Y-128052462D01*
X77389196Y-128100081D01*
X77246338Y-128100081D01*
X78008243Y-127433414D02*
X78008243Y-128100081D01*
X78008243Y-127528652D02*
X78055862Y-127481033D01*
X78151100Y-127433414D01*
X78293958Y-127433414D01*
X78389196Y-127481033D01*
X78436815Y-127576271D01*
X78436815Y-128100081D01*
X78674910Y-128195319D02*
X79436815Y-128195319D01*
X79674910Y-128100081D02*
X79674910Y-127100081D01*
X79913005Y-127100081D01*
X80055863Y-127147700D01*
X80151101Y-127242938D01*
X80198720Y-127338176D01*
X80246339Y-127528652D01*
X80246339Y-127671510D01*
X80198720Y-127861986D01*
X80151101Y-127957224D01*
X80055863Y-128052462D01*
X79913005Y-128100081D01*
X79674910Y-128100081D01*
X81246339Y-128004843D02*
X81198720Y-128052462D01*
X81055863Y-128100081D01*
X80960625Y-128100081D01*
X80817767Y-128052462D01*
X80722529Y-127957224D01*
X80674910Y-127861986D01*
X80627291Y-127671510D01*
X80627291Y-127528652D01*
X80674910Y-127338176D01*
X80722529Y-127242938D01*
X80817767Y-127147700D01*
X80960625Y-127100081D01*
X81055863Y-127100081D01*
X81198720Y-127147700D01*
X81246339Y-127195319D01*
X85291667Y-72158081D02*
X85291667Y-72872367D01*
X85244047Y-73015224D01*
X85148809Y-73110462D01*
X85005952Y-73158081D01*
X84910714Y-73158081D01*
X85910714Y-72586652D02*
X85815476Y-72539033D01*
X85767857Y-72491414D01*
X85720238Y-72396176D01*
X85720238Y-72348557D01*
X85767857Y-72253319D01*
X85815476Y-72205700D01*
X85910714Y-72158081D01*
X86101191Y-72158081D01*
X86196429Y-72205700D01*
X86244048Y-72253319D01*
X86291667Y-72348557D01*
X86291667Y-72396176D01*
X86244048Y-72491414D01*
X86196429Y-72539033D01*
X86101191Y-72586652D01*
X85910714Y-72586652D01*
X85815476Y-72634271D01*
X85767857Y-72681890D01*
X85720238Y-72777129D01*
X85720238Y-72967605D01*
X85767857Y-73062843D01*
X85815476Y-73110462D01*
X85910714Y-73158081D01*
X86101191Y-73158081D01*
X86196429Y-73110462D01*
X86244048Y-73062843D01*
X86291667Y-72967605D01*
X86291667Y-72777129D01*
X86244048Y-72681890D01*
X86196429Y-72634271D01*
X86101191Y-72586652D01*
X71635477Y-117278081D02*
X71635477Y-117992367D01*
X71587857Y-118135224D01*
X71492619Y-118230462D01*
X71349762Y-118278081D01*
X71254524Y-118278081D01*
X72635477Y-118278081D02*
X72064048Y-118278081D01*
X72349762Y-118278081D02*
X72349762Y-117278081D01*
X72254524Y-117420938D01*
X72159286Y-117516176D01*
X72064048Y-117563795D01*
X72968810Y-117278081D02*
X73635477Y-117278081D01*
X73206905Y-118278081D01*
X58969377Y-149610381D02*
X58969377Y-150324667D01*
X58921757Y-150467524D01*
X58826519Y-150562762D01*
X58683662Y-150610381D01*
X58588424Y-150610381D01*
X59969377Y-150610381D02*
X59397948Y-150610381D01*
X59683662Y-150610381D02*
X59683662Y-149610381D01*
X59588424Y-149753238D01*
X59493186Y-149848476D01*
X59397948Y-149896095D01*
X60826520Y-149943714D02*
X60826520Y-150610381D01*
X60588424Y-149562762D02*
X60350329Y-150277048D01*
X60969377Y-150277048D01*
D21*
X60270027Y-98705005D02*
X60270027Y-97042635D01*
X61101212Y-97873820D02*
X59438842Y-97873820D01*
X65946927Y-98755805D02*
X65946927Y-97093435D01*
X63813327Y-98705005D02*
X63813327Y-97042635D01*
X78638027Y-98705005D02*
X78638027Y-97042635D01*
X79469212Y-97873820D02*
X77806842Y-97873820D01*
X84314927Y-98755805D02*
X84314927Y-97093435D01*
X82181327Y-98705005D02*
X82181327Y-97042635D01*
D20*
X66566781Y-87684033D02*
X67281067Y-87684033D01*
X67423924Y-87731653D01*
X67519162Y-87826891D01*
X67566781Y-87969748D01*
X67566781Y-88064986D01*
X66566781Y-86731652D02*
X66566781Y-87207843D01*
X67042971Y-87255462D01*
X66995352Y-87207843D01*
X66947733Y-87112605D01*
X66947733Y-86874509D01*
X66995352Y-86779271D01*
X67042971Y-86731652D01*
X67138210Y-86684033D01*
X67376305Y-86684033D01*
X67471543Y-86731652D01*
X67519162Y-86779271D01*
X67566781Y-86874509D01*
X67566781Y-87112605D01*
X67519162Y-87207843D01*
X67471543Y-87255462D01*
X60079286Y-101342081D02*
X60079286Y-100342081D01*
X60317381Y-100342081D01*
X60460239Y-100389700D01*
X60555477Y-100484938D01*
X60603096Y-100580176D01*
X60650715Y-100770652D01*
X60650715Y-100913510D01*
X60603096Y-101103986D01*
X60555477Y-101199224D01*
X60460239Y-101294462D01*
X60317381Y-101342081D01*
X60079286Y-101342081D01*
X61079286Y-100961129D02*
X61841191Y-100961129D01*
X62507857Y-100342081D02*
X62698334Y-100342081D01*
X62793572Y-100389700D01*
X62888810Y-100484938D01*
X62936429Y-100675414D01*
X62936429Y-101008748D01*
X62888810Y-101199224D01*
X62793572Y-101294462D01*
X62698334Y-101342081D01*
X62507857Y-101342081D01*
X62412619Y-101294462D01*
X62317381Y-101199224D01*
X62269762Y-101008748D01*
X62269762Y-100675414D01*
X62317381Y-100484938D01*
X62412619Y-100389700D01*
X62507857Y-100342081D01*
X63365000Y-100342081D02*
X63365000Y-101151605D01*
X63412619Y-101246843D01*
X63460238Y-101294462D01*
X63555476Y-101342081D01*
X63745953Y-101342081D01*
X63841191Y-101294462D01*
X63888810Y-101246843D01*
X63936429Y-101151605D01*
X63936429Y-100342081D01*
X64269762Y-100342081D02*
X64841191Y-100342081D01*
X64555476Y-101342081D02*
X64555476Y-100342081D01*
X65698334Y-101342081D02*
X65126905Y-101342081D01*
X65412619Y-101342081D02*
X65412619Y-100342081D01*
X65317381Y-100484938D01*
X65222143Y-100580176D01*
X65126905Y-100627795D01*
X78676857Y-101215081D02*
X78676857Y-100215081D01*
X78914952Y-100215081D01*
X79057810Y-100262700D01*
X79153048Y-100357938D01*
X79200667Y-100453176D01*
X79248286Y-100643652D01*
X79248286Y-100786510D01*
X79200667Y-100976986D01*
X79153048Y-101072224D01*
X79057810Y-101167462D01*
X78914952Y-101215081D01*
X78676857Y-101215081D01*
X79676857Y-100834129D02*
X80438762Y-100834129D01*
X80914952Y-101215081D02*
X80914952Y-100215081D01*
X81486381Y-101215081D01*
X81486381Y-100215081D01*
X81962571Y-100691271D02*
X82295905Y-100691271D01*
X82438762Y-101215081D02*
X81962571Y-101215081D01*
X81962571Y-100215081D01*
X82438762Y-100215081D01*
X83057809Y-100215081D02*
X83248286Y-100215081D01*
X83343524Y-100262700D01*
X83438762Y-100357938D01*
X83486381Y-100548414D01*
X83486381Y-100881748D01*
X83438762Y-101072224D01*
X83343524Y-101167462D01*
X83248286Y-101215081D01*
X83057809Y-101215081D01*
X82962571Y-101167462D01*
X82867333Y-101072224D01*
X82819714Y-100881748D01*
X82819714Y-100548414D01*
X82867333Y-100357938D01*
X82962571Y-100262700D01*
X83057809Y-100215081D01*
X84438762Y-101215081D02*
X83867333Y-101215081D01*
X84153047Y-101215081D02*
X84153047Y-100215081D01*
X84057809Y-100357938D01*
X83962571Y-100453176D01*
X83867333Y-100500795D01*
X62699762Y-80009033D02*
X62747381Y-79866176D01*
X62747381Y-79628080D01*
X62699762Y-79532842D01*
X62652143Y-79485223D01*
X62556905Y-79437604D01*
X62461667Y-79437604D01*
X62366429Y-79485223D01*
X62318810Y-79532842D01*
X62271190Y-79628080D01*
X62223571Y-79818557D01*
X62175952Y-79913795D01*
X62128333Y-79961414D01*
X62033095Y-80009033D01*
X61937857Y-80009033D01*
X61842619Y-79961414D01*
X61795000Y-79913795D01*
X61747381Y-79818557D01*
X61747381Y-79580461D01*
X61795000Y-79437604D01*
X61747381Y-79104271D02*
X62747381Y-78866176D01*
X62033095Y-78675699D01*
X62747381Y-78485223D01*
X61747381Y-78247128D01*
X61747381Y-77437604D02*
X61747381Y-77628081D01*
X61795000Y-77723319D01*
X61842619Y-77770938D01*
X61985476Y-77866176D01*
X62175952Y-77913795D01*
X62556905Y-77913795D01*
X62652143Y-77866176D01*
X62699762Y-77818557D01*
X62747381Y-77723319D01*
X62747381Y-77532842D01*
X62699762Y-77437604D01*
X62652143Y-77389985D01*
X62556905Y-77342366D01*
X62318810Y-77342366D01*
X62223571Y-77389985D01*
X62175952Y-77437604D01*
X62128333Y-77532842D01*
X62128333Y-77723319D01*
X62175952Y-77818557D01*
X62223571Y-77866176D01*
X62318810Y-77913795D01*
X71436005Y-38211881D02*
X71436005Y-37211881D01*
X71674100Y-37211881D01*
X71816958Y-37259500D01*
X71912196Y-37354738D01*
X71959815Y-37449976D01*
X72007434Y-37640452D01*
X72007434Y-37783310D01*
X71959815Y-37973786D01*
X71912196Y-38069024D01*
X71816958Y-38164262D01*
X71674100Y-38211881D01*
X71436005Y-38211881D01*
X72959815Y-38211881D02*
X72388386Y-38211881D01*
X72674100Y-38211881D02*
X72674100Y-37211881D01*
X72578862Y-37354738D01*
X72483624Y-37449976D01*
X72388386Y-37497595D01*
X68583795Y-136686081D02*
X68583795Y-137495605D01*
X68631414Y-137590843D01*
X68679033Y-137638462D01*
X68774271Y-137686081D01*
X68964748Y-137686081D01*
X69059986Y-137638462D01*
X69107605Y-137590843D01*
X69155224Y-137495605D01*
X69155224Y-136686081D01*
X69583795Y-136781319D02*
X69631414Y-136733700D01*
X69726652Y-136686081D01*
X69964748Y-136686081D01*
X70059986Y-136733700D01*
X70107605Y-136781319D01*
X70155224Y-136876557D01*
X70155224Y-136971795D01*
X70107605Y-137114652D01*
X69536176Y-137686081D01*
X70155224Y-137686081D01*
X85728681Y-143270457D02*
X85252490Y-143603791D01*
X85728681Y-143841886D02*
X84728681Y-143841886D01*
X84728681Y-143460933D01*
X84776300Y-143365695D01*
X84823919Y-143318076D01*
X84919157Y-143270457D01*
X85062014Y-143270457D01*
X85157252Y-143318076D01*
X85204871Y-143365695D01*
X85252490Y-143460933D01*
X85252490Y-143841886D01*
X85728681Y-142318076D02*
X85728681Y-142889505D01*
X85728681Y-142603791D02*
X84728681Y-142603791D01*
X84871538Y-142699029D01*
X84966776Y-142794267D01*
X85014395Y-142889505D01*
X84728681Y-141984743D02*
X84728681Y-141365695D01*
X85109633Y-141699029D01*
X85109633Y-141556171D01*
X85157252Y-141460933D01*
X85204871Y-141413314D01*
X85300110Y-141365695D01*
X85538205Y-141365695D01*
X85633443Y-141413314D01*
X85681062Y-141460933D01*
X85728681Y-141556171D01*
X85728681Y-141841886D01*
X85681062Y-141937124D01*
X85633443Y-141984743D01*
X82092181Y-150191957D02*
X81615990Y-150525291D01*
X82092181Y-150763386D02*
X81092181Y-150763386D01*
X81092181Y-150382433D01*
X81139800Y-150287195D01*
X81187419Y-150239576D01*
X81282657Y-150191957D01*
X81425514Y-150191957D01*
X81520752Y-150239576D01*
X81568371Y-150287195D01*
X81615990Y-150382433D01*
X81615990Y-150763386D01*
X82092181Y-149239576D02*
X82092181Y-149811005D01*
X82092181Y-149525291D02*
X81092181Y-149525291D01*
X81235038Y-149620529D01*
X81330276Y-149715767D01*
X81377895Y-149811005D01*
X81187419Y-148858624D02*
X81139800Y-148811005D01*
X81092181Y-148715767D01*
X81092181Y-148477671D01*
X81139800Y-148382433D01*
X81187419Y-148334814D01*
X81282657Y-148287195D01*
X81377895Y-148287195D01*
X81520752Y-148334814D01*
X82092181Y-148906243D01*
X82092181Y-148287195D01*
X70940705Y-153198481D02*
X70940705Y-152198481D01*
X71178800Y-152198481D01*
X71321658Y-152246100D01*
X71416896Y-152341338D01*
X71464515Y-152436576D01*
X71512134Y-152627052D01*
X71512134Y-152769910D01*
X71464515Y-152960386D01*
X71416896Y-153055624D01*
X71321658Y-153150862D01*
X71178800Y-153198481D01*
X70940705Y-153198481D01*
X71893086Y-152293719D02*
X71940705Y-152246100D01*
X72035943Y-152198481D01*
X72274039Y-152198481D01*
X72369277Y-152246100D01*
X72416896Y-152293719D01*
X72464515Y-152388957D01*
X72464515Y-152484195D01*
X72416896Y-152627052D01*
X71845467Y-153198481D01*
X72464515Y-153198481D01*
X59058277Y-137672381D02*
X59058277Y-138386667D01*
X59010657Y-138529524D01*
X58915419Y-138624762D01*
X58772562Y-138672381D01*
X58677324Y-138672381D01*
X60058277Y-138672381D02*
X59486848Y-138672381D01*
X59772562Y-138672381D02*
X59772562Y-137672381D01*
X59677324Y-137815238D01*
X59582086Y-137910476D01*
X59486848Y-137958095D01*
X60391610Y-137672381D02*
X61010658Y-137672381D01*
X60677324Y-138053333D01*
X60820182Y-138053333D01*
X60915420Y-138100952D01*
X60963039Y-138148571D01*
X61010658Y-138243810D01*
X61010658Y-138481905D01*
X60963039Y-138577143D01*
X60915420Y-138624762D01*
X60820182Y-138672381D01*
X60534467Y-138672381D01*
X60439229Y-138624762D01*
X60391610Y-138577143D01*
X77727277Y-131037081D02*
X77727277Y-131751367D01*
X77679657Y-131894224D01*
X77584419Y-131989462D01*
X77441562Y-132037081D01*
X77346324Y-132037081D01*
X78727277Y-132037081D02*
X78155848Y-132037081D01*
X78441562Y-132037081D02*
X78441562Y-131037081D01*
X78346324Y-131179938D01*
X78251086Y-131275176D01*
X78155848Y-131322795D01*
X79584420Y-131037081D02*
X79393943Y-131037081D01*
X79298705Y-131084700D01*
X79251086Y-131132319D01*
X79155848Y-131275176D01*
X79108229Y-131465652D01*
X79108229Y-131846605D01*
X79155848Y-131941843D01*
X79203467Y-131989462D01*
X79298705Y-132037081D01*
X79489182Y-132037081D01*
X79584420Y-131989462D01*
X79632039Y-131941843D01*
X79679658Y-131846605D01*
X79679658Y-131608510D01*
X79632039Y-131513271D01*
X79584420Y-131465652D01*
X79489182Y-131418033D01*
X79298705Y-131418033D01*
X79203467Y-131465652D01*
X79155848Y-131513271D01*
X79108229Y-131608510D01*
X79425848Y-136228129D02*
X80187753Y-136228129D01*
X79806801Y-136609081D02*
X79806801Y-135847176D01*
X76885848Y-136228129D02*
X77647753Y-136228129D01*
X85004377Y-84326481D02*
X85004377Y-85040767D01*
X84956757Y-85183624D01*
X84861519Y-85278862D01*
X84718662Y-85326481D01*
X84623424Y-85326481D01*
X86004377Y-85326481D02*
X85432948Y-85326481D01*
X85718662Y-85326481D02*
X85718662Y-84326481D01*
X85623424Y-84469338D01*
X85528186Y-84564576D01*
X85432948Y-84612195D01*
X86575805Y-84755052D02*
X86480567Y-84707433D01*
X86432948Y-84659814D01*
X86385329Y-84564576D01*
X86385329Y-84516957D01*
X86432948Y-84421719D01*
X86480567Y-84374100D01*
X86575805Y-84326481D01*
X86766282Y-84326481D01*
X86861520Y-84374100D01*
X86909139Y-84421719D01*
X86956758Y-84516957D01*
X86956758Y-84564576D01*
X86909139Y-84659814D01*
X86861520Y-84707433D01*
X86766282Y-84755052D01*
X86575805Y-84755052D01*
X86480567Y-84802671D01*
X86432948Y-84850290D01*
X86385329Y-84945529D01*
X86385329Y-85136005D01*
X86432948Y-85231243D01*
X86480567Y-85278862D01*
X86575805Y-85326481D01*
X86766282Y-85326481D01*
X86861520Y-85278862D01*
X86909139Y-85231243D01*
X86956758Y-85136005D01*
X86956758Y-84945529D01*
X86909139Y-84850290D01*
X86861520Y-84802671D01*
X86766282Y-84755052D01*
X86702948Y-89517529D02*
X87464853Y-89517529D01*
X87083901Y-89898481D02*
X87083901Y-89136576D01*
X84162948Y-89517529D02*
X84924853Y-89517529D01*
X82619581Y-87906023D02*
X83333867Y-87906023D01*
X83476724Y-87953643D01*
X83571962Y-88048881D01*
X83619581Y-88191738D01*
X83619581Y-88286976D01*
X83619581Y-86906023D02*
X83619581Y-87477452D01*
X83619581Y-87191738D02*
X82619581Y-87191738D01*
X82762438Y-87286976D01*
X82857676Y-87382214D01*
X82905295Y-87477452D01*
X83619581Y-86429833D02*
X83619581Y-86239357D01*
X83571962Y-86144118D01*
X83524343Y-86096499D01*
X83381486Y-86001261D01*
X83191010Y-85953642D01*
X82810057Y-85953642D01*
X82714819Y-86001261D01*
X82667200Y-86048880D01*
X82619581Y-86144118D01*
X82619581Y-86334595D01*
X82667200Y-86429833D01*
X82714819Y-86477452D01*
X82810057Y-86525071D01*
X83048152Y-86525071D01*
X83143390Y-86477452D01*
X83191010Y-86429833D01*
X83238629Y-86334595D01*
X83238629Y-86144118D01*
X83191010Y-86048880D01*
X83143390Y-86001261D01*
X83048152Y-85953642D01*
X75483843Y-52914438D02*
X75531462Y-52962057D01*
X75579081Y-53104914D01*
X75579081Y-53200152D01*
X75531462Y-53343010D01*
X75436224Y-53438248D01*
X75340986Y-53485867D01*
X75150510Y-53533486D01*
X75007652Y-53533486D01*
X74817176Y-53485867D01*
X74721938Y-53438248D01*
X74626700Y-53343010D01*
X74579081Y-53200152D01*
X74579081Y-53104914D01*
X74626700Y-52962057D01*
X74674319Y-52914438D01*
X74579081Y-52628724D02*
X75579081Y-52295391D01*
X74579081Y-51962057D01*
X75579081Y-51104914D02*
X75579081Y-51676343D01*
X75579081Y-51390629D02*
X74579081Y-51390629D01*
X74721938Y-51485867D01*
X74817176Y-51581105D01*
X74864795Y-51676343D01*
X64524681Y-79724181D02*
X63524681Y-79724181D01*
X64238967Y-79390847D01*
X63524681Y-79057514D01*
X64524681Y-79057514D01*
X64524681Y-78152752D02*
X64000871Y-78152752D01*
X63905633Y-78200371D01*
X63858014Y-78295609D01*
X63858014Y-78486086D01*
X63905633Y-78581324D01*
X64477062Y-78152752D02*
X64524681Y-78247990D01*
X64524681Y-78486086D01*
X64477062Y-78581324D01*
X64381824Y-78628943D01*
X64286586Y-78628943D01*
X64191348Y-78581324D01*
X64143729Y-78486086D01*
X64143729Y-78247990D01*
X64096110Y-78152752D01*
X64524681Y-77676562D02*
X63858014Y-77676562D01*
X63524681Y-77676562D02*
X63572300Y-77724181D01*
X63619919Y-77676562D01*
X63572300Y-77628943D01*
X63524681Y-77676562D01*
X63619919Y-77676562D01*
X63858014Y-77200372D02*
X64524681Y-77200372D01*
X63953252Y-77200372D02*
X63905633Y-77152753D01*
X63858014Y-77057515D01*
X63858014Y-76914657D01*
X63905633Y-76819419D01*
X64000871Y-76771800D01*
X64524681Y-76771800D01*
X64524681Y-75771800D02*
X64524681Y-76343229D01*
X64524681Y-76057515D02*
X63524681Y-76057515D01*
X63667538Y-76152753D01*
X63762776Y-76247991D01*
X63810395Y-76343229D01*
X53411981Y-53995410D02*
X54411981Y-53662077D01*
X53411981Y-53328743D01*
X54411981Y-52852553D02*
X54364362Y-52947791D01*
X54316743Y-52995410D01*
X54221505Y-53043029D01*
X53935790Y-53043029D01*
X53840552Y-52995410D01*
X53792933Y-52947791D01*
X53745314Y-52852553D01*
X53745314Y-52709695D01*
X53792933Y-52614457D01*
X53840552Y-52566838D01*
X53935790Y-52519219D01*
X54221505Y-52519219D01*
X54316743Y-52566838D01*
X54364362Y-52614457D01*
X54411981Y-52709695D01*
X54411981Y-52852553D01*
X54411981Y-51947791D02*
X54364362Y-52043029D01*
X54269124Y-52090648D01*
X53411981Y-52090648D01*
X54411981Y-51043028D02*
X54411981Y-51614457D01*
X54411981Y-51328743D02*
X53411981Y-51328743D01*
X53554838Y-51423981D01*
X53650076Y-51519219D01*
X53697695Y-51614457D01*
X71349005Y-82812081D02*
X71349005Y-81812081D01*
X71587100Y-81812081D01*
X71729958Y-81859700D01*
X71825196Y-81954938D01*
X71872815Y-82050176D01*
X71920434Y-82240652D01*
X71920434Y-82383510D01*
X71872815Y-82573986D01*
X71825196Y-82669224D01*
X71729958Y-82764462D01*
X71587100Y-82812081D01*
X71349005Y-82812081D01*
X72253767Y-81812081D02*
X72872815Y-81812081D01*
X72539481Y-82193033D01*
X72682339Y-82193033D01*
X72777577Y-82240652D01*
X72825196Y-82288271D01*
X72872815Y-82383510D01*
X72872815Y-82621605D01*
X72825196Y-82716843D01*
X72777577Y-82764462D01*
X72682339Y-82812081D01*
X72396624Y-82812081D01*
X72301386Y-82764462D01*
X72253767Y-82716843D01*
X71423543Y-85914881D02*
X71090209Y-85438690D01*
X70852114Y-85914881D02*
X70852114Y-84914881D01*
X71233067Y-84914881D01*
X71328305Y-84962500D01*
X71375924Y-85010119D01*
X71423543Y-85105357D01*
X71423543Y-85248214D01*
X71375924Y-85343452D01*
X71328305Y-85391071D01*
X71233067Y-85438690D01*
X70852114Y-85438690D01*
X72375924Y-85914881D02*
X71804495Y-85914881D01*
X72090209Y-85914881D02*
X72090209Y-84914881D01*
X71994971Y-85057738D01*
X71899733Y-85152976D01*
X71804495Y-85200595D01*
X73233067Y-84914881D02*
X73042590Y-84914881D01*
X72947352Y-84962500D01*
X72899733Y-85010119D01*
X72804495Y-85152976D01*
X72756876Y-85343452D01*
X72756876Y-85724405D01*
X72804495Y-85819643D01*
X72852114Y-85867262D01*
X72947352Y-85914881D01*
X73137829Y-85914881D01*
X73233067Y-85867262D01*
X73280686Y-85819643D01*
X73328305Y-85724405D01*
X73328305Y-85486310D01*
X73280686Y-85391071D01*
X73233067Y-85343452D01*
X73137829Y-85295833D01*
X72947352Y-85295833D01*
X72852114Y-85343452D01*
X72804495Y-85391071D01*
X72756876Y-85486310D01*
M02*
