<?xml version="1.0" standalone="no"?>
 <!DOCTYPE svg PUBLIC "-//W3C//DTD SVG 1.1//EN" 
 "http://www.w3.org/Graphics/SVG/1.1/DTD/svg11.dtd"> 
<svg xmlns="http://www.w3.org/2000/svg" version="1.1" 
    width="1.31572cm" height="2.5146cm" viewBox="0 0 5180 9900 ">
<title>SVG Picture created as SW_3PDT.svg date 2018/07/14 01:12:42 </title>
  <desc>Picture generated by Eeschema-SVG </desc>
<g style="fill:#000000; fill-opacity:1;stroke:#000000; stroke-opacity:1;
stroke-linecap:round; stroke-linejoin:round; "
 transform="translate(0 0) scale(1 1)">
</g>
<g style="fill:#000000; fill-opacity:0.0; 
stroke:#000000; stroke-width:-10; stroke-opacity:1; 
stroke-linecap:round; stroke-linejoin:round;">
</g>
<g style="fill:#000000; fill-opacity:0.0; 
stroke:#000000; stroke-width:60; stroke-opacity:1; 
stroke-linecap:round; stroke-linejoin:round;">
<circle cx="1790" cy="2450" r="200" /> 
<circle cx="3390" cy="2950" r="200" /> 
<circle cx="3390" cy="1950" r="200" /> 
<polyline fill="none;"
points="1590,6450
3090,5950
" /> 
<polyline fill="none;"
points="1590,4450
3090,3950
" /> 
<polyline fill="none;"
points="1590,2450
3090,1950
" /> 
<path d="M3590 1950
L4590 1950
" />
<path d="M4230 2530
L3950 2530
" />
<path d="M4090 2530
L4090 2030
L4040 2100
L3990 2150
L3950 2170
" />
<path d="M1590 2450
L590 2450
" />
<path d="M950 2570
L970 2550
L1020 2530
L1140 2530
L1180 2550
L1210 2570
L1230 2620
L1230 2670
L1210 2740
L920 3030
L1230 3030
" />
<path d="M3590 2950
L4590 2950
" />
<path d="M3920 3030
L4230 3030
L4060 3220
L4140 3220
L4180 3240
L4210 3260
L4230 3310
L4230 3430
L4210 3480
L4180 3500
L4140 3530
L3990 3530
L3950 3500
L3920 3480
" />
<path d="M3410 3950
L4590 3950
" />
<path d="M4090 4190
L4090 4530
" />
<path d="M3970 4000
L3860 4360
L4160 4360
" />
<path d="M1770 4450
L590 4450
" />
<path d="M1300 4530
L1060 4530
L1040 4760
L1060 4740
L1110 4720
L1230 4720
L1270 4740
L1300 4760
L1320 4810
L1320 4930
L1300 4980
L1270 5000
L1230 5030
L1110 5030
L1060 5000
L1040 4980
" />
<path d="M3410 4950
L4590 4950
" />
<path d="M4090 5030
L4000 5030
L3950 5050
L3930 5070
L3880 5150
L3860 5240
L3860 5430
L3880 5480
L3900 5500
L3950 5530
L4050 5530
L4090 5500
L4120 5480
L4140 5430
L4140 5310
L4120 5260
L4090 5240
L4050 5220
L3950 5220
L3900 5240
L3880 5260
L3860 5310
" />
<path d="M3410 5950
L4590 5950
" />
<path d="M3830 6030
L4160 6030
L3950 6530
" />
<path d="M1770 6450
L590 6450
" />
<path d="M1130 6740
L1080 6720
L1060 6690
L1040 6650
L1040 6620
L1060 6570
L1080 6550
L1130 6530
L1230 6530
L1270 6550
L1300 6570
L1320 6620
L1320 6650
L1300 6690
L1270 6720
L1230 6740
L1130 6740
L1080 6760
L1060 6790
L1040 6840
L1040 6930
L1060 6980
L1080 7000
L1130 7030
L1230 7030
L1270 7000
L1300 6980
L1320 6930
L1320 6840
L1300 6790
L1270 6760
L1230 6740
" />
<path d="M3410 6950
L4590 6950
" />
<path d="M3900 7530
L4000 7530
L4050 7500
L4070 7480
L4120 7410
L4140 7310
L4140 7120
L4120 7070
L4090 7050
L4050 7030
L3950 7030
L3900 7050
L3880 7070
L3860 7120
L3860 7240
L3880 7290
L3900 7310
L3950 7340
L4050 7340
L4090 7310
L4120 7290
L4140 7240
" />
<path d="M1950 1180
L2020 1210
L2140 1210
L2180 1180
L2210 1160
L2230 1110
L2230 1060
L2210 1020
L2180 990
L2140 970
L2040 940
L1990 920
L1970 900
L1950 850
L1950 800
L1970 750
L1990 730
L2040 710
L2160 710
L2230 730
" />
<path d="M2400 710
L2520 1210
L2620 850
L2710 1210
L2830 710
" />
<path d="M3090 1160
L3110 1180
L3090 1210
L3070 1180
L3090 1160
L3090 1210
" />
<path d="M3000 730
L3040 710
L3160 710
L3210 730
L3230 780
L3230 830
L3210 870
L3190 900
L3140 920
L3110 940
L3090 990
L3090 1020
" />
<path d="M1050 8680
L1120 8710
L1240 8710
L1280 8680
L1310 8660
L1330 8610
L1330 8560
L1310 8520
L1280 8490
L1240 8470
L1140 8440
L1090 8420
L1070 8400
L1050 8350
L1050 8300
L1070 8250
L1090 8230
L1140 8210
L1260 8210
L1330 8230
" />
<path d="M1500 8210
L1620 8710
L1720 8350
L1810 8710
L1930 8210
" />
<path d="M2000 8750
L2380 8750
" />
<path d="M2450 8210
L2760 8210
L2590 8400
L2670 8400
L2710 8420
L2740 8440
L2760 8490
L2760 8610
L2740 8660
L2710 8680
L2670 8710
L2520 8710
L2480 8680
L2450 8660
" />
<path d="M2980 8710
L2980 8210
L3170 8210
L3220 8230
L3240 8250
L3260 8300
L3260 8370
L3240 8420
L3220 8440
L3170 8470
L2980 8470
" />
<path d="M3480 8710
L3480 8210
L3600 8210
L3670 8230
L3720 8280
L3740 8330
L3760 8420
L3760 8490
L3740 8590
L3720 8630
L3670 8680
L3600 8710
L3480 8710
" />
<path d="M3910 8210
L4190 8210
" />
<path d="M4050 8710
L4050 8210
" />
</g> 
</svg>
