  0
SECTION
  2
HEADER
  9
$ACADVER
  1
AC1014
  9
$HANDSEED
  5
FFFF
  9
$MEASUREMENT
 70
     1
  0
ENDSEC
  0
SECTION
  2
TABLES
  0
TABLE
  2
VPORT
  5
8
330
0
100
AcDbSymbolTable
 70
     4
  0
VPORT
  5
2E
330
8
100
AcDbSymbolTableRecord
100
AcDbViewportTableRecord
  2
*ACTIVE
 70
     0
 10
0.0
 20
0.0
 11
1.0
 21
1.0
 12
210.0
 22
148.5
 13
0.0
 23
0.0
 14
10.0
 24
10.0
 15
10.0
 25
10.0
 16
0.0
 26
0.0
 36
1.0
 17
0.0
 27
0.0
 37
0.0
 40
341.0
 41
1.24
 42
50.0
 43
0.0
 44
0.0
 50
0.0
 51
0.0
 71
     0
 72
   100
 73
     1
 74
     3
 75
     0
 76
     0
 77
     0
 78
     0
  0
ENDTAB
  0
TABLE
  2
LTYPE
  5
5
330
0
100
AcDbSymbolTable
 70
     1
  0
LTYPE
  5
14
330
5
100
AcDbSymbolTableRecord
100
AcDbLinetypeTableRecord
  2
BYBLOCK
 70
     0
  3

 72
    65
 73
     0
 40
0.0
  0
LTYPE
  5
15
330
5
100
AcDbSymbolTableRecord
100
AcDbLinetypeTableRecord
  2
BYLAYER
 70
     0
  3

 72
    65
 73
     0
 40
0.0
  0
LTYPE
  5
16
330
5
100
AcDbSymbolTableRecord
100
AcDbLinetypeTableRecord
  2
CONTINUOUS
 70
     0
  3
Solid line
 72
    65
 73
     0
 40
0.0
  0
ENDTAB
  0
TABLE
  2
LAYER
  5
2
100
AcDbSymbolTable
 70
2
  0
LAYER
  5
50
100
AcDbSymbolTableRecord
100
AcDbLayerTableRecord
  2
0
 70
0
  6
CONTINUOUS
  0
LAYER
  5
51
100
AcDbSymbolTableRecord
100
AcDbLayerTableRecord
  2
Layer_1
 70
0
  6
CONTINUOUS
  0
ENDTAB
  0
TABLE
  2
STYLE
  5
3
330
0
100
AcDbSymbolTable
 70
     1
  0
STYLE
  5
11
330
3
100
AcDbSymbolTableRecord
100
AcDbTextStyleTableRecord
  2
STANDARD
 70
     0
 40
0.0
 41
1.0
 50
0.0
 71
     0
 42
2.5
  3
txt
  4

  0
ENDTAB
  0
TABLE
  2
VIEW
  5
6
330
0
100
AcDbSymbolTable
 70
     0
  0
ENDTAB
  0
TABLE
  2
UCS
  5
7
330
0
100
AcDbSymbolTable
 70
     0
  0
ENDTAB
  0
TABLE
  2
APPID
  5
9
330
0
100
AcDbSymbolTable
 70
     2
  0
APPID
  5
12
330
9
100
AcDbSymbolTableRecord
100
AcDbRegAppTableRecord
  2
ACAD
 70
     0
  0
ENDTAB
  0
TABLE
  2
DIMSTYLE
  5
A
330
0
100
AcDbSymbolTable
 70
     1
  0
DIMSTYLE
105
27
330
A
100
AcDbSymbolTableRecord
100
AcDbDimStyleTableRecord
  2
ISO-25
 70
     0
  3

  4

  5

  6

  7

 40
1.0
 41
2.5
 42
0.625
 43
3.75
 44
1.25
 45
0.0
 46
0.0
 47
0.0
 48
0.0
140
2.5
141
2.5
142
0.0
143
0.03937007874016
144
1.0
145
0.0
146
1.0
147
0.625
 71
     0
 72
     0
 73
     0
 74
     0
 75
     0
 76
     0
 77
     1
 78
     8
170
     0
171
     3
172
     1
173
     0
174
     0
175
     0
176
     0
177
     0
178
     0
270
     2
271
     2
272
     2
273
     2
274
     3
340
11
275
     0
280
     0
281
     0
282
     0
283
     0
284
     8
285
     0
286
     0
287
     3
288
     0
  0
ENDTAB
  0
TABLE
  2
BLOCK_RECORD
  5
1
330
0
100
AcDbSymbolTable
 70
     1
  0
BLOCK_RECORD
  5
1F
330
1
100
AcDbSymbolTableRecord
100
AcDbBlockTableRecord
  2
*MODEL_SPACE
  0
BLOCK_RECORD
  5
1B
330
1
100
AcDbSymbolTableRecord
100
AcDbBlockTableRecord
  2
*PAPER_SPACE
  0
ENDTAB
  0
ENDSEC
  0
SECTION
  2
BLOCKS
  0
BLOCK
  5
20
330
1F
100
AcDbEntity
  8
0
100
AcDbBlockBegin
  2
*MODEL_SPACE
 70
     0
 10
0.0
 20
0.0
 30
0.0
  3
*MODEL_SPACE
  1

  0
ENDBLK
  5
21
330
1F
100
AcDbEntity
  8
0
100
AcDbBlockEnd
  0
BLOCK
  5
1C
330
1B
100
AcDbEntity
 67
     1
  8
0
100
AcDbBlockBegin
  2
*PAPER_SPACE
  1

  0
ENDBLK
  5
1D
330
1B
100
AcDbEntity
 67
     1
  8
0
100
AcDbBlockEnd
  0
ENDSEC
  0
SECTION
  2
ENTITIES
  0
LWPOLYLINE
  5
100
100
AcDbEntity
  8
Layer_1
 62
7
100
AcDbPolyline
 90
65
 70
1
 10
33.536663
 20
-0.076402
 30
0.0
 10
29.974163
 20
-0.076402
 30
0.0
 10
26.411662
 20
-0.076402
 30
0.0
 10
22.849162
 20
-0.076402
 30
0.0
 10
19.286662
 20
-0.076402
 30
0.0
 10
15.724162
 20
-0.076402
 30
0.0
 10
12.161662
 20
-0.076402
 30
0.0
 10
8.599162
 20
-0.076402
 30
0.0
 10
5.036662
 20
-0.076402
 30
0.0
 10
4.026525
 20
0.024831
 30
0.0
 10
3.086818
 20
0.315323
 30
0.0
 10
2.237345
 20
0.775260
 30
0.0
 10
1.497912
 20
1.384860
 30
0.0
 10
0.888322
 20
2.124283
 30
0.0
 10
0.428381
 20
2.973771
 30
0.0
 10
0.137892
 20
3.913487
 30
0.0
 10
0.036662
 20
4.923617
 30
0.0
 10
0.036662
 20
15.248615
 30
0.0
 10
0.036662
 20
25.573613
 30
0.0
 10
0.036662
 20
35.898612
 30
0.0
 10
0.036662
 20
46.223607
 30
0.0
 10
0.036662
 20
56.548606
 30
0.0
 10
0.036662
 20
66.873604
 30
0.0
 10
0.036662
 20
77.198603
 30
0.0
 10
0.036662
 20
87.523601
 30
0.0
 10
0.137892
 20
88.533736
 30
0.0
 10
0.428381
 20
89.473446
 30
0.0
 10
0.888322
 20
90.322918
 30
0.0
 10
1.497912
 20
91.062352
 30
0.0
 10
2.237345
 20
91.671940
 30
0.0
 10
3.086818
 20
92.131883
 30
0.0
 10
4.026525
 20
92.422372
 30
0.0
 10
5.036662
 20
92.523602
 30
0.0
 10
8.599162
 20
92.523602
 30
0.0
 10
12.161662
 20
92.523602
 30
0.0
 10
15.724162
 20
92.523602
 30
0.0
 10
19.286662
 20
92.523602
 30
0.0
 10
22.849162
 20
92.523602
 30
0.0
 10
26.411662
 20
92.523602
 30
0.0
 10
29.974163
 20
92.523602
 30
0.0
 10
33.536663
 20
92.523602
 30
0.0
 10
34.546798
 20
92.422372
 30
0.0
 10
35.486508
 20
92.131883
 30
0.0
 10
36.335980
 20
91.671940
 30
0.0
 10
37.075413
 20
91.062352
 30
0.0
 10
37.685002
 20
90.322918
 30
0.0
 10
38.144945
 20
89.473446
 30
0.0
 10
38.435434
 20
88.533736
 30
0.0
 10
38.536664
 20
87.523601
 30
0.0
 10
38.536664
 20
77.198603
 30
0.0
 10
38.536664
 20
66.873604
 30
0.0
 10
38.536664
 20
56.548606
 30
0.0
 10
38.536664
 20
46.223607
 30
0.0
 10
38.536664
 20
35.898612
 30
0.0
 10
38.536664
 20
25.573613
 30
0.0
 10
38.536664
 20
15.248615
 30
0.0
 10
38.536664
 20
4.923617
 30
0.0
 10
38.435434
 20
3.913487
 30
0.0
 10
38.144945
 20
2.973771
 30
0.0
 10
37.685002
 20
2.124283
 30
0.0
 10
37.075413
 20
1.384860
 30
0.0
 10
36.335980
 20
0.775260
 30
0.0
 10
35.486508
 20
0.315323
 30
0.0
 10
34.546798
 20
0.024831
 30
0.0
 10
33.536663
 20
-0.076402
 30
0.0
  0
LWPOLYLINE
  5
101
100
AcDbEntity
  8
Layer_1
 62
7
100
AcDbPolyline
 90
2
 70
0
 10
19.286678
 20
-1.686395
 30
0.0
 10
19.286678
 20
94.574057
 30
0.0
  0
LWPOLYLINE
  5
102
100
AcDbEntity
  8
Layer_1
 62
7
100
AcDbPolyline
 90
2
 70
0
 10
-1.683026
 20
78.923598
 30
0.0
 10
42.582740
 20
78.923598
 30
0.0
  0
LWPOLYLINE
  5
103
100
AcDbEntity
  8
Layer_1
 62
7
100
AcDbPolyline
 90
2
 70
0
 10
-2.151430
 20
14.923597
 30
0.0
 10
42.582740
 20
14.923597
 30
0.0
  0
LWPOLYLINE
  5
104
100
AcDbEntity
  8
Layer_1
 62
7
100
AcDbPolyline
 90
2
 70
0
 10
10.036662
 20
95.372712
 30
0.0
 10
10.036662
 20
-1.239044
 30
0.0
  0
LWPOLYLINE
  5
105
100
AcDbEntity
  8
Layer_1
 62
7
100
AcDbPolyline
 90
2
 70
0
 10
-1.118582
 20
32.923597
 30
0.0
 10
43.498418
 20
32.923597
 30
0.0
  0
LWPOLYLINE
  5
106
100
AcDbEntity
  8
Layer_1
 62
7
100
AcDbPolyline
 90
2
 70
0
 10
28.536661
 20
-1.686395
 30
0.0
 10
28.536661
 20
94.574057
 30
0.0
  0
LWPOLYLINE
  5
107
100
AcDbEntity
  8
Layer_1
 62
7
100
AcDbPolyline
 90
2
 70
0
 10
-1.683026
 20
54.923598
 30
0.0
 10
42.582740
 20
54.923598
 30
0.0
  0
ENDSEC
  0
SECTION
  2
OBJECTS
  0
DICTIONARY
  5
C
330
0
100
AcDbDictionary
  3
ACAD_GROUP
350
D
  3
ACAD_MLINESTYLE
350
17
  0
DICTIONARY
  5
D
330
C
100
AcDbDictionary
  0
DICTIONARY
  5
1A
330
C
100
AcDbDictionary
  0
DICTIONARY
  5
17
330
C
100
AcDbDictionary
  3
STANDARD
350
18
  0
DICTIONARY
  5
19
330
C
100
AcDbDictionary
  0
ENDSEC
  0
EOF
